<?xml version="1.0" encoding="UTF-8"?>
<!DOCTYPE svg PUBLIC "-//W3C//DTD SVG 1.1//EN" "http://www.w3.org/Graphics/SVG/1.1/DTD/svg11.dtd">
<svg xmlns="http://www.w3.org/2000/svg" version="1.1" width="270px" height="270px" style="shape-rendering:geometricPrecision; text-rendering:geometricPrecision; image-rendering:optimizeQuality; fill-rule:evenodd; clip-rule:evenodd" xmlns:xlink="http://www.w3.org/1999/xlink">
<g><path style="opacity:0.98" fill="#c7c7c7" d="M 79.5,-0.5 C 116.167,-0.5 152.833,-0.5 189.5,-0.5C 216.542,4.28683 237.042,18.6202 251,42.5C 261.364,60.9844 267.53,80.6511 269.5,101.5C 269.5,123.5 269.5,145.5 269.5,167.5C 266.909,200.183 253.909,228.016 230.5,251C 218.486,261.01 204.819,267.177 189.5,269.5C 152.833,269.5 116.167,269.5 79.5,269.5C 52.4584,264.713 31.9584,250.38 18,226.5C 7.63564,208.011 1.46897,188.345 -0.5,167.5C -0.5,145.5 -0.5,123.5 -0.5,101.5C 2.17852,68.3089 15.5119,40.1422 39.5,17C 51.3503,7.57026 64.6836,1.73693 79.5,-0.5 Z"/></g>
<g><path style="opacity:1" fill="#010101" d="M 79.5,15.5 C 115.168,15.3333 150.835,15.5 186.5,16C 208,19.8296 224.5,30.9963 236,49.5C 245.465,65.5611 251.131,82.8945 253,101.5C 253.667,123.167 253.667,144.833 253,166.5C 250.777,190.855 242.11,212.522 227,231.5C 216.13,243.52 202.63,250.686 186.5,253C 150.833,253.667 115.167,253.667 79.5,253C 59.2874,248.316 43.7874,237.149 33,219.5C 23.7218,202.999 18.0552,185.332 16,166.5C 15.3333,144.833 15.3333,123.167 16,101.5C 18.0743,77.3695 26.741,56.0362 42,37.5C 52.3634,26.4059 64.8634,19.0726 79.5,15.5 Z"/></g>
<g><path style="opacity:1" fill="#fcd35b" d="M 81.5,81.5 C 116.502,81.3333 151.502,81.5 186.5,82C 207.564,86.0645 220.398,98.5645 225,119.5C 225.667,129.167 225.667,138.833 225,148.5C 220.833,170 208,182.833 186.5,187C 151.5,187.667 116.5,187.667 81.5,187C 60.5918,182.424 48.0918,169.591 44,148.5C 43.3333,138.833 43.3333,129.167 44,119.5C 48.6809,98.9864 61.1809,86.3197 81.5,81.5 Z"/></g>
<g><path style="opacity:1" fill="#050301" d="M 84.5,99.5 C 96.479,110.812 108.146,122.479 119.5,134.5C 108.181,146.319 96.6809,157.986 85,169.5C 79.9849,164.652 75.1515,159.652 70.5,154.5C 76.8333,147.833 83.1667,141.167 89.5,134.5C 83.1667,127.833 76.8333,121.167 70.5,114.5C 75.1884,109.48 79.8551,104.48 84.5,99.5 Z"/></g>
<g><path style="opacity:1" fill="#0d0a04" d="M 149.5,122.5 C 165.167,122.5 180.833,122.5 196.5,122.5C 196.5,130.5 196.5,138.5 196.5,146.5C 180.833,146.5 165.167,146.5 149.5,146.5C 149.5,138.5 149.5,130.5 149.5,122.5 Z"/></g>
</svg>
