<?xml version="1.0" encoding="UTF-8"?>
<!DOCTYPE svg PUBLIC "-//W3C//DTD SVG 1.1//EN" "http://www.w3.org/Graphics/SVG/1.1/DTD/svg11.dtd">
<svg xmlns="http://www.w3.org/2000/svg" version="1.1" width="128px" height="128px" style="shape-rendering:geometricPrecision; text-rendering:geometricPrecision; image-rendering:optimizeQuality; fill-rule:evenodd; clip-rule:evenodd" xmlns:xlink="http://www.w3.org/1999/xlink">
<g><path style="opacity:0.991" fill="#000000" d="M 6.5,-0.5 C 44.5,-0.5 82.5,-0.5 120.5,-0.5C 123.167,1.5 125.5,3.83333 127.5,6.5C 127.5,44.5 127.5,82.5 127.5,120.5C 125.5,123.167 123.167,125.5 120.5,127.5C 82.5,127.5 44.5,127.5 6.5,127.5C 3.83333,125.5 1.5,123.167 -0.5,120.5C -0.5,82.5 -0.5,44.5 -0.5,6.5C 1.5,3.83333 3.83333,1.5 6.5,-0.5 Z"/></g>
<g><path style="opacity:1" fill="#fefefe" d="M 9.5,7.5 C 45.5015,7.33335 81.5015,7.50001 117.5,8C 118,8.5 118.5,9 119,9.5C 119.667,45.5 119.667,81.5 119,117.5C 118.5,118 118,118.5 117.5,119C 81.5,119.667 45.5,119.667 9.5,119C 9,118.5 8.5,118 8,117.5C 7.33333,81.5 7.33333,45.5 8,9.5C 8.71719,8.9558 9.21719,8.28913 9.5,7.5 Z"/></g>
<g><path style="opacity:1" fill="#000000" d="M 79.5,15.5 C 84.8333,15.5 90.1667,15.5 95.5,15.5C 95.5,23.5 95.5,31.5 95.5,39.5C 101.176,39.3339 106.843,39.5006 112.5,40C 104.319,48.3478 95.9858,56.5145 87.5,64.5C 79.0142,56.5145 70.6809,48.3478 62.5,40C 68.1569,39.5006 73.8236,39.3339 79.5,39.5C 79.5,31.5 79.5,23.5 79.5,15.5 Z"/></g>
<g><path style="opacity:1" fill="#020202" d="M 17.5,19.5 C 19.3084,19.4914 20.9751,19.9914 22.5,21C 26.6816,25.3487 31.0149,29.5154 35.5,33.5C 39.9851,29.5154 44.3184,25.3487 48.5,21C 50.8953,18.8549 53.062,19.0216 55,21.5C 55.4999,35.496 55.6666,49.496 55.5,63.5C 52.8333,63.5 50.1667,63.5 47.5,63.5C 47.6665,53.4944 47.4998,43.4944 47,33.5C 43.5831,37.4241 39.7497,40.7575 35.5,43.5C 31.2503,40.7575 27.4169,37.4241 24,33.5C 23.5002,43.4944 23.3335,53.4944 23.5,63.5C 20.8333,63.5 18.1667,63.5 15.5,63.5C 15.3334,49.496 15.5001,35.496 16,21.5C 16.7172,20.9558 17.2172,20.2891 17.5,19.5 Z"/></g>
<g><path style="opacity:1" fill="#000000" d="M 15.5,71.5 C 18.1667,71.5 20.8333,71.5 23.5,71.5C 23.5,82.1667 23.5,92.8333 23.5,103.5C 26.1667,103.5 28.8333,103.5 31.5,103.5C 31.5,106.167 31.5,108.833 31.5,111.5C 26.1667,111.5 20.8333,111.5 15.5,111.5C 15.5,98.1667 15.5,84.8333 15.5,71.5 Z"/></g>
<g><path style="opacity:1" fill="#000000" d="M 39.5,71.5 C 42.1667,71.5 44.8333,71.5 47.5,71.5C 47.5,74.1667 47.5,76.8333 47.5,79.5C 44.8333,79.5 42.1667,79.5 39.5,79.5C 39.5,76.8333 39.5,74.1667 39.5,71.5 Z"/></g>
<g><path style="opacity:1" fill="#000000" d="M 95.5,75.5 C 98.1667,75.5 100.833,75.5 103.5,75.5C 103.5,79.5 103.5,83.5 103.5,87.5C 106.167,87.5 108.833,87.5 111.5,87.5C 111.5,90.1667 111.5,92.8333 111.5,95.5C 108.833,95.5 106.167,95.5 103.5,95.5C 103.5,100.833 103.5,106.167 103.5,111.5C 100.833,111.5 98.1667,111.5 95.5,111.5C 95.5,106.167 95.5,100.833 95.5,95.5C 92.8333,95.5 90.1667,95.5 87.5,95.5C 87.5,92.8333 87.5,90.1667 87.5,87.5C 90.1667,87.5 92.8333,87.5 95.5,87.5C 95.5,83.5 95.5,79.5 95.5,75.5 Z"/></g>
<g><path style="opacity:1" fill="#000000" d="M 39.5,87.5 C 42.1667,87.5 44.8333,87.5 47.5,87.5C 47.5,95.5 47.5,103.5 47.5,111.5C 44.8333,111.5 42.1667,111.5 39.5,111.5C 39.5,103.5 39.5,95.5 39.5,87.5 Z"/></g>
<g><path style="opacity:1" fill="#000000" d="M 55.5,87.5 C 63.5,87.5 71.5,87.5 79.5,87.5C 79.5,95.5 79.5,103.5 79.5,111.5C 76.8333,111.5 74.1667,111.5 71.5,111.5C 71.5,106.167 71.5,100.833 71.5,95.5C 68.8333,95.5 66.1667,95.5 63.5,95.5C 63.5,100.833 63.5,106.167 63.5,111.5C 60.8333,111.5 58.1667,111.5 55.5,111.5C 55.5,103.5 55.5,95.5 55.5,87.5 Z"/></g>
</svg>
