<svg xmlns="http://www.w3.org/2000/svg" xmlns:xlink="http://www.w3.org/1999/xlink" width="96" height="96"><linearGradient id="c"><stop offset="0" stop-color="#6e6c6d"/><stop offset="1" stop-color="#bebebe"/></linearGradient><linearGradient id="a"><stop offset="0" stop-color="#fefefe"/><stop offset="1" stop-color="#fefefe" stop-opacity="0"/></linearGradient><linearGradient id="g" x1="48" x2="48" y1="90" y2="5.988" gradientUnits="userSpaceOnUse"><stop offset="0" stop-color="#09924c"/><stop offset="1" stop-color="#06c45a"/></linearGradient><linearGradient xlink:href="#a" id="h" x1="36.357" x2="36.357" y1="6" y2="63.893" gradientUnits="userSpaceOnUse"/><radialGradient xlink:href="#a" id="i" cx="48" cy="90.172" r="42" gradientTransform="matrix(1.15731 0 0 .9959 -7.551 .197)" gradientUnits="userSpaceOnUse"/><clipPath id="f"><rect width="84" height="84" x="6" y="6" rx="6"/></clipPath><linearGradient id="b" x1="45.448" x2="45.448" y1="92.54" y2="7.017" gradientTransform="matrix(1.00587 0 0 .99417 100 0)" gradientUnits="userSpaceOnUse"><stop offset="0"/><stop offset="1" stop-opacity=".588"/></linearGradient><linearGradient xlink:href="#b" id="d" x1="32.251" x2="32.251" y1="6.132" y2="90.239" gradientTransform="matrix(1.0238 0 0 1.0119 -1.143 -98.071)" gradientUnits="userSpaceOnUse"/><linearGradient xlink:href="#b" id="e" x1="32.251" x2="32.251" y1="6.132" y2="90.239" gradientTransform="translate(0 -97)" gradientUnits="userSpaceOnUse"/><linearGradient xlink:href="#c" id="j" x1="17.73" x2="77.66" y1="31.176" y2="31.176" gradientUnits="userSpaceOnUse"/><linearGradient xlink:href="#c" id="k" x1="-53.081" x2="-22.29" y1="-7.735" y2="-7.735" gradientTransform="matrix(-1.94634 0 0 -1.94634 -25.464 49.45)" gradientUnits="userSpaceOnUse"/><g transform="scale(1 -1)"><g fill="url(#d)"><path d="M12-95.031c-5.511 0-10.031 4.52-10.031 10.031v71C1.969-8.489 6.489-3.969 12-3.969h72c5.511 0 10.031-4.52 10.031-10.031v-71c0-5.511-4.52-10.031-10.031-10.031z" opacity=".08"/><path d="M12-94.031c-4.972 0-9.031 4.06-9.031 9.031v71c0 4.972 4.06 9.031 9.031 9.031h72c4.972 0 9.031-4.06 9.031-9.031v-71c0-4.972-4.06-9.031-9.031-9.031z" opacity=".1"/><path d="M12-93c-4.41 0-8 3.59-8 8v71c0 4.41 3.59 8 8 8h72c4.41 0 8-3.59 8-8v-71c0-4.41-3.59-8-8-8z" opacity=".2"/><rect width="86" height="85" x="5" y="-92" opacity=".3" rx="7"/></g><rect width="84" height="84" x="6" y="-91" fill="url(#e)" opacity=".45" rx="6"/></g><rect width="66" height="66" x="15" y="15" rx="12" style="opacity:.15;stroke:#fefefe;stroke-width:.5;stroke-linecap:round;clip-path:url(#f);fill:url(#h);filter:url(#g)"/><rect width="84" height="84" x="6" y="6" fill="url(#g)" rx="6"/><path fill="url(#h)" d="M12 6c-3.324 0-6 2.676-6 6v72c0 .335.041.65.094.969.048.295.097.597.187.875l.032.094c.098.287.234.547.375.812.144.274.315.536.5.781s.373.474.593.688c.44.428.943.814 1.5 1.094.279.14.574.246.875.343a4.843 4.843 0 0 1-.719-.375c-.007-.004-.023.005-.03 0-.033-.02-.063-.042-.095-.062-.12-.077-.23-.164-.343-.25-.106-.081-.214-.161-.313-.25a5.042 5.042 0 0 1-.5-.531 5.092 5.092 0 0 1-.312-.407c-.025-.038-.039-.086-.063-.125-.065-.103-.13-.204-.187-.312a5.371 5.371 0 0 1-.282-.625c-.007-.022-.023-.04-.03-.063-.033-.092-.037-.187-.063-.281-.03-.107-.07-.203-.094-.313A5.098 5.098 0 0 1 7 85V13c0-2.782 2.218-5 5-5h72c2.782 0 5 2.218 5 5v72c0 .364-.052.721-.125 1.063a4.896 4.896 0 0 1-.156.593c-.008.022-.024.04-.031.063a5.482 5.482 0 0 1-.22.531c-.04.083-.078.17-.124.25-.055.097-.127.188-.188.281a5.092 5.092 0 0 1-.312.406 5.05 5.05 0 0 1-.469.5l-.031.032a4.818 4.818 0 0 1-.438.344c-.102.073-.204.153-.312.218-.008.005-.024-.004-.031 0a4.843 4.843 0 0 1-.72.375c.302-.097.597-.204.876-.344a6.105 6.105 0 0 0 2.094-1.78c.184-.246.355-.508.5-.782a5.69 5.69 0 0 0 .374-.813l.032-.093c.09-.278.139-.58.187-.875.053-.318.094-.634.094-.969V12c0-3.324-2.676-6-6-6z" opacity=".5"/><path fill="url(#i)" d="M12 90c-3.324 0-6-2.676-6-6V12c0-.335.041-.65.094-.969.048-.295.097-.597.187-.875l.032-.094a5.69 5.69 0 0 1 .375-.812c.144-.274.315-.536.5-.781s.373-.474.593-.688c.44-.428.943-.814 1.5-1.093.279-.14.574-.247.875-.344-.256.1-.486.236-.719.375-.007.004-.023-.005-.03 0-.033.019-.063.042-.095.062-.12.077-.23.164-.343.25-.106.081-.214.161-.313.25a5.042 5.042 0 0 0-.5.532c-.107.13-.218.265-.312.406-.025.038-.039.086-.063.125-.065.103-.13.204-.187.312a5.371 5.371 0 0 0-.282.625c-.007.022-.023.04-.03.063-.033.092-.037.187-.063.281-.03.107-.07.203-.094.313A5.098 5.098 0 0 0 7 11v72c0 2.782 2.218 5 5 5h72c2.782 0 5-2.218 5-5V11c0-.364-.052-.721-.125-1.063a4.896 4.896 0 0 0-.156-.593c-.008-.022-.024-.04-.031-.063a5.482 5.482 0 0 0-.22-.531c-.04-.083-.078-.17-.124-.25-.055-.097-.127-.188-.188-.281a5.092 5.092 0 0 0-.312-.406 5.05 5.05 0 0 0-.469-.5l-.031-.032a4.818 4.818 0 0 0-.438-.343c-.102-.074-.204-.154-.312-.22-.008-.004-.024.005-.031 0a4.843 4.843 0 0 0-.72-.374c.302.097.597.204.876.343a6.105 6.105 0 0 1 2.094 1.782c.184.245.355.507.5.781.14.265.276.525.374.813l.032.093c.09.278.139.58.187.875.053.318.094.634.094.969v72c0 3.324-2.676 6-6 6z" opacity=".25"/><g fill-rule="evenodd"><path fill="url(#j)" stroke="#3c3c3c" stroke-width="1.557" d="m18.72 41.77 14.79-5.949c.22-1.555 12.528-10.963 24.972 2.156l-6.752 7.418h24.946V19.501L69.12 26.22C63.108 20.522 55.727 16.462 47.4 17c-20.464 2.28-26.963 15.193-28.682 24.77z"/><path fill="#dedede" d="m53.524 44.475 12.098-6.012C54.626 23.418 43.857 27.599 37.98 31.618c5.958-2.325 14.526-1.517 21.508 6.35z"/><path fill="url(#k)" stroke="#3c3c3c" stroke-width="1.557" d="M76.86 53.912 62.07 59.86c-.219 1.556-12.527 10.964-24.97-2.155l6.751-7.418H18.903V76.18l7.558-6.718c6.011 5.698 13.392 9.758 21.718 9.22 20.464-2.28 26.963-15.193 28.682-24.77z"/><path fill="#dedede" d="m42.056 51.207-12.099 6.012c10.997 15.045 21.766 10.864 27.644 6.844-5.958 2.326-14.526 1.517-21.508-6.35z"/><path fill="#969696" d="M21.593 51.056 21.45 72.86l-1.735 1.569V51.092zM74.054 44.643l.143-21.806 1.735-1.568v23.338z"/></g></svg>