<svg xmlns="http://www.w3.org/2000/svg" width="512" height="512" style="shape-rendering:geometricPrecision;text-rendering:geometricPrecision;image-rendering:optimizeQuality;fill-rule:evenodd;clip-rule:evenodd"><g style="shape-rendering:geometricPrecision;text-rendering:geometricPrecision;image-rendering:optimizeQuality;fill-rule:evenodd;clip-rule:evenodd;fill:#5e75ff;fill-opacity:1"><path fill="#edeeee" d="M355.5 132.5c2.366 3.357 4.699 6.69 7 10a93.628 93.628 0 0 1 4.5 12 624.938 624.938 0 0 1 0 50 99.899 99.899 0 0 1-1.5 8h-1c-14.276 24.78-34.609 31.28-61 19.5l-9.5-7.5a593.944 593.944 0 0 0-1.5 59l-32 4v-161a797.905 797.905 0 0 1 32-5 43.117 43.117 0 0 0 1 13c4.3-4.485 9.3-7.985 15-10.5 17.313-5.656 32.98-2.823 47 8.5Z" style="opacity:1;fill:#fff;fill-opacity:1"/></g><g style="shape-rendering:geometricPrecision;text-rendering:geometricPrecision;image-rendering:optimizeQuality;fill-rule:evenodd;clip-rule:evenodd;fill:#5e75ff;fill-opacity:1"><path fill="#eeeeef" d="M219.5 122.5h30v115a50.464 50.464 0 0 1-.5 10 257.91 257.91 0 0 0-4.5 15c-1 .333-1.667 1-2 2-4.805 4.959-10.138 9.459-16 13.5a49.73 49.73 0 0 1-15 5c-16.564 2.085-32.564.085-48-6-2.208-1.047-3.874-2.547-5-4.5v-7a519.802 519.802 0 0 0 4-21c6.284 5.307 13.284 9.307 21 12 .418.722 1.084 1.222 2 1.5 7.69 1.914 15.356 1.914 23 0 5.571-2.746 8.571-7.246 9-13.5.665-2.982.998-6.148 1-9.5a37.391 37.391 0 0 0-1.5-11.5c-16.337 15.624-34.503 18.124-54.5 7.5-5.242-3.408-9.242-7.908-12-13.5-.825-.886-1.825-1.219-3-1 .172-.992-.162-1.658-1-2a90.583 90.583 0 0 0-2.5-9c-.5-16.663-.667-33.33-.5-50 3.943-15.283 13.276-25.949 28-32 17.567-4.442 32.9-.442 46 12 .667-4.482 1.334-8.816 2-13Z" style="opacity:1;fill:#fff;fill-opacity:1"/></g><g style="shape-rendering:geometricPrecision;text-rendering:geometricPrecision;image-rendering:optimizeQuality;fill-rule:evenodd;clip-rule:evenodd;fill:#5e75ff;fill-opacity:1"><path fill="#c3d1e9" d="M219.5 122.5c3.125-.979 6.458-1.313 10-1 7.187-.325 14.187.009 21 1 .332 38.504-.001 76.837-1 115v-115h-30Z" style="opacity:1;fill:#5e75ff;fill-opacity:1"/></g><g style="fill:#5e75ff;fill-opacity:1"><path fill="#000" d="M284.5 21.5a441.417 441.417 0 0 0-59 0c9.616-1.545 19.45-2.211 29.5-2 10.05-.211 19.884.455 29.5 2Z" style="opacity:.004;fill:#5e75ff;fill-opacity:1"/></g><g style="fill:#5e75ff;fill-opacity:1"><path fill="#000" d="M225.5 21.5c-4.464 1.144-9.13 1.81-14 2 4.4-1.604 9.066-2.27 14-2Z" style="opacity:.004;fill:#5e75ff;fill-opacity:1"/></g><g style="fill:#5e75ff;fill-opacity:1"><path fill="#000" d="M285.5 21.5c4.622-.344 8.955.323 13 2-4.528-.27-8.861-.937-13-2Z" style="opacity:.004;fill:#5e75ff;fill-opacity:1"/></g><g style="fill:#5e75ff;fill-opacity:1"><path fill="#000" d="M211.5 23.5c-51.314 8.405-94.814 31.405-130.5 69-17.205 19.752-26.705 42.752-28.5 69-.18 11.082 1.486 21.749 5 32a226.688 226.688 0 0 0 11.5 38c30.345 78.204 71.345 149.871 123 215 11.658 14.33 25.158 26.497 40.5 36.5 12.333 8.204 25.333 9.538 39 4a132.058 132.058 0 0 0 23-15c26.623-25.27 49.456-53.436 68.5-84.5 32.525-50.716 59.525-104.383 81-161a206.823 206.823 0 0 0 9.5-33c3.514-10.251 5.18-20.918 5-32-1.795-26.248-11.295-49.248-28.5-69-29.121-31.587-64.621-52.587-106.5-63a315.607 315.607 0 0 0-24-6c46.536 6.608 87.536 25.108 123 55.5 23.234 20.3 38.4 45.467 45.5 75.5 2.938 22.887.605 45.22-7 67-28.05 80.781-67.05 155.448-117 224a547.495 547.495 0 0 1-37.5 41.5l-19 15a147.015 147.015 0 0 1-21 9.5h-23c-20.328-8.456-37.828-21.123-52.5-38a620.28 620.28 0 0 1-68-94 1352.254 1352.254 0 0 1-59-117 383.12 383.12 0 0 1-23-79c-1.816-28.878 5.851-54.878 23-78C95.01 67.212 134.51 41.712 182.5 29a128.31 128.31 0 0 1 29-5.5Z" style="opacity:.07;fill:#5e75ff;fill-opacity:1"/></g><g style="fill:#5e75ff;fill-opacity:1"><path fill="#5ba4fe" d="M312.5 30.5c-.657 27.273-4.99 53.94-13 80a84.44 84.44 0 0 0-27 3c3.874 1.502 3.541 2.169-1 2-.504 6.842-3.171 7.842-8 3-1.663 1.375-2.997 1.042-4-1l-1 2c-1.32-1.77-2.82-2.103-4.5-1a15.973 15.973 0 0 0-6-2c-4.35.127-8.683.127-13 0-2.592.872-4.426 2.539-5.5 5-3.542-.313-6.875.021-10 1-.666 4.184-1.333 8.518-2 13-13.1-12.442-28.433-16.442-46-12 .893-2.961 2.893-4.794 6-5.5l14-3c14.56-27.247 22.893-56.747 25-88.5 32.39-4.948 64.39-3.614 96 4Z" style="opacity:1;fill:#5e75ff;fill-opacity:1"/></g><g style="fill:#5e75ff;fill-opacity:1"><path fill="#5fa6fe" d="M216.5 26.5c-2.107 31.753-10.44 61.253-25 88.5l-14 3c-3.107.706-5.107 2.539-6 5.5-14.724 6.051-24.057 16.717-28 32a25.14 25.14 0 0 0-4.5 4 69.749 69.749 0 0 0-3 18c-21.669 16.288-45.836 27.288-72.5 33a196.16 196.16 0 0 0-6-17c-3.514-10.251-5.18-20.918-5-32 2.899-24.473 12.399-46.14 28.5-65 36.779-39.308 81.946-62.641 135.5-70Z" style="opacity:1;fill:#5e75ff;fill-opacity:1"/></g><g style="fill:#5e75ff;fill-opacity:1"><path fill="#80b7fc" d="M323.5 29.5c41.879 10.413 77.379 31.413 106.5 63 17.205 19.752 26.705 42.752 28.5 69-3.836-30.338-17.169-55.671-40-76-19.232-18.97-41.566-33.47-67-43.5a1366.891 1366.891 0 0 1-28-9.5c.876.13 1.543-.203 2-1a30.968 30.968 0 0 1-2-2Z" style="opacity:.993;fill:#5e75ff;fill-opacity:1"/></g><g style="fill:#5e75ff;fill-opacity:1"><path fill="#8abdfd" d="M284.5 21.5h1c4.139 1.063 8.472 1.73 13 2h1a315.607 315.607 0 0 1 24 6 30.968 30.968 0 0 0 2 2c-.457.797-1.124 1.13-2 1a128.865 128.865 0 0 0-11-2c-31.61-7.614-63.61-8.948-96-4-53.554 7.359-98.721 30.692-135.5 70-16.101 18.86-25.601 40.527-28.5 65 1.795-26.248 11.295-49.248 28.5-69 35.686-37.595 79.186-60.595 130.5-69 4.87-.19 9.536-.856 14-2a441.417 441.417 0 0 1 59 0Z" style="opacity:.998;fill:#5e75ff;fill-opacity:1"/></g><g style="fill:#5e75ff;fill-opacity:1"><path fill="#55a0fe" d="M312.5 30.5c3.697.508 7.364 1.174 11 2 9.188 3.23 18.521 6.397 28 9.5 25.434 10.03 47.768 24.53 67 43.5-4.729 28.922-12.562 56.922-23.5 84-.521-7.161-2.521-13.828-6-20a12.804 12.804 0 0 1-3 6c-1.272-5.265-4.106-9.432-8.5-12.5l1-1c-3.401-4.797-7.735-7.797-13-9a71.671 71.671 0 0 1-6.5-5.5 2.428 2.428 0 0 0-.5 2c-1.644.31-2.644 1.31-3 3-14.02-11.323-29.687-14.156-47-8.5a46.693 46.693 0 0 0-15 10.5 43.117 43.117 0 0 1-1-13 797.905 797.905 0 0 0-32 5v5l-10-9c-6.813-.991-13.813-1.325-21-1 1.074-2.461 2.908-4.128 5.5-5 4.317.127 8.65.127 13 0 2.151.273 4.151.939 6 2 1.68-1.103 3.18-.77 4.5 1l1-2c1.003 2.042 2.337 2.375 4 1 4.829 4.842 7.496 3.842 8-3 4.541.169 4.874-.498 1-2a84.44 84.44 0 0 1 27-3c8.01-26.06 12.343-52.727 13-80Z" style="opacity:1;fill:#5e75ff;fill-opacity:1"/></g><g style="fill:#5e75ff;fill-opacity:1"><path fill="#4f97f6" d="M358.5 129.5c7.234 5.685 14.067 12.018 20.5 19a91.554 91.554 0 0 1 6 14 57.825 57.825 0 0 0 8 8 33.644 33.644 0 0 0 2.5 7.5c-1.795 2.591-2.129 5.257-1 8a827.562 827.562 0 0 0-2.5 24.5c-1.495 1.61-1.661 3.276-.5 5-1.102 5.871-3.102 11.871-6 18a161.412 161.412 0 0 1-29.5 28c-1.84-1.333-2.34-1.166-1.5.5a15.256 15.256 0 0 0-4.5 1.5c-.914-1.154-1.747-.987-2.5.5-4.35.368-8.683.868-13 1.5a21.537 21.537 0 0 1-4.5-1 47.156 47.156 0 0 0-12 11c-.147 3.071-.98 5.904-2.5 8.5 1.227 1.587.894 2.921-1 4l1 3-3.5 3.5c-.617.949-.451 1.782.5 2.5-2.179.442-2.845 1.442-2 3l-4.5 4.5-1-1c-1.648 3.053-3.982 4.053-7 3-2.103 2.368-4.77 3.701-8 4-2.12-.959-4.287-1.126-6.5-.5-1.427 1.797-3.26 2.964-5.5 3.5-6.427-.502-12.094-3.169-17-8a17.712 17.712 0 0 0-5.5 4.5c-6.404 2.276-13.404 4.943-21 8-1.612.72-3.112.554-4.5-.5-5.342 4.163-10.508 9.163-15.5 15a638.964 638.964 0 0 1-43-42c18.749 10.037 38.416 11.204 59 3.5a67.876 67.876 0 0 0 12-7 467.188 467.188 0 0 0 18-18.5v19c-.215 1.679.452 2.679 2 3 2.962-.383 3.962.617 3 3a14.972 14.972 0 0 0 3 3.5 70.061 70.061 0 0 0 12.5 5.5c13.51 1.33 22.676-4.337 27.5-17a3.647 3.647 0 0 0-1-1.5c1.647-4.127 2.647-8.46 3-13a6.293 6.293 0 0 0-1-3 26.813 26.813 0 0 0 3.5-7.5 16.661 16.661 0 0 0 4-4c43.181 5.716 66.347-13.617 69.5-58a49.147 49.147 0 0 0-2-14.5 9.821 9.821 0 0 0 2-5c-.45-6.32-1.617-12.154-3.5-17.5a1339.655 1339.655 0 0 0-12.5-13c-2.618-1.952-4.952-4.285-7-7-.607.124-.94.457-1 1-2.301-3.31-4.634-6.643-7-10 .356-1.69 1.356-2.69 3-3Z" style="opacity:1;fill:#5e75ff;fill-opacity:1"/></g><g style="fill:#5e75ff;fill-opacity:1"><path fill="#4c89e5" d="m250.5 122.5 10 9v137a467.188 467.188 0 0 1-18 18.5 67.876 67.876 0 0 1-12 7c-20.584 7.704-40.251 6.537-59-3.5a34.832 34.832 0 0 1-7-7c17.676 6.334 35.676 7.5 54 3.5 12.749-3.918 21.416-12.085 26-24.5a257.91 257.91 0 0 1 4.5-15c.498-3.317.665-6.65.5-10a3305.294 3305.294 0 0 0 1-115Z" style="opacity:1;fill:#5e75ff;fill-opacity:1"/></g><g style="fill:#5e75ff;fill-opacity:1"><path fill="#5391ed" d="M333.5 159.5c-.235.597-.735.93-1.5 1-4.362-1.614-8.695-2.28-13-2-12.083 9.022-17.25 21.189-15.5 36.5-.19 4.194.477 8.194 2 12-1.154.914-.987 1.747.5 2.5l1-1c.526 2.05 1.359 3.883 2.5 5.5a2.428 2.428 0 0 1-2 .5c-3.87-.853-7.036-2.853-9.5-6a38.623 38.623 0 0 1-5-13 173.522 173.522 0 0 1 1-36c7.072-14.62 17.906-18.12 32.5-10.5 3.719 2.612 6.052 6.112 7 10.5Z" style="opacity:1;fill:#5e75ff;fill-opacity:1"/></g><g style="fill:#5e75ff;fill-opacity:1"><path fill="#4c92f1" d="M370.5 148.5c4.151 4.259 8.318 8.592 12.5 13 1.883 5.346 3.05 11.18 3.5 17.5a9.821 9.821 0 0 1-2 5 49.147 49.147 0 0 1 2 14.5c-3.153 44.383-26.319 63.716-69.5 58a16.661 16.661 0 0 1-4 4 26.813 26.813 0 0 1-3.5 7.5 6.293 6.293 0 0 1 1 3c-.353 4.54-1.353 8.873-3 13 .457.414.791.914 1 1.5-4.824 12.663-13.99 18.33-27.5 17a70.061 70.061 0 0 1-12.5-5.5 14.972 14.972 0 0 1-3-3.5c.962-2.383-.038-3.383-3-3 4.448-1.465 9.115-1.965 14-1.5 11.154 8.286 19.487 5.953 25-7a76.699 76.699 0 0 0-1-11 30.935 30.935 0 0 1 3-8c-.815-4.91.852-9.076 5-12.5a39.848 39.848 0 0 1 12.5-4c17.692 7.102 33.358 3.102 47-12 4.587-5.173 7.587-11.173 9-18a394.002 394.002 0 0 1 1-29 4.457 4.457 0 0 0 1.5-2c-1.333-3.333-1.333-6.667 0-10-.346-1.196-.846-1.196-1.5 0-.769-2.599-.602-5.099.5-7.5l-2-4c.116-1.268.449-2.602 1-4a29.517 29.517 0 0 1-2.5-4.5l-1 1a113.879 113.879 0 0 1-3.5-8Z" style="opacity:1;fill:#5e75ff;fill-opacity:1"/></g><g style="fill:#5e75ff;fill-opacity:1"><path fill="#5695ed" d="M216.5 160.5c-12.872-2.863-22.039 1.804-27.5 14-3.804 13.669-2.971 27.002 2.5 40-8.348-2.651-13.514-8.317-15.5-17a192.512 192.512 0 0 1 1-38c7.131-13.488 17.631-16.988 31.5-10.5 4.082 2.905 6.749 6.738 8 11.5Z" style="opacity:1;fill:#5e75ff;fill-opacity:1"/></g><g style="fill:#5e75ff;fill-opacity:1"><path fill="#5aa3fe" d="M143.5 155.5c-.167 16.67 0 33.337.5 50a90.583 90.583 0 0 1 2.5 9c1.492 5.981 4.325 11.314 8.5 16a369.253 369.253 0 0 0 13.5 10l15 16c-7.716-2.693-14.716-6.693-21-12a519.802 519.802 0 0 1-4 21c-.397-1.025-1.063-1.192-2-.5-1.82.979-2.987 2.479-3.5 4.5-1.065 8.365-.231 16.532 2.5 24.5-14.918 8.12-30.585 14.62-47 19.5-17.93-33.145-32.93-67.478-45-103 26.664-5.712 50.831-16.712 72.5-33a69.749 69.749 0 0 1 3-18 25.14 25.14 0 0 1 4.5-4Z" style="opacity:1;fill:#5e75ff;fill-opacity:1"/></g><g style="fill:#5e75ff;fill-opacity:1"><path fill="#5ba0fa" d="M216.5 160.5c1.558 6.422 2.224 13.089 2 20 1.222 9.703-.611 18.703-5.5 27-5.852 6.451-13.019 8.784-21.5 7-5.471-12.998-6.304-26.331-2.5-40 5.461-12.196 14.628-16.863 27.5-14Z" style="opacity:1;fill:#5e75ff;fill-opacity:1"/></g><g style="fill:#5e75ff;fill-opacity:1"><path fill="#549cfa" d="M333.5 159.5c.768.763 1.268 1.763 1.5 3a289.106 289.106 0 0 1 0 34c-3.586 14.701-12.752 20.701-27.5 18a2.428 2.428 0 0 0 2-.5c-1.141-1.617-1.974-3.45-2.5-5.5l-1 1c-1.487-.753-1.654-1.586-.5-2.5-1.523-3.806-2.19-7.806-2-12-1.75-15.311 3.417-27.478 15.5-36.5 4.305-.28 8.638.386 13 2 .765-.07 1.265-.403 1.5-1Z" style="opacity:1;fill:#5e75ff;fill-opacity:1"/></g><g style="fill:#5e75ff;fill-opacity:1"><path fill="#4a8be9" d="M370.5 148.5a113.879 113.879 0 0 0 3.5 8l1-1a29.517 29.517 0 0 0 2.5 4.5c-.551 1.398-.884 2.732-1 4l2 4c-1.102 2.401-1.269 4.901-.5 7.5.654-1.196 1.154-1.196 1.5 0-1.333 3.333-1.333 6.667 0 10a4.457 4.457 0 0 1-1.5 2 394.002 394.002 0 0 0-1 29c-1.413 6.827-4.413 12.827-9 18-13.642 15.102-29.308 19.102-47 12a39.848 39.848 0 0 0-12.5 4c-4.148 3.424-5.815 7.59-5 12.5a30.935 30.935 0 0 0-3 8 76.699 76.699 0 0 1 1 11c-5.513 12.953-13.846 15.286-25 7-4.885-.465-9.552.035-14 1.5-1.548-.321-2.215-1.321-2-3l32-4a702.728 702.728 0 0 0 1-53c18.824 15.844 38.491 17.011 59 3.5 6.531-5.904 10.864-13.071 13-21.5a99.899 99.899 0 0 0 1.5-8 624.938 624.938 0 0 0 0-50 93.628 93.628 0 0 0-4.5-12c.06-.543.393-.876 1-1 2.048 2.715 4.382 5.048 7 7Z" style="opacity:1;fill:#5e75ff;fill-opacity:1"/></g><g style="fill:#5e75ff;fill-opacity:1"><path fill="#4e9cfe" d="M418.5 85.5c22.831 20.329 36.164 45.662 40 76 .18 11.082-1.486 21.749-5 32-29.286 88.916-72.453 170.249-129.5 244a227.136 227.136 0 0 1-40.5 39.5c-8.296 5.903-17.463 9.403-27.5 10.5-8.916-.639-17.083-3.472-24.5-8.5-21.874-16.207-40.707-35.374-56.5-57.5a218.099 218.099 0 0 1-15.5-23c28.422-9.711 55.089-22.878 80-39.5a345.858 345.858 0 0 1-25-26.5c4.992-5.837 10.158-10.837 15.5-15 1.388 1.054 2.888 1.22 4.5.5 7.596-3.057 14.596-5.724 21-8a17.712 17.712 0 0 1 5.5-4.5c4.906 4.831 10.573 7.498 17 8 2.24-.536 4.073-1.703 5.5-3.5 2.213-.626 4.38-.459 6.5.5 3.23-.299 5.897-1.632 8-4 3.018 1.053 5.352.053 7-3l1 1 4.5-4.5c-.845-1.558-.179-2.558 2-3-.951-.718-1.117-1.551-.5-2.5l3.5-3.5-1-3c1.894-1.079 2.227-2.413 1-4 1.52-2.596 2.353-5.429 2.5-8.5a47.156 47.156 0 0 1 12-11c1.462.494 2.962.827 4.5 1 4.317-.632 8.65-1.132 13-1.5.753-1.487 1.586-1.654 2.5-.5a15.256 15.256 0 0 1 4.5-1.5c-.84-1.666-.34-1.833 1.5-.5a161.412 161.412 0 0 0 29.5-28c2.898-6.129 4.898-12.129 6-18-1.161-1.724-.995-3.39.5-5 .717-8.233 1.551-16.4 2.5-24.5-1.129-2.743-.795-5.409 1-8a33.644 33.644 0 0 1-2.5-7.5 57.825 57.825 0 0 1-8-8 91.554 91.554 0 0 0-6-14c-6.433-6.982-13.266-13.315-20.5-19a2.428 2.428 0 0 1 .5-2 71.671 71.671 0 0 0 6.5 5.5c5.265 1.203 9.599 4.203 13 9l-1 1c4.394 3.068 7.228 7.235 8.5 12.5a12.804 12.804 0 0 0 3-6c3.479 6.172 5.479 12.839 6 20 10.938-27.078 18.771-55.078 23.5-84Z" style="opacity:1;fill:#5e75ff;fill-opacity:1"/></g><g style="fill:#5e75ff;fill-opacity:1"><path fill="#4482cd" d="M57.5 193.5a196.16 196.16 0 0 1 6 17c12.07 35.522 27.07 69.855 45 103 14.737 29.828 31.737 58.162 51 85a218.099 218.099 0 0 0 15.5 23c15.793 22.126 34.626 41.293 56.5 57.5 7.417 5.028 15.584 7.861 24.5 8.5 10.037-1.097 19.204-4.597 27.5-10.5a227.136 227.136 0 0 0 40.5-39.5c57.047-73.751 100.214-155.084 129.5-244a206.823 206.823 0 0 1-9.5 33c-21.475 56.617-48.475 110.284-81 161-19.044 31.064-41.877 59.23-68.5 84.5a132.058 132.058 0 0 1-23 15c-13.667 5.538-26.667 4.204-39-4-15.342-10.003-28.842-22.17-40.5-36.5-51.655-65.129-92.655-136.796-123-215a226.688 226.688 0 0 1-11.5-38Z" style="opacity:.996;fill:#5e75ff;fill-opacity:1"/></g><g style="fill:#5e75ff;fill-opacity:1"><path fill="#4779d3" d="M244.5 262.5c-4.584 12.415-13.251 20.582-26 24.5-18.324 4-36.324 2.834-54-3.5-1.437-1.225-3.104-2.225-5-3-1.273-.757-1.273-1.423 0-2 16.251 7.263 33.251 9.763 51 7.5 14.336-1.856 25.002-9.023 32-21.5.333-1 1-1.667 2-2Z" style="opacity:1;fill:#5e75ff;fill-opacity:1"/></g><g style="fill:#5e75ff;fill-opacity:1"><path fill="#d4d8de" d="M242.5 264.5c-6.998 12.477-17.664 19.644-32 21.5-17.749 2.263-34.749-.237-51-7.5-2.01-1.817-2.343-3.817-1-6 1.126 1.953 2.792 3.453 5 4.5 15.436 6.085 31.436 8.085 48 6a49.73 49.73 0 0 0 15-5c5.862-4.041 11.195-8.541 16-13.5Z" style="opacity:1;fill:#5e75ff;fill-opacity:1"/></g><g style="fill:#5e75ff;fill-opacity:1"><path fill="#54a0fe" d="M158.5 265.5v7c-1.343 2.183-1.01 4.183 1 6-1.273.577-1.273 1.243 0 2 1.896.775 3.563 1.775 5 3a34.832 34.832 0 0 0 7 7 638.964 638.964 0 0 0 43 42 345.858 345.858 0 0 0 25 26.5c-24.911 16.622-51.578 29.789-80 39.5-19.263-26.838-36.263-55.172-51-85 16.415-4.88 32.082-11.38 47-19.5-2.731-7.968-3.565-16.135-2.5-24.5.513-2.021 1.68-3.521 3.5-4.5.937-.692 1.603-.525 2 .5Z" style="opacity:1;fill:#5e75ff;fill-opacity:1"/></g><g style="fill:#5e75ff;fill-opacity:1"><path fill="#4e8de8" d="M168.5 240.5c4.372.436 8.206 2.103 11.5 5 2.147-.976 4.314-.809 6.5.5l-1 1a19.717 19.717 0 0 0 6.5 1.5c8.173-3.107 16.673-5.107 25.5-6v2c-.429 6.254-3.429 10.754-9 13.5-7.644 1.914-15.31 1.914-23 0-.916-.278-1.582-.778-2-1.5l-15-16Z" style="opacity:1;fill:#5e75ff;fill-opacity:1"/></g><g style="fill:#5e75ff;fill-opacity:1"><path fill="#4679d5" d="M364.5 212.5h1c-2.136 8.429-6.469 15.596-13 21.5-20.509 13.511-40.176 12.344-59-3.5a4.934 4.934 0 0 1 .5-3c13.298 12.865 28.798 16.365 46.5 10.5 11.985-4.817 19.985-13.317 24-25.5Z" style="opacity:1;fill:#5e75ff;fill-opacity:1"/></g><g style="fill:#5e75ff;fill-opacity:1"><path fill="#4b84df" d="M146.5 214.5c.838.342 1.172 1.008 1 2 12.544 21.908 30.877 28.741 55 20.5a39.804 39.804 0 0 0 14.5-10.5c.499 5.323.666 10.656.5 16-8.827.893-17.327 2.893-25.5 6a19.717 19.717 0 0 1-6.5-1.5l1-1c-2.186-1.309-4.353-1.476-6.5-.5-3.294-2.897-7.128-4.564-11.5-5a369.253 369.253 0 0 1-13.5-10c-4.175-4.686-7.008-10.019-8.5-16Z" style="opacity:1;fill:#5e75ff;fill-opacity:1"/></g><g style="fill:#5e75ff;fill-opacity:1"><path fill="#d6dbe3" d="M147.5 216.5c1.175-.219 2.175.114 3 1 2.758 5.592 6.758 10.092 12 13.5 19.997 10.624 38.163 8.124 54.5-7.5a37.391 37.391 0 0 1 1.5 11.5c-.002 3.352-.335 6.518-1 9.5v-2a128.507 128.507 0 0 0-.5-16 39.804 39.804 0 0 1-14.5 10.5c-24.123 8.241-42.456 1.408-55-20.5Z" style="opacity:1;fill:#5e75ff;fill-opacity:1"/></g><g style="fill:#5e75ff;fill-opacity:1"><path fill="#d0d6e3" d="M364.5 212.5c-4.015 12.183-12.015 20.683-24 25.5-17.702 5.865-33.202 2.365-46.5-10.5a4.934 4.934 0 0 0-.5 3 702.728 702.728 0 0 1-1 53 593.944 593.944 0 0 1 1.5-59l9.5 7.5c26.391 11.78 46.724 5.28 61-19.5Z" style="opacity:1;fill:#5e75ff;fill-opacity:1"/></g></svg>