<svg xmlns="http://www.w3.org/2000/svg" width="24" height="24"><g fill="none" fill-rule="evenodd"><path fill="#0b7ed0" d="M17.407 5.352a7.282 7.282 0 0 1 0 10.509 8.05 8.05 0 0 1-.305.282L12 20.824l-5.102-4.681a8.065 8.065 0 0 1-.306-.282 7.283 7.283 0 0 1 0-10.509c2.987-2.902 7.83-2.902 10.815 0z"/><path d="M9.5.917a9.5 9.5 0 0 1 9.5 9.5v9.5H9.5a9.5 9.5 0 0 1 0-19z" style="fill:#2cd4ed" transform="translate(.823 9.107) scale(.58827)"/><path d="M0 19.917v-9.5l.004-.27a9.5 9.5 0 1 1 9.496 9.77z" style="fill:#3169ff" transform="translate(12 9.107) scale(.58827)"/></g></svg>