<svg xmlns="http://www.w3.org/2000/svg" width="200" height="200" style="shape-rendering:geometricPrecision;text-rendering:geometricPrecision;image-rendering:optimizeQuality;fill-rule:evenodd;clip-rule:evenodd"><path fill="#282828" d="M2.5-.5h194a311.159 311.159 0 0 0 3 4v192l-4 4H3.5a311.159 311.159 0 0 0-4-3V2.5a6.54 6.54 0 0 0 3-3Z" style="opacity:.999"/><path fill="#b30f0e" d="M135.5 72.5v-4h-15v7c-.973-2.448-1.306-5.115-1-8h17c.284 1.915-.049 3.581-1 5Z" style="opacity:1"/><path fill="#f50302" d="M107.5 116.5h-9c.219-1.175-.114-2.175-1-3-.607.124-.94.457-1 1-9.863 5.901-15.196 3.068-16-8.5A78.478 78.478 0 0 1 84 87.5c2.658-4.004 6.324-6.337 11-7 2.923.295 5.257 1.629 7 4a211.147 211.147 0 0 0 3.5-17h10a749.456 749.456 0 0 0-8 49Z" style="opacity:1"/><path fill="#f90201" d="M135.5 72.5a797.456 797.456 0 0 1-5 32c-.951 1.419-1.284 3.085-1 5h6v7h-23v-7h8a376.216 376.216 0 0 1 5-34h-5v-7h15v4Z" style="opacity:1"/><path fill="#f5f5f5" d="M30.5 80.5a161.73 161.73 0 0 1 21 11.5c1.536 3.24 1.203 6.24-1 9l-19 11.5a51.104 51.104 0 0 0-4-5.5 226.79 226.79 0 0 0 17-11l-17-10.5a19.228 19.228 0 0 0 3-5Z" style="opacity:1"/><path fill="#f60302" d="M160.5 80.5c4.921-.457 8.421 1.543 10.5 6 .791 9.004-.542 17.671-4 26-3.602 4.219-8.102 5.719-13.5 4.5a11.532 11.532 0 0 1-3.5-4.5 108.242 108.242 0 0 0-3.5 18h-9a1037.886 1037.886 0 0 1 7-49h10a4.934 4.934 0 0 0 .5 3c1.5-1.969 3.333-3.302 5.5-4Z" style="opacity:1"/><path fill="#312726" d="M96.5 88.5c3.562.064 5.229 1.897 5 5.5a333.119 333.119 0 0 1-2.5 12.5c-2.084 2.951-4.75 3.617-8 2a64.627 64.627 0 0 1 1-16c1.397-1.57 2.897-2.904 4.5-4Z" style="opacity:1"/><path fill="#2f2726" d="M155.5 88.5c4.324-.342 6.324 1.658 6 6-.219 4.73-1.219 9.229-3 13.5-4.764 2.811-7.431 1.478-8-4 .878-5.518 2.545-10.685 5-15.5Z" style="opacity:1"/><path fill="#721e1d" d="M130.5 104.5v4c1.915-.284 3.581.049 5 1h-6c-.284-1.915.049-3.581 1-5Z" style="opacity:1"/><path fill="#fefffe" d="M48.5 116.5h27v7h-27v-7Z" style="opacity:1"/><path fill="#9c1413" d="M96.5 114.5c.06-.543.393-.876 1-1 .886.825 1.219 1.825 1 3h9c-3.125.979-6.458 1.313-10 1 .237-1.291-.096-2.291-1-3Z" style="opacity:1"/><path fill="#941614" d="M112.5 109.5v7h23c-7.816.992-15.816 1.326-24 1-.306-2.885.027-5.552 1-8Z" style="opacity:1"/></svg>