<svg version="1.1" id="Radar" x="0px" y="0px" viewBox="0 0 97.8 97.8" enable-background="new 0 0 97.8 97.8"><g id="Waves_1_"><g><path d="M48.9,97.8C21.9,97.8,0,75.9,0,48.9S21.9,0,48.9,0c29.7,0,48.9,21.9,48.9,48.9S75.9,97.8,48.9,97.8z M48.9,94.3C74,94.3,94.3,74,94.3,48.9S76.6,3.5,48.9,3.5C23.8,3.5,3.5,23.8,3.5,48.9S23.8,94.3,48.9,94.3z"></path><path d="M48.9,82c-18.3,0-33.1-14.8-33.1-33.1s14.8-33.1,33.1-33.1c21,0,33.1,14.8,33.1,33.1S67.2,82,48.9,82z M48.9,78.6c16.4,0,29.6-13.3,29.6-29.6c0-16.4-13.3-29.6-29.6-29.6c-16.4,0-29.6,13.3-29.6,29.6C19.3,65.3,32.5,78.6,48.9,78.6z"></path><path d="M48.9,65.9c-9.4,0-17-7.6-17-17s7.6-17,17-17s17,7.6,17,17S58.3,65.9,48.9,65.9z M48.9,62.4 c7.4,0,13.4-6,13.4-13.4s-6-13.4-13.4-13.4s-13.4,6-13.4,13.4C35.5,56.3,41.5,62.4,48.9,62.4z"></path></g></g></svg>
