<?xml version="1.0" encoding="UTF-8"?>
<!DOCTYPE svg PUBLIC "-//W3C//DTD SVG 1.1//EN" "http://www.w3.org/Graphics/SVG/1.1/DTD/svg11.dtd">
<svg xmlns="http://www.w3.org/2000/svg" version="1.1" width="60px" height="60px" style="shape-rendering:geometricPrecision; text-rendering:geometricPrecision; image-rendering:optimizeQuality; fill-rule:evenodd; clip-rule:evenodd" xmlns:xlink="http://www.w3.org/1999/xlink">
<g><path style="opacity:0.852" fill="#d6e9f7" d="M 50.5,-0.5 C 52.1667,-0.5 53.8333,-0.5 55.5,-0.5C 56.4686,7.74834 56.8019,16.0817 56.5,24.5C 55.1667,28.5 55.1667,32.5 56.5,36.5C 56.799,44.253 56.4657,51.9196 55.5,59.5C 53.8333,59.5 52.1667,59.5 50.5,59.5C 49.7659,58.2921 49.4326,56.9587 49.5,55.5C 50.8333,38.1667 50.8333,20.8333 49.5,3.5C 49.4326,2.04125 49.7659,0.707917 50.5,-0.5 Z"/></g>
<g><path style="opacity:0.969" fill="#fc6f3e" d="M 49.5,3.5 C 50.8333,20.8333 50.8333,38.1667 49.5,55.5C 44.9288,47.3749 37.9288,43.0416 28.5,42.5C 27.8333,42.5 27.1667,42.5 26.5,42.5C 26.5,33.8333 26.5,25.1667 26.5,16.5C 21.5,16.5 16.5,16.5 11.5,16.5C 20.3976,15.9146 29.3976,15.0813 38.5,14C 43.3273,11.6717 46.994,8.17174 49.5,3.5 Z"/></g>
<g><path style="opacity:0.983" fill="#284058" d="M 11.5,16.5 C 16.5,16.5 21.5,16.5 26.5,16.5C 26.5,25.1667 26.5,33.8333 26.5,42.5C 24.8333,42.5 23.1667,42.5 21.5,42.5C 21.2053,44.7354 21.5386,46.7354 22.5,48.5C 22.9903,52.4872 22.3236,56.1538 20.5,59.5C 18.1667,59.5 15.8333,59.5 13.5,59.5C 11.8151,53.9203 10.3151,48.2536 9,42.5C 5.03065,40.6902 1.86398,38.0235 -0.5,34.5C -0.5,31.1667 -0.5,27.8333 -0.5,24.5C 2.17227,19.8255 6.17227,17.1588 11.5,16.5 Z"/></g>
<g><path style="opacity:0.79" fill="#29425a" d="M 56.5,24.5 C 57.5,25.5 58.5,26.5 59.5,27.5C 59.5,29.5 59.5,31.5 59.5,33.5C 58.7281,34.6935 57.7281,35.6935 56.5,36.5C 55.1667,32.5 55.1667,28.5 56.5,24.5 Z"/></g>
<g><path style="opacity:0.88" fill="#d3e5f3" d="M 26.5,42.5 C 27.1667,42.5 27.8333,42.5 28.5,42.5C 29.5,47.5 27.5,49.5 22.5,48.5C 21.5386,46.7354 21.2053,44.7354 21.5,42.5C 23.1667,42.5 24.8333,42.5 26.5,42.5 Z"/></g>
</svg>
