<?xml version="1.0" encoding="UTF-8" standalone="no"?>
<svg
   version="1.1"
   width="830px"
   height="830px"
   style="shape-rendering:geometricPrecision; text-rendering:geometricPrecision; image-rendering:optimizeQuality; fill-rule:evenodd; clip-rule:evenodd"
   id="svg69"
   sodipodi:docname="apache.svg"
   inkscape:version="1.3.2 (091e20ef0f, 2023-11-25, custom)"
   xmlns:inkscape="http://www.inkscape.org/namespaces/inkscape"
   xmlns:sodipodi="http://sodipodi.sourceforge.net/DTD/sodipodi-0.dtd"
   xmlns="http://www.w3.org/2000/svg"
   xmlns:svg="http://www.w3.org/2000/svg">
  <defs
     id="defs69" />
  <sodipodi:namedview
     id="namedview69"
     pagecolor="#ffffff"
     bordercolor="#000000"
     borderopacity="0.25"
     inkscape:showpageshadow="2"
     inkscape:pageopacity="0.0"
     inkscape:pagecheckerboard="0"
     inkscape:deskcolor="#d1d1d1"
     inkscape:zoom="1.0626506"
     inkscape:cx="415"
     inkscape:cy="415"
     inkscape:window-width="1920"
     inkscape:window-height="1128"
     inkscape:window-x="0"
     inkscape:window-y="0"
     inkscape:window-maximized="1"
     inkscape:current-layer="svg69" />
  <g
     id="g2">
    <path
       style="opacity:1"
       fill="#55575a"
       d="M 390.5,8.5 C 531.354,4.19869 646.52,55.8654 736,163.5C 815.117,268.101 840.45,384.767 812,513.5C 776.791,643.44 697.958,736.273 575.5,792C 451.997,841.249 331.663,834.582 214.5,772C 119.135,716.276 55.3017,635.443 23,529.5C -6.65196,418.974 6.0147,313.641 61,213.5C 128.816,100.787 227.983,33.6201 358.5,12C 369.333,10.9768 380,9.81018 390.5,8.5 Z"
       id="path2" />
  </g>
  <g
     id="g3">
    <path
       style="opacity:1"
       fill="#f8f8f8"
       d="M 435.5,42.5 C 444.871,42.9075 454.205,43.7408 463.5,45C 479.368,48.5748 484.202,57.7414 478,72.5C 475.743,74.0456 473.576,75.7123 471.5,77.5C 484.098,87.0883 484.765,97.5883 473.5,109C 470.911,110.197 468.244,111.197 465.5,112C 453.118,112.078 440.785,111.245 428.5,109.5C 430.24,87.0988 432.573,64.7655 435.5,42.5 Z"
       id="path3" />
  </g>
  <g
     id="g4">
    <path
       style="opacity:1"
       fill="#fafafa"
       d="M 352.5,47.5 C 375.843,44.6688 388.676,55.0021 391,78.5C 393.747,98.7251 385.247,110.892 365.5,115C 358.157,116.12 350.823,117.287 343.5,118.5C 342.353,118.182 341.519,117.516 341,116.5C 337.233,96.066 333.733,75.566 330.5,55C 330.585,53.8926 330.919,52.8926 331.5,52C 338.676,50.6989 345.676,49.1989 352.5,47.5 Z"
       id="path4" />
  </g>
  <g
     id="g5">
    <path
       style="opacity:1"
       fill="#fafafa"
       d="M 500.5,51.5 C 504.055,50.711 507.555,51.3777 511,53.5C 514.207,65.1989 517.54,76.8656 521,88.5C 530.422,80.2176 540.255,72.551 550.5,65.5C 553.471,66.4348 556.471,67.2681 559.5,68C 547.023,77.6432 534.689,87.4766 522.5,97.5C 519.363,106.383 516.697,115.383 514.5,124.5C 510.942,124.595 507.942,123.428 505.5,121C 508.37,112.057 511.037,103.057 513.5,94C 509.532,79.6018 505.198,65.4351 500.5,51.5 Z"
       id="path5" />
  </g>
  <g
     id="g6">
    <path
       style="opacity:1"
       fill="#57595c"
       d="M 443.5,51.5 C 450.17,51.8891 456.836,52.3891 463.5,53C 471.538,55.4348 474.038,60.6014 471,68.5C 469.786,70.0488 468.286,71.2155 466.5,72C 458.164,72.3096 449.83,72.143 441.5,71.5C 442.298,64.8499 442.965,58.1833 443.5,51.5 Z"
       id="path6" />
  </g>
  <g
     id="g7">
    <path
       style="opacity:1"
       fill="#56585b"
       d="M 354.5,55.5 C 369.209,53.6069 378.043,59.9402 381,74.5C 381.667,80.8333 381.667,87.1667 381,93.5C 379.598,99.2361 376.098,103.069 370.5,105C 363.271,107.038 355.937,108.538 348.5,109.5C 345.833,92.5 343.167,75.5 340.5,58.5C 345.36,57.8669 350.027,56.8669 354.5,55.5 Z"
       id="path7" />
  </g>
  <g
     id="g8">
    <path
       style="opacity:1"
       fill="#fbfafb"
       d="M 306.5,58.5 C 308.19,60.5038 309.524,62.8371 310.5,65.5C 299.375,70.487 288.042,74.987 276.5,79C 275.09,79.3678 274.09,80.2011 273.5,81.5C 275.635,87.7663 278.301,93.7663 281.5,99.5C 292.421,94.9707 303.421,90.6374 314.5,86.5C 316.663,88.6473 317.663,91.314 317.5,94.5C 305.969,98.2636 294.635,102.597 283.5,107.5C 286.333,114.5 289.167,121.5 292,128.5C 304.746,123.696 317.413,118.696 330,113.5C 331.167,115.833 332.333,118.167 333.5,120.5C 317.923,127.026 302.256,133.36 286.5,139.5C 278.304,118.912 270.304,98.2452 262.5,77.5C 262.818,76.3527 263.484,75.5194 264.5,75C 278.718,69.7665 292.718,64.2665 306.5,58.5 Z"
       id="path8" />
  </g>
  <g
     id="g9">
    <path
       style="opacity:1"
       fill="#57595c"
       d="M 440.5,79.5 C 448.957,79.8284 457.291,80.9951 465.5,83C 469.802,84.9351 471.802,88.2684 471.5,93C 471.46,99.0435 468.46,102.71 462.5,104C 454.51,103.705 446.51,103.205 438.5,102.5C 439.101,94.8269 439.767,87.1602 440.5,79.5 Z"
       id="path9" />
  </g>
  <g
     id="g10">
    <path
       style="opacity:1"
       fill="#fafafa"
       d="M 231.5,93.5 C 247.155,93.3194 254.321,100.986 253,116.5C 251.604,120.792 249.104,124.292 245.5,127C 258.403,129.455 270.403,134.122 281.5,141C 278.399,142.966 275.232,144.8 272,146.5C 263.225,142.529 254.392,138.696 245.5,135C 236.731,133.718 229.398,136.385 223.5,143C 228.368,151.234 233.368,159.4 238.5,167.5C 236.5,169.327 234.333,170.994 232,172.5C 219.584,154.004 207.418,135.337 195.5,116.5C 206.883,107.812 218.883,100.145 231.5,93.5 Z"
       id="path10" />
  </g>
  <g
     id="g11">
    <path
       style="opacity:1"
       fill="#57595c"
       d="M 229.5,102.5 C 241.18,102.002 245.68,107.335 243,118.5C 235.866,125.135 228.032,130.801 219.5,135.5C 214.642,130.295 210.642,124.462 207.5,118C 207.645,117.228 207.978,116.561 208.5,116C 215.675,111.637 222.675,107.137 229.5,102.5 Z"
       id="path11" />
  </g>
  <g
     id="g12">
    <path
       style="opacity:1"
       fill="#f8f8f8"
       d="M 176.5,130.5 C 178.63,132.127 180.63,133.96 182.5,136C 172.986,145.347 163.652,154.847 154.5,164.5C 158.818,169.319 163.318,173.985 168,178.5C 177.304,170.197 186.304,161.531 195,152.5C 197.613,154.401 199.28,156.735 200,159.5C 191.016,167.317 182.516,175.651 174.5,184.5C 179.352,189.517 184.018,194.684 188.5,200C 189.167,200.667 189.833,200.667 190.5,200C 199.833,191 209.167,182 218.5,173C 221.301,173.448 223.301,175.115 224.5,178C 213.024,189.808 201.191,201.308 189,212.5C 183.711,208.213 178.711,203.546 174,198.5C 163.316,187.317 152.816,175.984 142.5,164.5C 153.548,152.785 164.881,141.452 176.5,130.5 Z"
       id="path12" />
  </g>
  <g
     id="g13">
    <path
       style="opacity:1"
       fill="#fefefe"
       d="M 275.5,738.5 C 279.762,722.715 284.428,707.048 289.5,691.5C 295.835,672.827 302.169,654.161 308.5,635.5C 313.692,621.258 318.692,606.924 323.5,592.5C 326.402,585.678 329.069,578.678 331.5,571.5C 332.698,568.574 333.698,565.574 334.5,562.5C 340.874,547.053 346.874,531.387 352.5,515.5C 356.012,508.462 359.012,501.129 361.5,493.5C 363.816,488.239 366.15,482.905 368.5,477.5C 371.305,470.418 374.305,463.418 377.5,456.5C 379.972,450.417 382.639,444.417 385.5,438.5C 387.974,432.412 390.64,426.412 393.5,420.5C 401.224,403.384 409.224,386.384 417.5,369.5C 423.085,359.331 428.418,348.998 433.5,338.5C 437.671,332.162 441.337,325.496 444.5,318.5C 448.654,312.87 452.321,306.87 455.5,300.5C 460.222,293.77 464.555,286.77 468.5,279.5C 471.488,275.538 474.488,271.538 477.5,267.5C 480.603,262.948 483.936,258.614 487.5,254.5C 485.009,259.478 482.009,264.145 478.5,268.5C 475.821,273.194 473.155,277.861 470.5,282.5C 465.666,289.496 461.333,296.829 457.5,304.5C 453.663,310.17 450.33,316.17 447.5,322.5C 445.076,325.008 443.41,328.008 442.5,331.5C 438.341,337.811 434.675,344.477 431.5,351.5C 427.367,358.101 424.033,365.101 421.5,372.5C 412.717,389.069 404.717,406.069 397.5,423.5C 394.322,429.196 391.656,435.196 389.5,441.5C 386.655,446.531 384.322,451.864 382.5,457.5C 379.6,462.848 377.267,468.515 375.5,474.5C 371.981,481.549 368.981,488.882 366.5,496.5C 363.321,502.874 360.654,509.54 358.5,516.5C 354.98,524.224 351.98,532.224 349.5,540.5C 345.399,549.128 342.066,558.128 339.5,567.5C 336.796,573.267 334.462,579.267 332.5,585.5C 328.446,595.994 324.779,606.661 321.5,617.5C 324.139,620.927 326.973,624.26 330,627.5C 332,630.833 334,634.167 336,637.5C 335.924,629.276 333.09,622.109 327.5,616C 340.358,615.143 353.024,613.143 365.5,610C 368.648,608.576 371.648,607.076 374.5,605.5C 385.446,600.065 392.946,591.731 397,580.5C 390.778,588.357 382.611,591.524 372.5,590C 377.223,587.978 381.557,585.478 385.5,582.5C 400.145,574.16 410.311,562.16 416,546.5C 399.579,563.069 379.745,569.736 356.5,566.5C 365.58,564.295 374.247,560.962 382.5,556.5C 391.541,552.652 399.541,547.319 406.5,540.5C 413.5,535.5 419.5,529.5 424.5,522.5C 429.489,517.197 433.489,511.197 436.5,504.5C 439.991,499.526 442.991,494.192 445.5,488.5C 448.713,482.74 451.38,476.74 453.5,470.5C 457.265,461.04 460.931,451.54 464.5,442C 459.672,443.63 454.672,445.13 449.5,446.5C 448.584,446.457 447.917,446.124 447.5,445.5C 463.088,438.084 473.921,426.418 480,410.5C 473.588,415.464 466.421,418.297 458.5,419C 473.969,411.917 484.802,400.417 491,384.5C 495.235,375.794 498.235,366.794 500,357.5C 493.66,361.446 486.827,364.113 479.5,365.5C 478.761,365.631 478.094,365.464 477.5,365C 482.752,362.552 487.419,359.386 491.5,355.5C 494.903,353.1 497.57,350.1 499.5,346.5C 503.983,340.881 507.983,334.881 511.5,328.5C 515.671,322.162 519.337,315.496 522.5,308.5C 530.7,293.415 536.7,277.415 540.5,260.5C 543.386,247.053 542.886,233.72 539,220.5C 534.655,208.322 526.488,199.989 514.5,195.5C 512.034,194.366 509.367,194.199 506.5,195C 502.204,196.815 498.204,199.148 494.5,202C 482.161,213.161 471.161,225.328 461.5,238.5C 453.695,247.431 446.362,256.765 439.5,266.5C 434.601,272.617 429.934,278.951 425.5,285.5C 421.5,291.5 417.5,297.5 413.5,303.5C 409.167,310.167 404.833,316.833 400.5,323.5C 398.975,325.216 397.975,327.216 397.5,329.5C 382.063,352.693 368.397,377.026 356.5,402.5C 353.597,407.977 350.93,413.643 348.5,419.5C 345.069,425.443 342.403,431.776 340.5,438.5C 337.263,444.864 334.597,451.53 332.5,458.5C 329.731,463.801 327.731,469.468 326.5,475.5C 323.39,483.176 321.056,491.176 319.5,499.5C 317.056,506.939 315.056,514.606 313.5,522.5C 310.709,535.338 309.043,548.338 308.5,561.5C 308.631,562.239 308.464,562.906 308,563.5C 301.524,555.329 293.691,549.162 284.5,545C 293.441,557.115 300.441,570.282 305.5,584.5C 306.425,588.79 307.091,593.124 307.5,597.5C 298.516,597.2 289.849,595.7 281.5,593C 287.358,598.514 294.024,602.848 301.5,606C 291.505,608.83 282.505,613.497 274.5,620C 281.019,618.169 287.685,616.502 294.5,615C 299.155,614.501 303.821,614.334 308.5,614.5C 307.087,621.331 305.087,627.998 302.5,634.5C 299.5,643.167 296.5,651.833 293.5,660.5C 258.887,643.405 229.387,619.739 205,589.5C 148.217,515.26 131.217,432.593 154,341.5C 183.314,248.852 243.814,186.352 335.5,154C 443.743,124.434 537.91,148.601 618,226.5C 687.016,303.238 708.683,391.905 683,492.5C 658.258,571.572 608.758,629.405 534.5,666C 458.021,699.729 381.521,699.896 305,666.5C 297.055,687.392 289.388,708.392 282,729.5C 280.357,732.961 278.19,735.961 275.5,738.5 Z"
       id="path13" />
  </g>
  <g
     id="g14">
    <path
       style="opacity:1"
       fill="#f9f9f9"
       d="M 126.5,178.5 C 128.716,179.203 130.549,180.536 132,182.5C 145.981,198.649 160.148,214.649 174.5,230.5C 173.19,233.473 171.19,235.807 168.5,237.5C 149.466,231.318 130.466,225.485 111.5,220C 124.667,234.5 137.833,249 151,263.5C 151.166,267.5 149.499,270.5 146,272.5C 124.093,265.531 102.26,258.364 80.5,251C 82.2112,248.411 84.0445,245.911 86,243.5C 104.12,250.427 122.287,256.927 140.5,263C 127.115,248.619 114.115,233.952 101.5,219C 102.963,215.549 105.129,212.715 108,210.5C 126.018,215.79 143.851,221.29 161.5,227C 148.667,213.5 135.833,200 123,186.5C 124.227,184.028 125.393,181.361 126.5,178.5 Z"
       id="path14" />
  </g>
  <g
     id="g15">
    <path
       style="opacity:1"
       fill="#f69a26"
       d="M 514.5,195.5 C 512.712,195.215 511.045,195.548 509.5,196.5C 515.84,218.529 522.173,240.529 528.5,262.5C 511.872,264.829 495.205,266.829 478.5,268.5C 482.009,264.145 485.009,259.478 487.5,254.5C 483.936,258.614 480.603,262.948 477.5,267.5C 472.42,257.673 467.087,248.006 461.5,238.5C 471.161,225.328 482.161,213.161 494.5,202C 498.204,199.148 502.204,196.815 506.5,195C 509.367,194.199 512.034,194.366 514.5,195.5 Z"
       id="path15" />
  </g>
  <g
     id="g16">
    <path
       style="opacity:1"
       fill="#f49227"
       d="M 514.5,195.5 C 526.488,199.989 534.655,208.322 539,220.5C 542.886,233.72 543.386,247.053 540.5,260.5C 536.538,261.376 532.538,262.042 528.5,262.5C 522.173,240.529 515.84,218.529 509.5,196.5C 511.045,195.548 512.712,195.215 514.5,195.5 Z"
       id="path16" />
  </g>
  <g
     id="g17">
    <path
       style="opacity:1"
       fill="#fdfdfd"
       d="M 712.5,232.5 C 726.445,230.223 736.612,235.223 743,247.5C 747.317,268.178 738.984,279.512 718,281.5C 699.824,277.158 692.824,265.825 697,247.5C 700.081,240.251 705.247,235.251 712.5,232.5 Z"
       id="path17" />
  </g>
  <g
     id="g18">
    <path
       style="opacity:1"
       fill="#fcd19d"
       d="M 490.5,250.5 C 490.685,248.804 491.519,247.471 493,246.5C 493.279,248.412 492.446,249.746 490.5,250.5 Z"
       id="path18" />
  </g>
  <g
     id="g19">
    <path
       style="opacity:1"
       fill="#fde0bc"
       d="M 490.5,250.5 C 490.262,252.404 489.262,253.738 487.5,254.5C 487.738,252.596 488.738,251.262 490.5,250.5 Z"
       id="path19" />
  </g>
  <g
     id="g22">
    <path
       style="opacity:1"
       fill="#e97529"
       d="M 461.5,238.5 C 467.087,248.006 472.42,257.673 477.5,267.5C 474.488,271.538 471.488,275.538 468.5,279.5C 458.956,274.895 449.289,270.561 439.5,266.5C 446.362,256.765 453.695,247.431 461.5,238.5 Z"
       id="path22" />
  </g>
  <g
     id="g23">
    <path
       style="opacity:1"
       fill="#ea7727"
       d="M 540.5,260.5 C 536.7,277.415 530.7,293.415 522.5,308.5C 506.045,300.442 489.378,292.608 472.5,285C 471.244,284.583 470.577,283.75 470.5,282.5C 473.155,277.861 475.821,273.194 478.5,268.5C 495.205,266.829 511.872,264.829 528.5,262.5C 532.538,262.042 536.538,261.376 540.5,260.5 Z"
       id="path23" />
  </g>
  <g
     id="g24">
    <path
       style="opacity:1"
       fill="#e4692d"
       d="M 439.5,266.5 C 449.289,270.561 458.956,274.895 468.5,279.5C 464.555,286.77 460.222,293.77 455.5,300.5C 445.844,295.005 435.844,290.005 425.5,285.5C 429.934,278.951 434.601,272.617 439.5,266.5 Z"
       id="path24" />
  </g>
  <g
     id="g25">
    <path
       style="opacity:1"
       fill="#fafafa"
       d="M 85.5,276.5 C 100.951,274.927 114.117,279.593 125,290.5C 131.093,300.961 132.093,311.961 128,323.5C 122.232,335.465 112.732,341.465 99.5,341.5C 69.0839,339.608 57.2505,323.942 64,294.5C 68.4411,285.057 75.6078,279.057 85.5,276.5 Z"
       id="path25" />
  </g>
  <g
     id="g26">
    <path
       style="opacity:1"
       fill="#56585b"
       d="M 84.5,285.5 C 99.6429,283.595 111.81,288.595 121,300.5C 125.099,312.215 122.266,322.048 112.5,330C 96.7029,335.74 83.2029,332.24 72,319.5C 65.8113,304.231 69.978,292.898 84.5,285.5 Z"
       id="path26" />
  </g>
  <g
     id="g27">
    <path
       style="opacity:1"
       fill="#e4692d"
       d="M 470.5,282.5 C 470.577,283.75 471.244,284.583 472.5,285C 489.378,292.608 506.045,300.442 522.5,308.5C 519.337,315.496 515.671,322.162 511.5,328.5C 493.5,320.5 475.5,312.5 457.5,304.5C 461.333,296.829 465.666,289.496 470.5,282.5 Z"
       id="path27" />
  </g>
  <g
     id="g28">
    <path
       style="opacity:1"
       fill="#e05d30"
       d="M 425.5,285.5 C 435.844,290.005 445.844,295.005 455.5,300.5C 452.321,306.87 448.654,312.87 444.5,318.5C 434.634,312.735 424.3,307.735 413.5,303.5C 417.5,297.5 421.5,291.5 425.5,285.5 Z"
       id="path28" />
  </g>
  <g
     id="g29">
    <path
       style="opacity:1"
       fill="#db5132"
       d="M 413.5,303.5 C 424.3,307.735 434.634,312.735 444.5,318.5C 441.337,325.496 437.671,332.162 433.5,338.5C 422.915,332.71 411.915,327.71 400.5,323.5C 404.833,316.833 409.167,310.167 413.5,303.5 Z"
       id="path29" />
  </g>
  <g
     id="g30">
    <path
       style="opacity:1"
       fill="#e05d2f"
       d="M 457.5,304.5 C 475.5,312.5 493.5,320.5 511.5,328.5C 507.983,334.881 503.983,340.881 499.5,346.5C 482.167,338.5 464.833,330.5 447.5,322.5C 450.33,316.17 453.663,310.17 457.5,304.5 Z"
       id="path30" />
  </g>
  <g
     id="g31">
    <path
       style="opacity:1"
       fill="#dc5531"
       d="M 447.5,322.5 C 464.833,330.5 482.167,338.5 499.5,346.5C 497.57,350.1 494.903,353.1 491.5,355.5C 475.386,347.277 459.052,339.277 442.5,331.5C 443.41,328.008 445.076,325.008 447.5,322.5 Z"
       id="path31" />
  </g>
  <g
     id="g32">
    <path
       style="opacity:1"
       fill="#d64434"
       d="M 400.5,323.5 C 411.915,327.71 422.915,332.71 433.5,338.5C 428.418,348.998 423.085,359.331 417.5,369.5C 410.818,356.136 404.151,342.802 397.5,329.5C 397.975,327.216 398.975,325.216 400.5,323.5 Z"
       id="path32" />
  </g>
  <g
     id="g33">
    <path
       style="opacity:1"
       fill="#d94c33"
       d="M 442.5,331.5 C 459.052,339.277 475.386,347.277 491.5,355.5C 487.419,359.386 482.752,362.552 477.5,365C 478.094,365.464 478.761,365.631 479.5,365.5C 475.455,367.177 471.122,367.844 466.5,367.5C 454.957,361.895 443.29,356.562 431.5,351.5C 434.675,344.477 438.341,337.811 442.5,331.5 Z"
       id="path33" />
  </g>
  <g
     id="g34">
    <path
       style="opacity:1"
       fill="#f9f8f8"
       d="M 61.5,349.5 C 70.243,347.961 77.743,350.294 84,356.5C 86.5809,361.158 87.7476,366.158 87.5,371.5C 86.9528,379.185 86.2862,386.852 85.5,394.5C 94.5,395.167 103.5,395.833 112.5,396.5C 112.664,399.187 112.497,401.854 112,404.5C 111.481,405.516 110.647,406.182 109.5,406.5C 88.1448,403.905 66.8115,401.238 45.5,398.5C 45.4837,386.522 46.6504,374.522 49,362.5C 51.3792,356.29 55.5459,351.957 61.5,349.5 Z"
       id="path34" />
  </g>
  <g
     id="g35">
    <path
       style="opacity:1"
       fill="#d54035"
       d="M 431.5,351.5 C 443.29,356.562 454.957,361.895 466.5,367.5C 451.711,369.81 436.711,371.477 421.5,372.5C 424.033,365.101 427.367,358.101 431.5,351.5 Z"
       id="path35" />
  </g>
  <g
     id="g36">
    <path
       style="opacity:1"
       fill="#cd2338"
       d="M 397.5,329.5 C 404.151,342.802 410.818,356.136 417.5,369.5C 409.224,386.384 401.224,403.384 393.5,420.5C 381.629,415.316 369.796,409.982 358,404.5C 356.97,404.164 356.47,403.497 356.5,402.5C 368.397,377.026 382.063,352.693 397.5,329.5 Z"
       id="path36" />
  </g>
  <g
     id="g37">
    <path
       style="opacity:1"
       fill="#57595c"
       d="M 63.5,358.5 C 70.7398,357.369 75.9064,360.035 79,366.5C 79.1642,375.193 78.6642,383.86 77.5,392.5C 69.4802,392.053 61.4802,391.387 53.5,390.5C 54.4574,381.798 55.6241,373.132 57,364.5C 59.0627,362.266 61.2294,360.266 63.5,358.5 Z"
       id="path37" />
  </g>
  <g
     id="g38">
    <path
       style="opacity:1"
       fill="#cd2338"
       d="M 447.5,445.5 C 430.844,438.173 414.177,430.839 397.5,423.5C 404.717,406.069 412.717,389.069 421.5,372.5C 436.711,371.477 451.711,369.81 466.5,367.5C 471.122,367.844 475.455,367.177 479.5,365.5C 486.827,364.113 493.66,361.446 500,357.5C 498.235,366.794 495.235,375.794 491,384.5C 484.802,400.417 473.969,411.917 458.5,419C 466.421,418.297 473.588,415.464 480,410.5C 473.921,426.418 463.088,438.084 447.5,445.5 Z"
       id="path38" />
  </g>
  <g
     id="g39">
    <path
       style="opacity:1"
       fill="#c8213c"
       d="M 356.5,402.5 C 356.47,403.497 356.97,404.164 358,404.5C 369.796,409.982 381.629,415.316 393.5,420.5C 390.64,426.412 387.974,432.412 385.5,438.5C 373.522,433.179 361.522,427.845 349.5,422.5C 348.614,421.675 348.281,420.675 348.5,419.5C 350.93,413.643 353.597,407.977 356.5,402.5 Z"
       id="path39" />
  </g>
  <g
     id="g40">
    <path
       style="opacity:1"
       fill="#c32142"
       d="M 348.5,419.5 C 348.281,420.675 348.614,421.675 349.5,422.5C 361.522,427.845 373.522,433.179 385.5,438.5C 382.639,444.417 379.972,450.417 377.5,456.5C 364.699,451.265 352.365,445.265 340.5,438.5C 342.403,431.776 345.069,425.443 348.5,419.5 Z"
       id="path40" />
  </g>
  <g
     id="g41">
    <path
       style="opacity:1"
       fill="#c9213c"
       d="M 397.5,423.5 C 414.177,430.839 430.844,438.173 447.5,445.5C 447.917,446.124 448.584,446.457 449.5,446.5C 454.672,445.13 459.672,443.63 464.5,442C 460.931,451.54 457.265,461.04 453.5,470.5C 432.167,460.833 410.833,451.167 389.5,441.5C 391.656,435.196 394.322,429.196 397.5,423.5 Z"
       id="path41" />
  </g>
  <g
     id="g42">
    <path
       style="opacity:1"
       fill="#bd2248"
       d="M 340.5,438.5 C 352.365,445.265 364.699,451.265 377.5,456.5C 374.305,463.418 371.305,470.418 368.5,477.5C 356.86,472.014 345.193,466.514 333.5,461C 332.748,460.329 332.414,459.496 332.5,458.5C 334.597,451.53 337.263,444.864 340.5,438.5 Z"
       id="path42" />
  </g>
  <g
     id="g43">
    <path
       style="opacity:1"
       fill="#c32041"
       d="M 389.5,441.5 C 410.833,451.167 432.167,460.833 453.5,470.5C 451.38,476.74 448.713,482.74 445.5,488.5C 424.86,478.847 404.193,469.181 383.5,459.5C 382.702,459.043 382.369,458.376 382.5,457.5C 384.322,451.864 386.655,446.531 389.5,441.5 Z"
       id="path43" />
  </g>
  <g
     id="g44">
    <path
       style="opacity:1"
       fill="#be2147"
       d="M 382.5,457.5 C 382.369,458.376 382.702,459.043 383.5,459.5C 404.193,469.181 424.86,478.847 445.5,488.5C 442.991,494.192 439.991,499.526 436.5,504.5C 416.526,495.181 396.526,485.847 376.5,476.5C 375.702,476.043 375.369,475.376 375.5,474.5C 377.267,468.515 379.6,462.848 382.5,457.5 Z"
       id="path44" />
  </g>
  <g
     id="g45">
    <path
       style="opacity:1"
       fill="#b8224d"
       d="M 332.5,458.5 C 332.414,459.496 332.748,460.329 333.5,461C 345.193,466.514 356.86,472.014 368.5,477.5C 366.15,482.905 363.816,488.239 361.5,493.5C 350.069,488.619 338.736,483.452 327.5,478C 326.748,477.329 326.414,476.496 326.5,475.5C 327.731,469.468 329.731,463.801 332.5,458.5 Z"
       id="path45" />
  </g>
  <g
     id="g46">
    <path
       style="opacity:1"
       fill="#b8224d"
       d="M 375.5,474.5 C 375.369,475.376 375.702,476.043 376.5,476.5C 396.526,485.847 416.526,495.181 436.5,504.5C 433.489,511.197 429.489,517.197 424.5,522.5C 405.167,513.833 385.833,505.167 366.5,496.5C 368.981,488.882 371.981,481.549 375.5,474.5 Z"
       id="path46" />
  </g>
  <g
     id="g47">
    <path
       style="opacity:1"
       fill="#b22354"
       d="M 326.5,475.5 C 326.414,476.496 326.748,477.329 327.5,478C 338.736,483.452 350.069,488.619 361.5,493.5C 359.012,501.129 356.012,508.462 352.5,515.5C 340.801,511.286 329.801,505.953 319.5,499.5C 321.056,491.176 323.39,483.176 326.5,475.5 Z"
       id="path47" />
  </g>
  <g
     id="g48">
    <path
       style="opacity:1"
       fill="#fbfbfb"
       d="M 706.5,487.5 C 709.894,488.632 713.227,489.966 716.5,491.5C 710.078,506.277 704.578,521.277 700,536.5C 708.429,539.963 716.929,543.296 725.5,546.5C 730.827,533.524 736.16,520.524 741.5,507.5C 743.795,508.432 746.129,509.265 748.5,510C 749.022,510.561 749.355,511.228 749.5,512C 744.833,524.333 740.167,536.667 735.5,549C 744.325,553.394 753.492,557.227 763,560.5C 769.778,545.925 775.778,530.925 781,515.5C 781.333,515.167 781.667,514.833 782,514.5C 784.69,515.929 787.523,516.929 790.5,517.5C 783.833,536.5 777.167,555.5 770.5,574.5C 741.839,564.891 713.506,554.391 685.5,543C 692.643,524.549 699.643,506.049 706.5,487.5 Z"
       id="path48" />
  </g>
  <g
     id="g49">
    <path
       style="opacity:1"
       fill="#b22253"
       d="M 366.5,496.5 C 385.833,505.167 405.167,513.833 424.5,522.5C 419.5,529.5 413.5,535.5 406.5,540.5C 390.748,533.792 375.081,526.792 359.5,519.5C 358.614,518.675 358.281,517.675 358.5,516.5C 360.654,509.54 363.321,502.874 366.5,496.5 Z"
       id="path49" />
  </g>
  <g
     id="g50">
    <path
       style="opacity:1"
       fill="#aa235a"
       d="M 319.5,499.5 C 329.801,505.953 340.801,511.286 352.5,515.5C 346.874,531.387 340.874,547.053 334.5,562.5C 327.5,549.167 320.5,535.833 313.5,522.5C 315.056,514.606 317.056,506.939 319.5,499.5 Z"
       id="path50" />
  </g>
  <g
     id="g51">
    <path
       style="opacity:1"
       fill="#ab2359"
       d="M 358.5,516.5 C 358.281,517.675 358.614,518.675 359.5,519.5C 375.081,526.792 390.748,533.792 406.5,540.5C 399.541,547.319 391.541,552.652 382.5,556.5C 375.739,553.955 369.072,551.121 362.5,548C 357.777,545.978 353.443,543.478 349.5,540.5C 351.98,532.224 354.98,524.224 358.5,516.5 Z"
       id="path51" />
  </g>
  <g
     id="g52">
    <path
       style="opacity:1"
       fill="#8e2874"
       d="M 313.5,522.5 C 320.5,535.833 327.5,549.167 334.5,562.5C 333.698,565.574 332.698,568.574 331.5,571.5C 323.717,568.442 316.05,565.108 308.5,561.5C 309.043,548.338 310.709,535.338 313.5,522.5 Z"
       id="path52" />
  </g>
  <g
     id="g53">
    <path
       style="opacity:1"
       fill="#a7245e"
       d="M 349.5,540.5 C 353.443,543.478 357.777,545.978 362.5,548C 369.072,551.121 375.739,553.955 382.5,556.5C 374.247,560.962 365.58,564.295 356.5,566.5C 356.167,566.5 355.833,566.5 355.5,566.5C 350.195,567.194 344.862,567.528 339.5,567.5C 342.066,558.128 345.399,549.128 349.5,540.5 Z"
       id="path53" />
  </g>
  <g
     id="g54">
    <path
       style="opacity:1"
       fill="#8f2c76"
       d="M 385.5,582.5 C 385.631,581.624 385.298,580.957 384.5,580.5C 374.62,576.059 364.953,571.392 355.5,566.5C 355.833,566.5 356.167,566.5 356.5,566.5C 379.745,569.736 399.579,563.069 416,546.5C 410.311,562.16 400.145,574.16 385.5,582.5 Z"
       id="path54" />
  </g>
  <g
     id="g55">
    <path
       style="opacity:1"
       fill="#fbfbfb"
       d="M 680.5,558.5 C 705.407,575.394 730.074,592.727 754.5,610.5C 752.408,613.681 750.075,616.681 747.5,619.5C 736.776,611.444 725.776,603.777 714.5,596.5C 705.167,609.5 695.833,622.5 686.5,635.5C 697.105,644.142 708.105,652.309 719.5,660C 717.276,662.965 714.942,665.798 712.5,668.5C 687.816,651.825 663.483,634.658 639.5,617C 641.674,613.996 644.008,611.163 646.5,608.5C 656.66,615.747 666.994,622.747 677.5,629.5C 687.557,617.067 696.89,604.067 705.5,590.5C 695.832,583.006 685.998,575.672 676,568.5C 675.333,567.5 675.333,566.5 676,565.5C 677.723,563.283 679.223,560.95 680.5,558.5 Z"
       id="path55" />
  </g>
  <g
     id="g56">
    <path
       style="opacity:1"
       fill="#882a79"
       d="M 308.5,561.5 C 316.05,565.108 323.717,568.442 331.5,571.5C 329.069,578.678 326.402,585.678 323.5,592.5C 317.26,590.38 311.26,587.713 305.5,584.5C 300.441,570.282 293.441,557.115 284.5,545C 293.691,549.162 301.524,555.329 308,563.5C 308.464,562.906 308.631,562.239 308.5,561.5 Z"
       id="path56" />
  </g>
  <g
     id="g57">
    <path
       style="opacity:1"
       fill="#882a79"
       d="M 355.5,566.5 C 364.953,571.392 374.62,576.059 384.5,580.5C 385.298,580.957 385.631,581.624 385.5,582.5C 381.557,585.478 377.223,587.978 372.5,590C 382.611,591.524 390.778,588.357 397,580.5C 392.946,591.731 385.446,600.065 374.5,605.5C 373.878,603.665 372.544,602.498 370.5,602C 357.918,596.207 345.251,590.707 332.5,585.5C 334.462,579.267 336.796,573.267 339.5,567.5C 344.862,567.528 350.195,567.194 355.5,566.5 Z"
       id="path57" />
  </g>
  <g
     id="g58">
    <path
       style="opacity:1"
       fill="#822d7e"
       d="M 332.5,585.5 C 345.251,590.707 357.918,596.207 370.5,602C 372.544,602.498 373.878,603.665 374.5,605.5C 371.648,607.076 368.648,608.576 365.5,610C 353.024,613.143 340.358,615.143 327.5,616C 333.09,622.109 335.924,629.276 336,637.5C 334,634.167 332,630.833 330,627.5C 326.973,624.26 324.139,620.927 321.5,617.5C 324.779,606.661 328.446,595.994 332.5,585.5 Z"
       id="path58" />
  </g>
  <g
     id="g59">
    <path
       style="opacity:1"
       fill="#812f81"
       d="M 305.5,584.5 C 311.26,587.713 317.26,590.38 323.5,592.5C 318.692,606.924 313.692,621.258 308.5,635.5C 306.83,635.249 305.33,634.582 304,633.5C 303.617,634.056 303.117,634.389 302.5,634.5C 305.087,627.998 307.087,621.331 308.5,614.5C 303.821,614.334 299.155,614.501 294.5,615C 287.685,616.502 281.019,618.169 274.5,620C 282.505,613.497 291.505,608.83 301.5,606C 294.024,602.848 287.358,598.514 281.5,593C 289.849,595.7 298.516,597.2 307.5,597.5C 307.091,593.124 306.425,588.79 305.5,584.5 Z"
       id="path59" />
  </g>
  <g
     id="g60">
    <path
       style="opacity:1"
       fill="#fdfdfd"
       d="M 154.5,616.5 C 176.646,615.146 186.813,625.479 185,647.5C 179.965,660.601 170.465,666.434 156.5,665C 141.317,660.481 134.817,650.314 137,634.5C 138.734,630.43 140.9,626.597 143.5,623C 146.933,620.289 150.6,618.123 154.5,616.5 Z"
       id="path60" />
  </g>
  <g
     id="g61">
    <path
       style="opacity:1"
       fill="#fcfbfc"
       d="M 619.5,634.5 C 627.023,633.927 634.356,634.76 641.5,637C 642.142,640.457 641.476,643.79 639.5,647C 622.363,642.486 609.53,647.986 601,663.5C 595.84,688.007 605.007,704.84 628.5,714C 651.107,717.201 664.107,707.534 667.5,685C 667.212,682.813 666.878,680.646 666.5,678.5C 670.406,677.643 674.24,677.643 678,678.5C 679.186,702.978 668.02,718.478 644.5,725C 618.318,727.465 600.152,716.632 590,692.5C 583.158,664.516 592.991,645.183 619.5,634.5 Z"
       id="path61" />
  </g>
  <g
     id="g62">
    <path
       style="opacity:1"
       fill="#693189"
       d="M 308.5,635.5 C 302.169,654.161 295.835,672.827 289.5,691.5C 287.716,691.107 286.05,690.441 284.5,689.5C 287.345,679.787 290.345,670.12 293.5,660.5C 296.5,651.833 299.5,643.167 302.5,634.5C 303.117,634.389 303.617,634.056 304,633.5C 305.33,634.582 306.83,635.249 308.5,635.5 Z"
       id="path62" />
  </g>
  <g
     id="g63">
    <path
       style="opacity:1"
       fill="#f9f9f9"
       d="M 545.5,683.5 C 549.606,686.429 553.606,689.596 557.5,693C 577.592,711.381 597.259,730.215 616.5,749.5C 613.206,752.155 609.539,753.655 605.5,754C 598.683,748.017 592.016,741.851 585.5,735.5C 574.791,740.236 564.125,745.07 553.5,750C 552.68,759.756 552.18,769.59 552,779.5C 548.86,781.265 545.694,782.932 542.5,784.5C 540.008,751.862 539.008,719.195 539.5,686.5C 541.78,685.864 543.78,684.864 545.5,683.5 Z"
       id="path63" />
  </g>
  <g
     id="g64">
    <path
       style="opacity:1"
       fill="#57595c"
       d="M 548.5,698.5 C 558.661,708.494 568.995,718.328 579.5,728C 569.876,732.597 560.209,737.097 550.5,741.5C 549.439,727.184 548.772,712.85 548.5,698.5 Z"
       id="path64" />
  </g>
  <g
     id="g65">
    <path
       style="opacity:1"
       fill="#fcfcfc"
       d="M 487.5,703.5 C 503.665,702.997 514.499,710.33 520,725.5C 522.614,739.082 518.448,749.915 507.5,758C 496.673,761.199 485.673,763.699 474.5,765.5C 475.531,776.022 477.531,786.356 480.5,796.5C 476.68,798.138 472.68,799.138 468.5,799.5C 463.091,770.122 457.425,740.789 451.5,711.5C 461.497,709.734 471.497,707.901 481.5,706C 483.723,705.434 485.723,704.6 487.5,703.5 Z"
       id="path65" />
  </g>
  <g
     id="g66">
    <path
       style="opacity:1"
       fill="#302965"
       d="M 284.5,689.5 C 286.05,690.441 287.716,691.107 289.5,691.5C 284.428,707.048 279.762,722.715 275.5,738.5C 273.734,740.771 271.734,742.937 269.5,745C 268.5,745.667 267.5,745.667 266.5,745C 272.405,726.452 278.405,707.952 284.5,689.5 Z"
       id="path66" />
  </g>
  <g
     id="g67">
    <path
       style="opacity:1"
       fill="#fafafa"
       d="M 402.5,711.5 C 405.833,711.5 409.167,711.5 412.5,711.5C 423.167,742.167 433.833,772.833 444.5,803.5C 440.5,803.5 436.5,803.5 432.5,803.5C 429.777,794.832 426.944,786.165 424,777.5C 423.25,776.874 422.416,776.374 421.5,776C 410.65,775.752 399.816,775.252 389,774.5C 387.833,774.833 386.667,775.167 385.5,775.5C 381.903,783.125 378.403,790.791 375,798.5C 370.882,799.798 366.715,799.798 362.5,798.5C 376.119,769.598 389.452,740.598 402.5,711.5 Z"
       id="path67" />
  </g>
  <g
     id="g68">
    <path
       style="opacity:1"
       fill="#57595c"
       d="M 485.5,714.5 C 496.045,712.855 503.545,716.855 508,726.5C 510.651,734.544 509.151,741.711 503.5,748C 501.5,749 499.5,750 497.5,751C 489.479,752.392 481.479,753.892 473.5,755.5C 472.353,755.182 471.519,754.516 471,753.5C 469.37,742.718 467.203,732.051 464.5,721.5C 464.818,720.353 465.484,719.519 466.5,719C 473.029,717.723 479.362,716.223 485.5,714.5 Z"
       id="path68" />
  </g>
  <g
     id="g69">
    <path
       style="opacity:1"
       fill="#585a5d"
       d="M 405.5,726.5 C 406.75,726.577 407.583,727.244 408,728.5C 412.673,741.018 416.839,753.685 420.5,766.5C 409.806,766.599 399.14,766.099 388.5,765C 394.588,752.326 400.255,739.493 405.5,726.5 Z"
       id="path69" />
  </g>
</svg>
