<?xml version="1.0" encoding="UTF-8"?>
<!DOCTYPE svg PUBLIC "-//W3C//DTD SVG 1.1//EN" "http://www.w3.org/Graphics/SVG/1.1/DTD/svg11.dtd">
<svg xmlns="http://www.w3.org/2000/svg" version="1.1" width="863px" height="802px" style="shape-rendering:geometricPrecision; text-rendering:geometricPrecision; image-rendering:optimizeQuality; fill-rule:evenodd; clip-rule:evenodd" xmlns:xlink="http://www.w3.org/1999/xlink">
<g><path style="opacity:0.999" fill="#e41050" d="M 144.5,3.5 C 353.201,3.0054 561.868,3.5054 770.5,5C 786.772,10.2715 797.272,21.1049 802,37.5C 803.256,77.5014 803.756,117.501 803.5,157.5C 803.828,320.521 803.494,483.521 802.5,646.5C 583.167,646.5 363.833,646.5 144.5,646.5C 144.5,432.167 144.5,217.833 144.5,3.5 Z"/></g>
<g><path style="opacity:0.999" fill="#e75883" d="M 144.5,3.5 C 144.5,217.833 144.5,432.167 144.5,646.5C 126.387,657.729 108.387,669.229 90.5,681C 89.7476,681.671 89.4142,682.504 89.5,683.5C 65.4661,698.022 41.7994,713.189 18.5,729C 14.8562,731.656 10.8562,733.489 6.5,734.5C 5.50026,521.001 5.16693,307.334 5.5,93.5C 51.8333,63.5 98.1667,33.5 144.5,3.5 Z"/></g>
<g><path style="opacity:1" fill="#fefefe" d="M 425.5,136.5 C 449.836,136.333 474.169,136.5 498.5,137C 504.528,137.17 510.528,137.67 516.5,138.5C 556.645,261.267 595.978,384.267 634.5,507.5C 611.831,507.667 589.164,507.5 566.5,507C 555.67,475.344 545.337,443.51 535.5,411.5C 492.933,410.17 450.433,410.17 408,411.5C 398.494,443.35 388.994,475.183 379.5,507C 357.169,507.5 334.836,507.667 312.5,507.5C 349.56,383.653 387.227,259.986 425.5,136.5 Z"/></g>
<g><path style="opacity:0.999" fill="#770728" d="M 89.5,683.5 C 89.4142,682.504 89.7476,681.671 90.5,681C 108.387,669.229 126.387,657.729 144.5,646.5C 363.833,646.5 583.167,646.5 802.5,646.5C 803.494,483.521 803.828,320.521 803.5,157.5C 821.799,156.539 840.132,156.206 858.5,156.5C 859.688,370.828 859.688,585.161 858.5,799.5C 615.5,799.667 372.5,799.5 129.5,799C 109.418,796.586 96.2513,785.752 90,766.5C 89.5,738.835 89.3334,711.169 89.5,683.5 Z"/></g>
<g><path style="opacity:1" fill="#e51250" d="M 469.5,186.5 C 471.311,188.385 472.478,190.719 473,193.5C 488.27,247.143 503.437,300.81 518.5,354.5C 486.833,355.833 455.167,355.833 423.5,354.5C 439.041,298.544 454.375,242.544 469.5,186.5 Z"/></g>
<g><path style="opacity:0.584" fill="#221f20" d="M 5.5,93.5 C 5.16693,307.334 5.50026,521.001 6.5,734.5C 6.64945,735.552 6.48278,736.552 6,737.5C 5.66667,737.167 5.33333,736.833 5,736.5C 4.16706,522 4.33372,307.666 5.5,93.5 Z"/></g>
</svg>
