<?xml version="1.0" encoding="UTF-8"?>
<!DOCTYPE svg PUBLIC "-//W3C//DTD SVG 1.1//EN" "http://www.w3.org/Graphics/SVG/1.1/DTD/svg11.dtd">
<svg xmlns="http://www.w3.org/2000/svg" version="1.1" width="128px" height="128px" style="shape-rendering:geometricPrecision; text-rendering:geometricPrecision; image-rendering:optimizeQuality; fill-rule:evenodd; clip-rule:evenodd" xmlns:xlink="http://www.w3.org/1999/xlink">
<g><path style="opacity:0.984" fill="#010100" d="M 2.5,-0.5 C 8.5,-0.5 14.5,-0.5 20.5,-0.5C 20.5,1.5 20.5,3.5 20.5,5.5C 15.5,5.5 10.5,5.5 5.5,5.5C 5.5,11.1667 5.5,16.8333 5.5,22.5C 3.5,22.5 1.5,22.5 -0.5,22.5C -0.5,15.8333 -0.5,9.16667 -0.5,2.5C 0.833333,1.83333 1.83333,0.833333 2.5,-0.5 Z"/></g>
<g><path style="opacity:1" fill="#f0d077" d="M 20.5,-0.5 C 49.1667,-0.5 77.8333,-0.5 106.5,-0.5C 106.5,1.5 106.5,3.5 106.5,5.5C 105.566,6.56764 105.232,7.90097 105.5,9.5C 77.1667,9.5 48.8333,9.5 20.5,9.5C 20.5,8.5 20.5,7.5 20.5,6.5C 20.5,6.16667 20.5,5.83333 20.5,5.5C 20.5,3.5 20.5,1.5 20.5,-0.5 Z"/></g>
<g><path style="opacity:0.979" fill="#000303" d="M 106.5,-0.5 C 112.833,-0.5 119.167,-0.5 125.5,-0.5C 125.833,0.5 126.5,1.16667 127.5,1.5C 127.5,8.83333 127.5,16.1667 127.5,23.5C 125.621,22.6586 123.621,22.3253 121.5,22.5C 121.5,16.8333 121.5,11.1667 121.5,5.5C 116.5,5.5 111.5,5.5 106.5,5.5C 106.5,3.5 106.5,1.5 106.5,-0.5 Z"/></g>
<g><path style="opacity:0.83" fill="#018e7c" d="M 20.5,5.5 C 20.5,5.83333 20.5,6.16667 20.5,6.5C 15.8333,6.5 11.1667,6.5 6.5,6.5C 6.5,7.83333 6.5,9.16667 6.5,10.5C 6.5,11.5 6.5,12.5 6.5,13.5C 6.5,16.5 6.5,19.5 6.5,22.5C 6.16667,22.5 5.83333,22.5 5.5,22.5C 5.5,16.8333 5.5,11.1667 5.5,5.5C 10.5,5.5 15.5,5.5 20.5,5.5 Z"/></g>
<g><path style="opacity:0.971" fill="#0db59e" d="M 106.5,5.5 C 111.5,5.5 116.5,5.5 121.5,5.5C 121.5,11.1667 121.5,16.8333 121.5,22.5C 115.173,20.9962 110.84,23.1629 108.5,29C 110.685,35.0958 115.018,37.5958 121.5,36.5C 121.5,53.1667 121.5,69.8333 121.5,86.5C 118.022,86.1842 114.688,86.6842 111.5,88C 108.833,91.3333 108.833,94.6667 111.5,98C 114.688,99.3158 118.022,99.8158 121.5,99.5C 121.5,106.5 121.5,113.5 121.5,120.5C 116.5,120.5 111.5,120.5 106.5,120.5C 105.539,118.735 105.205,116.735 105.5,114.5C 76.8333,114.5 48.1667,114.5 19.5,114.5C 19.5,116.5 19.5,118.5 19.5,120.5C 14.8333,120.5 10.1667,120.5 5.5,120.5C 5.5,114.167 5.5,107.833 5.5,101.5C 8.56816,101.453 11.5682,100.953 14.5,100C 18.5299,96.0434 18.1965,92.3768 13.5,89C 10.9865,87.7475 8.3198,87.2475 5.5,87.5C 5.5,70.5 5.5,53.5 5.5,36.5C 8.56816,36.4533 11.5682,35.9533 14.5,35C 18.5299,31.0434 18.1965,27.3768 13.5,24C 11.3225,22.7978 8.9892,22.2978 6.5,22.5C 6.5,19.5 6.5,16.5 6.5,13.5C 9.23513,15.1354 11.2351,14.4687 12.5,11.5C 10.8669,9.26099 8.86687,8.92766 6.5,10.5C 6.5,9.16667 6.5,7.83333 6.5,6.5C 11.1667,6.5 15.8333,6.5 20.5,6.5C 20.5,7.5 20.5,8.5 20.5,9.5C 48.8333,9.5 77.1667,9.5 105.5,9.5C 105.232,7.90097 105.566,6.56764 106.5,5.5 Z M 114.5,7.5 C 117.767,7.42393 119.101,8.75726 118.5,11.5C 114.14,13.1403 112.807,11.807 114.5,7.5 Z M 114.5,110.5 C 116.948,110.085 118.281,111.085 118.5,113.5C 116.584,117.327 114.917,117.327 113.5,113.5C 113.685,112.416 114.018,111.416 114.5,110.5 Z M 9.5,111.5 C 14.1972,112.874 14.5305,114.874 10.5,117.5C 7.02503,115.916 6.6917,113.916 9.5,111.5 Z"/></g>
<g><path style="opacity:1" fill="#345f6f" d="M 104.5,22.5 C 76.8333,22.5 49.1667,22.5 21.5,22.5C 21.5,31.8333 21.5,41.1667 21.5,50.5C 21.1667,50.5 20.8333,50.5 20.5,50.5C 20.5,40.8333 20.5,31.1667 20.5,21.5C 48.6716,21.1687 76.6716,21.502 104.5,22.5 Z"/></g>
<g><path style="opacity:1" fill="#424963" d="M 104.5,22.5 C 104.5,31.8333 104.5,41.1667 104.5,50.5C 102.5,50.5 100.5,50.5 98.5,50.5C 98.5,42.8333 98.5,35.1667 98.5,27.5C 74.5,27.5 50.5,27.5 26.5,27.5C 26.5,35.1667 26.5,42.8333 26.5,50.5C 24.8333,50.5 23.1667,50.5 21.5,50.5C 21.5,41.1667 21.5,31.8333 21.5,22.5C 49.1667,22.5 76.8333,22.5 104.5,22.5 Z"/></g>
<g><path style="opacity:1" fill="#9eaab0" d="M 98.5,50.5 C 95.8333,50.5 93.1667,50.5 90.5,50.5C 88.7809,49.9779 87.4475,48.9779 86.5,47.5C 89.707,49.1088 92.707,48.7755 95.5,46.5C 96.4941,41.544 96.8275,36.544 96.5,31.5C 95.5,31.5 94.5,31.5 93.5,31.5C 93.5,36.1667 93.5,40.8333 93.5,45.5C 92.5,45.5 91.5,45.5 90.5,45.5C 90.5,39.8333 90.5,34.1667 90.5,28.5C 69.5,28.5 48.5,28.5 27.5,28.5C 27.5,35.8333 27.5,43.1667 27.5,50.5C 27.1667,50.5 26.8333,50.5 26.5,50.5C 26.5,42.8333 26.5,35.1667 26.5,27.5C 50.5,27.5 74.5,27.5 98.5,27.5C 98.5,35.1667 98.5,42.8333 98.5,50.5 Z"/></g>
<g><path style="opacity:1" fill="#c1ced4" d="M 90.5,45.5 C 88.5636,41.2853 87.8969,36.6186 88.5,31.5C 87.5,31.5 86.5,31.5 85.5,31.5C 84.1667,32.8333 82.8333,32.8333 81.5,31.5C 78.5,31.5 75.5,31.5 72.5,31.5C 72.5,37.1667 72.5,42.8333 72.5,48.5C 73.5,48.5 74.5,48.5 75.5,48.5C 75.5,46.5 75.5,44.5 75.5,42.5C 78.4175,42.6349 81.0842,41.9682 83.5,40.5C 84.1667,42.5 84.8333,44.5 85.5,46.5C 86.1667,46.5 86.5,46.8333 86.5,47.5C 87.4475,48.9779 88.7809,49.9779 90.5,50.5C 69.5,50.5 48.5,50.5 27.5,50.5C 27.5,43.1667 27.5,35.8333 27.5,28.5C 48.5,28.5 69.5,28.5 90.5,28.5C 90.5,34.1667 90.5,39.8333 90.5,45.5 Z"/></g>
<g><path style="opacity:1" fill="#1c1d1e" d="M 61.5,31.5 C 64.2469,31.1866 66.9135,31.52 69.5,32.5C 70.8532,33.5237 71.5198,34.857 71.5,36.5C 68.9752,35.36 66.3085,34.6933 63.5,34.5C 63.5,38.1667 63.5,41.8333 63.5,45.5C 66.3085,45.3067 68.9752,44.64 71.5,43.5C 71.1395,46.6909 69.3062,48.3576 66,48.5C 60.7207,48.2529 58.554,45.4195 59.5,40C 59.7271,36.9837 60.3938,34.1503 61.5,31.5 Z"/></g>
<g><path style="opacity:1" fill="#050606" d="M 81.5,31.5 C 83.0438,34.248 83.7105,37.248 83.5,40.5C 81.0842,41.9682 78.4175,42.6349 75.5,42.5C 75.5,44.5 75.5,46.5 75.5,48.5C 74.5,48.5 73.5,48.5 72.5,48.5C 72.5,42.8333 72.5,37.1667 72.5,31.5C 75.5,31.5 78.5,31.5 81.5,31.5 Z"/></g>
<g><path style="opacity:1" fill="#60676a" d="M 81.5,31.5 C 82.8333,32.8333 84.1667,32.8333 85.5,31.5C 85.5,36.5 85.5,41.5 85.5,46.5C 84.8333,44.5 84.1667,42.5 83.5,40.5C 83.7105,37.248 83.0438,34.248 81.5,31.5 Z"/></g>
<g><path style="opacity:1" fill="#131414" d="M 85.5,31.5 C 86.5,31.5 87.5,31.5 88.5,31.5C 87.8969,36.6186 88.5636,41.2853 90.5,45.5C 91.5,45.5 92.5,45.5 93.5,45.5C 93.5,40.8333 93.5,36.1667 93.5,31.5C 94.5,31.5 95.5,31.5 96.5,31.5C 96.8275,36.544 96.4941,41.544 95.5,46.5C 92.707,48.7755 89.707,49.1088 86.5,47.5C 86.5,46.8333 86.1667,46.5 85.5,46.5C 85.5,41.5 85.5,36.5 85.5,31.5 Z"/></g>
<g><path style="opacity:1" fill="#c3d1d7" d="M 75.5,34.5 C 77.1667,34.5 78.8333,34.5 80.5,34.5C 80.5,36.1667 80.5,37.8333 80.5,39.5C 78.8333,39.5 77.1667,39.5 75.5,39.5C 75.5,37.8333 75.5,36.1667 75.5,34.5 Z"/></g>
<g><path style="opacity:0.991" fill="#000000" d="M -0.5,35.5 C 1.3792,36.3414 3.3792,36.6747 5.5,36.5C 5.5,53.5 5.5,70.5 5.5,87.5C 3.5,87.5 1.5,87.5 -0.5,87.5C -0.5,70.1667 -0.5,52.8333 -0.5,35.5 Z"/></g>
<g><path style="opacity:0.991" fill="#000706" d="M 121.5,36.5 C 123.5,36.5 125.5,36.5 127.5,36.5C 127.5,53.5 127.5,70.5 127.5,87.5C 125.621,86.6586 123.621,86.3253 121.5,86.5C 121.5,69.8333 121.5,53.1667 121.5,36.5 Z"/></g>
<g><path style="opacity:1" fill="#000000" d="M 20.5,50.5 C 20.8333,50.5 21.1667,50.5 21.5,50.5C 23.1667,50.5 24.8333,50.5 26.5,50.5C 26.8333,50.5 27.1667,50.5 27.5,50.5C 48.5,50.5 69.5,50.5 90.5,50.5C 93.1667,50.5 95.8333,50.5 98.5,50.5C 100.5,50.5 102.5,50.5 104.5,50.5C 106.5,50.5 108.5,50.5 110.5,50.5C 110.5,51.8333 110.5,53.1667 110.5,54.5C 109.5,54.5 108.5,54.5 107.5,54.5C 107.5,56.1667 107.5,57.8333 107.5,59.5C 106.5,59.5 105.5,59.5 104.5,59.5C 102.824,60.1834 102.157,61.5168 102.5,63.5C 101.167,63.5 99.8333,63.5 98.5,63.5C 98.5,65.5 98.5,67.5 98.5,69.5C 95.5825,69.3651 92.9158,70.0318 90.5,71.5C 88.6583,71.7233 86.825,72.0566 85,72.5C 80.6179,70.6492 76.1179,69.3159 71.5,68.5C 71.5,66.8333 71.5,65.1667 71.5,63.5C 70.5,63.5 69.5,63.5 68.5,63.5C 68.5,62.1667 68.5,60.8333 68.5,59.5C 65.1667,59.5 61.8333,59.5 58.5,59.5C 58.5,60.8333 58.5,62.1667 58.5,63.5C 57.5,63.5 56.5,63.5 55.5,63.5C 55.5,65.1667 55.5,66.8333 55.5,68.5C 50.8821,69.3159 46.3821,70.6492 42,72.5C 37.5323,71.242 33.0323,70.242 28.5,69.5C 28.9746,66.9179 28.3079,64.9179 26.5,63.5C 24.8235,62.8166 24.1568,61.4832 24.5,59.5C 23.1667,59.5 21.8333,59.5 20.5,59.5C 19.5489,58.0813 19.2155,56.4147 19.5,54.5C 18.5,54.5 17.5,54.5 16.5,54.5C 16.5,53.1667 16.5,51.8333 16.5,50.5C 17.8333,50.5 19.1667,50.5 20.5,50.5 Z"/></g>
<g><path style="opacity:1" fill="#626362" d="M 34.5,59.5 C 34.5,60.8333 34.5,62.1667 34.5,63.5C 35.5,63.5 36.5,63.5 37.5,63.5C 37.5,64.5 37.5,65.5 37.5,66.5C 36.1667,66.5 34.8333,66.5 33.5,66.5C 33.5,65.5 33.5,64.5 33.5,63.5C 32.5,63.5 31.5,63.5 30.5,63.5C 30.5,62.1667 30.5,60.8333 30.5,59.5C 29.5,59.5 28.5,59.5 27.5,59.5C 27.5,58.5 27.5,57.5 27.5,56.5C 28.8333,56.5 30.1667,56.5 31.5,56.5C 31.5,57.5 31.5,58.5 31.5,59.5C 32.5,59.5 33.5,59.5 34.5,59.5 Z"/></g>
<g><path style="opacity:1" fill="#626362" d="M 37.5,66.5 C 38.5,66.5 39.5,66.5 40.5,66.5C 40.5,65.5 40.5,64.5 40.5,63.5C 39.5,63.5 38.5,63.5 37.5,63.5C 37.5,62.1667 37.5,60.8333 37.5,59.5C 36.5,59.5 35.5,59.5 34.5,59.5C 34.5,58.5 34.5,57.5 34.5,56.5C 36.1667,56.5 37.8333,56.5 39.5,56.5C 39.5,57.5 39.5,58.5 39.5,59.5C 40.5,59.5 41.5,59.5 42.5,59.5C 42.5,60.8333 42.5,62.1667 42.5,63.5C 43.5,63.5 44.5,63.5 45.5,63.5C 45.5,64.5 45.5,65.5 45.5,66.5C 44.1667,66.5 42.8333,66.5 41.5,66.5C 41.5,67.5 41.5,68.5 41.5,69.5C 40.1667,69.5 38.8333,69.5 37.5,69.5C 37.5,68.5 37.5,67.5 37.5,66.5 Z"/></g>
<g><path style="opacity:1" fill="#444c66" d="M 20.5,59.5 C 21.8333,59.5 23.1667,59.5 24.5,59.5C 24.1568,61.4832 24.8235,62.8166 26.5,63.5C 26.5,74.8333 26.5,86.1667 26.5,97.5C 47.8333,97.5 69.1667,97.5 90.5,97.5C 93.1667,97.5 95.8333,97.5 98.5,97.5C 98.5,88.1667 98.5,78.8333 98.5,69.5C 98.5,67.5 98.5,65.5 98.5,63.5C 99.8333,63.5 101.167,63.5 102.5,63.5C 102.157,61.5168 102.824,60.1834 104.5,59.5C 104.5,74.5 104.5,89.5 104.5,104.5C 76.5,104.5 48.5,104.5 20.5,104.5C 20.5,89.5 20.5,74.5 20.5,59.5 Z"/></g>
<g><path style="opacity:1" fill="#020202" d="M 34.5,59.5 C 35.5,59.5 36.5,59.5 37.5,59.5C 37.5,60.8333 37.5,62.1667 37.5,63.5C 36.5,63.5 35.5,63.5 34.5,63.5C 34.5,62.1667 34.5,60.8333 34.5,59.5 Z"/></g>
<g><path style="opacity:1" fill="#c3d1d8" d="M 90.5,71.5 C 90.5,80.1667 90.5,88.8333 90.5,97.5C 69.1667,97.5 47.8333,97.5 26.5,97.5C 26.5,86.1667 26.5,74.8333 26.5,63.5C 28.3079,64.9179 28.9746,66.9179 28.5,69.5C 33.0323,70.242 37.5323,71.242 42,72.5C 46.3821,70.6492 50.8821,69.3159 55.5,68.5C 55.5,66.8333 55.5,65.1667 55.5,63.5C 56.5,63.5 57.5,63.5 58.5,63.5C 58.5,62.1667 58.5,60.8333 58.5,59.5C 61.8333,59.5 65.1667,59.5 68.5,59.5C 68.5,60.8333 68.5,62.1667 68.5,63.5C 69.5,63.5 70.5,63.5 71.5,63.5C 71.5,65.1667 71.5,66.8333 71.5,68.5C 76.1179,69.3159 80.6179,70.6492 85,72.5C 86.825,72.0566 88.6583,71.7233 90.5,71.5 Z"/></g>
<g><path style="opacity:1" fill="#020202" d="M 37.5,63.5 C 38.5,63.5 39.5,63.5 40.5,63.5C 40.5,64.5 40.5,65.5 40.5,66.5C 39.5,66.5 38.5,66.5 37.5,66.5C 37.5,65.5 37.5,64.5 37.5,63.5 Z"/></g>
<g><path style="opacity:1" fill="#a2afb3" d="M 98.5,69.5 C 98.5,78.8333 98.5,88.1667 98.5,97.5C 95.8333,97.5 93.1667,97.5 90.5,97.5C 90.5,88.8333 90.5,80.1667 90.5,71.5C 92.9158,70.0318 95.5825,69.3651 98.5,69.5 Z"/></g>
<g><path style="opacity:1" fill="#444b64" d="M 30.5,77.5 C 32.6547,77.372 34.6547,77.872 36.5,79C 41.2734,83.0742 45.1068,87.5742 48,92.5C 42.5838,93.6389 37.0838,93.8056 31.5,93C 30.5286,87.9283 30.1953,82.7616 30.5,77.5 Z"/></g>
<g><path style="opacity:0.98" fill="#000605" d="M 127.5,98.5 C 127.5,107.5 127.5,116.5 127.5,125.5C 126.5,125.833 125.833,126.5 125.5,127.5C 119.167,127.5 112.833,127.5 106.5,127.5C 106.5,125.167 106.5,122.833 106.5,120.5C 111.5,120.5 116.5,120.5 121.5,120.5C 121.5,113.5 121.5,106.5 121.5,99.5C 123.621,99.6747 125.621,99.3414 127.5,98.5 Z"/></g>
<g><path style="opacity:0.983" fill="#010403" d="M -0.5,100.5 C 1.3792,101.341 3.3792,101.675 5.5,101.5C 5.5,107.833 5.5,114.167 5.5,120.5C 10.1667,120.5 14.8333,120.5 19.5,120.5C 19.5,122.833 19.5,125.167 19.5,127.5C 13.5,127.5 7.5,127.5 1.5,127.5C 1.16667,126.5 0.5,125.833 -0.5,125.5C -0.5,117.167 -0.5,108.833 -0.5,100.5 Z"/></g>
<g><path style="opacity:1" fill="#f0d077" d="M 106.5,120.5 C 106.5,122.833 106.5,125.167 106.5,127.5C 77.5,127.5 48.5,127.5 19.5,127.5C 19.5,125.167 19.5,122.833 19.5,120.5C 19.5,118.5 19.5,116.5 19.5,114.5C 48.1667,114.5 76.8333,114.5 105.5,114.5C 105.205,116.735 105.539,118.735 106.5,120.5 Z"/></g>
</svg>
