<?xml version="1.0" encoding="UTF-8" standalone="no"?>
<svg
   version="1.1"
   width="512px"
   height="512px"
   style="shape-rendering:geometricPrecision; text-rendering:geometricPrecision; image-rendering:optimizeQuality; fill-rule:evenodd; clip-rule:evenodd"
   id="svg31"
   sodipodi:docname="guitar-pro.svg"
   inkscape:version="1.3.2 (091e20ef0f, 2023-11-25, custom)"
   xmlns:inkscape="http://www.inkscape.org/namespaces/inkscape"
   xmlns:sodipodi="http://sodipodi.sourceforge.net/DTD/sodipodi-0.dtd"
   xmlns="http://www.w3.org/2000/svg"
   xmlns:svg="http://www.w3.org/2000/svg">
  <defs
     id="defs31" />
  <sodipodi:namedview
     id="namedview31"
     pagecolor="#ffffff"
     bordercolor="#000000"
     borderopacity="0.25"
     inkscape:showpageshadow="2"
     inkscape:pageopacity="0.0"
     inkscape:pagecheckerboard="0"
     inkscape:deskcolor="#d1d1d1"
     inkscape:zoom="0.86132813"
     inkscape:cx="24.380952"
     inkscape:cy="283.28345"
     inkscape:window-width="1920"
     inkscape:window-height="1128"
     inkscape:window-x="0"
     inkscape:window-y="0"
     inkscape:window-maximized="1"
     inkscape:current-layer="svg31" />
  <g
     id="g10"
     style="shape-rendering:geometricPrecision;text-rendering:geometricPrecision;image-rendering:optimizeQuality;fill-rule:evenodd;clip-rule:evenodd;fill:#5e75ff;fill-opacity:1"
     inkscape:label="p">
    <path
       style="opacity:1;fill:#ffffff;fill-opacity:1"
       fill="#edeeee"
       d="M 355.5,132.5 C 357.866,135.857 360.199,139.19 362.5,142.5C 364.262,146.365 365.762,150.365 367,154.5C 367.667,171.167 367.667,187.833 367,204.5C 366.605,207.207 366.105,209.873 365.5,212.5C 365.167,212.5 364.833,212.5 364.5,212.5C 350.224,237.28 329.891,243.78 303.5,232C 300.333,229.5 297.167,227 294,224.5C 292.524,244.074 292.024,263.741 292.5,283.5C 281.832,284.834 271.165,286.167 260.5,287.5C 260.5,281.167 260.5,274.833 260.5,268.5C 260.5,222.833 260.5,177.167 260.5,131.5C 260.5,129.833 260.5,128.167 260.5,126.5C 271.139,124.616 281.806,122.949 292.5,121.5C 292.174,125.884 292.508,130.217 293.5,134.5C 297.8,130.015 302.8,126.515 308.5,124C 325.813,118.344 341.48,121.177 355.5,132.5 Z"
       id="path10" />
  </g>
  <g
     id="g11"
     style="shape-rendering:geometricPrecision;text-rendering:geometricPrecision;image-rendering:optimizeQuality;fill-rule:evenodd;clip-rule:evenodd;fill:#5e75ff;fill-opacity:1">
    <path
       style="opacity:1;fill:#ffffff;fill-opacity:1"
       fill="#eeeeef"
       d="M 219.5,122.5 C 229.5,122.5 239.5,122.5 249.5,122.5C 249.5,160.833 249.5,199.167 249.5,237.5C 249.665,240.85 249.498,244.183 249,247.5C 247.339,252.485 245.839,257.485 244.5,262.5C 243.5,262.833 242.833,263.5 242.5,264.5C 237.695,269.459 232.362,273.959 226.5,278C 221.768,280.466 216.768,282.133 211.5,283C 194.936,285.085 178.936,283.085 163.5,277C 161.292,275.953 159.626,274.453 158.5,272.5C 158.5,270.167 158.5,267.833 158.5,265.5C 159.952,258.661 161.285,251.661 162.5,244.5C 168.784,249.807 175.784,253.807 183.5,256.5C 183.918,257.222 184.584,257.722 185.5,258C 193.19,259.914 200.856,259.914 208.5,258C 214.071,255.254 217.071,250.754 217.5,244.5C 218.165,241.518 218.498,238.352 218.5,235C 218.593,231.05 218.093,227.216 217,223.5C 200.663,239.124 182.497,241.624 162.5,231C 157.258,227.592 153.258,223.092 150.5,217.5C 149.675,216.614 148.675,216.281 147.5,216.5C 147.672,215.508 147.338,214.842 146.5,214.5C 145.826,211.474 144.993,208.474 144,205.5C 143.5,188.837 143.333,172.17 143.5,155.5C 147.443,140.217 156.776,129.551 171.5,123.5C 189.067,119.058 204.4,123.058 217.5,135.5C 218.167,131.018 218.834,126.684 219.5,122.5 Z"
       id="path11" />
  </g>
  <g
     id="g20"
     style="shape-rendering:geometricPrecision;text-rendering:geometricPrecision;image-rendering:optimizeQuality;fill-rule:evenodd;clip-rule:evenodd;fill:#5e75ff;fill-opacity:1">
    <path
       style="opacity:1;fill:#5e75ff;fill-opacity:1"
       fill="#c3d1e9"
       d="M 219.5,122.5 C 222.625,121.521 225.958,121.187 229.5,121.5C 236.687,121.175 243.687,121.509 250.5,122.5C 250.832,161.004 250.499,199.337 249.5,237.5C 249.5,199.167 249.5,160.833 249.5,122.5C 239.5,122.5 229.5,122.5 219.5,122.5 Z"
       id="path20" />
  </g>
  <g
     id="g1"
     style="fill:#5e75ff;fill-opacity:1">
    <path
       style="opacity:0.004;fill:#5e75ff;fill-opacity:1"
       fill="#000000"
       d="M 284.5,21.5 C 264.834,20.1842 245.168,20.1842 225.5,21.5C 235.116,19.9554 244.95,19.2887 255,19.5C 265.05,19.2887 274.884,19.9554 284.5,21.5 Z"
       id="path1" />
  </g>
  <g
     id="g2"
     style="fill:#5e75ff;fill-opacity:1">
    <path
       style="opacity:0.004;fill:#5e75ff;fill-opacity:1"
       fill="#000000"
       d="M 225.5,21.5 C 221.036,22.6437 216.37,23.3104 211.5,23.5C 215.9,21.8958 220.566,21.2291 225.5,21.5 Z"
       id="path2" />
  </g>
  <g
     id="g3"
     style="fill:#5e75ff;fill-opacity:1">
    <path
       style="opacity:0.004;fill:#5e75ff;fill-opacity:1"
       fill="#000000"
       d="M 285.5,21.5 C 290.122,21.1561 294.455,21.8227 298.5,23.5C 293.972,23.2296 289.639,22.5629 285.5,21.5 Z"
       id="path3" />
  </g>
  <g
     id="g4"
     style="fill:#5e75ff;fill-opacity:1">
    <path
       style="opacity:0.07;fill:#5e75ff;fill-opacity:1"
       fill="#000000"
       d="M 211.5,23.5 C 160.186,31.9051 116.686,54.9051 81,92.5C 63.7955,112.252 54.2955,135.252 52.5,161.5C 52.3196,172.582 53.9862,183.249 57.5,193.5C 60.216,206.483 64.0493,219.15 69,231.5C 99.345,309.704 140.345,381.371 192,446.5C 203.658,460.83 217.158,472.997 232.5,483C 244.833,491.204 257.833,492.538 271.5,487C 279.707,482.787 287.373,477.787 294.5,472C 321.123,446.73 343.956,418.564 363,387.5C 395.525,336.784 422.525,283.117 444,226.5C 448.088,215.74 451.255,204.74 453.5,193.5C 457.014,183.249 458.68,172.582 458.5,161.5C 456.705,135.252 447.205,112.252 430,92.5C 400.879,60.913 365.379,39.913 323.5,29.5C 315.485,27.163 307.485,25.163 299.5,23.5C 346.036,30.1081 387.036,48.6081 422.5,79C 445.734,99.3001 460.9,124.467 468,154.5C 470.938,177.387 468.605,199.72 461,221.5C 432.95,302.281 393.95,376.948 344,445.5C 332.268,459.905 319.768,473.738 306.5,487C 300.167,492 293.833,497 287.5,502C 280.678,505.748 273.678,508.915 266.5,511.5C 258.833,511.5 251.167,511.5 243.5,511.5C 223.172,503.044 205.672,490.377 191,473.5C 165.395,444.289 142.728,412.955 123,379.5C 101.423,341.414 81.7559,302.414 64,262.5C 53.4971,236.991 45.8304,210.658 41,183.5C 39.1844,154.622 46.8511,128.622 64,105.5C 95.0101,67.2122 134.51,41.7122 182.5,29C 191.97,26.0483 201.636,24.215 211.5,23.5 Z"
       id="path4" />
  </g>
  <g
     id="g5"
     style="fill:#5e75ff;fill-opacity:1">
    <path
       style="opacity:1;fill:#5e75ff;fill-opacity:1"
       fill="#5ba4fe"
       d="M 312.5,30.5 C 311.843,57.7731 307.51,84.4397 299.5,110.5C 290.327,110.044 281.327,111.044 272.5,113.5C 276.374,115.002 276.041,115.669 271.5,115.5C 270.996,122.342 268.329,123.342 263.5,118.5C 261.837,119.875 260.503,119.542 259.5,117.5C 259.167,118.167 258.833,118.833 258.5,119.5C 257.18,117.73 255.68,117.397 254,118.5C 252.151,117.439 250.151,116.773 248,116.5C 243.65,116.627 239.317,116.627 235,116.5C 232.408,117.372 230.574,119.039 229.5,121.5C 225.958,121.187 222.625,121.521 219.5,122.5C 218.834,126.684 218.167,131.018 217.5,135.5C 204.4,123.058 189.067,119.058 171.5,123.5C 172.393,120.539 174.393,118.706 177.5,118C 182.167,117 186.833,116 191.5,115C 206.06,87.7526 214.393,58.2526 216.5,26.5C 248.89,21.5525 280.89,22.8859 312.5,30.5 Z"
       id="path5" />
  </g>
  <g
     id="g6"
     style="fill:#5e75ff;fill-opacity:1">
    <path
       style="opacity:1;fill:#5e75ff;fill-opacity:1"
       fill="#5fa6fe"
       d="M 216.5,26.5 C 214.393,58.2526 206.06,87.7526 191.5,115C 186.833,116 182.167,117 177.5,118C 174.393,118.706 172.393,120.539 171.5,123.5C 156.776,129.551 147.443,140.217 143.5,155.5C 141.871,156.625 140.371,157.959 139,159.5C 137.213,165.361 136.213,171.361 136,177.5C 114.331,193.788 90.1643,204.788 63.5,210.5C 61.7282,204.65 59.7282,198.983 57.5,193.5C 53.9862,183.249 52.3196,172.582 52.5,161.5C 55.3989,137.027 64.8989,115.36 81,96.5C 117.779,57.1922 162.946,33.8588 216.5,26.5 Z"
       id="path6" />
  </g>
  <g
     id="g7"
     style="fill:#5e75ff;fill-opacity:1">
    <path
       style="opacity:0.993;fill:#5e75ff;fill-opacity:1"
       fill="#80b7fc"
       d="M 323.5,29.5 C 365.379,39.913 400.879,60.913 430,92.5C 447.205,112.252 456.705,135.252 458.5,161.5C 454.664,131.162 441.331,105.829 418.5,85.5C 399.268,66.53 376.934,52.03 351.5,42C 342.021,38.8965 332.688,35.7299 323.5,32.5C 324.376,32.6309 325.043,32.2975 325.5,31.5C 324.757,30.8182 324.091,30.1515 323.5,29.5 Z"
       id="path7" />
  </g>
  <g
     id="g8"
     style="fill:#5e75ff;fill-opacity:1">
    <path
       style="opacity:0.998;fill:#5e75ff;fill-opacity:1"
       fill="#8abdfd"
       d="M 284.5,21.5 C 284.833,21.5 285.167,21.5 285.5,21.5C 289.639,22.5629 293.972,23.2296 298.5,23.5C 298.833,23.5 299.167,23.5 299.5,23.5C 307.485,25.163 315.485,27.163 323.5,29.5C 324.091,30.1515 324.757,30.8182 325.5,31.5C 325.043,32.2975 324.376,32.6309 323.5,32.5C 319.864,31.6745 316.197,31.0078 312.5,30.5C 280.89,22.8859 248.89,21.5525 216.5,26.5C 162.946,33.8588 117.779,57.1922 81,96.5C 64.8989,115.36 55.3989,137.027 52.5,161.5C 54.2955,135.252 63.7955,112.252 81,92.5C 116.686,54.9051 160.186,31.9051 211.5,23.5C 216.37,23.3104 221.036,22.6437 225.5,21.5C 245.168,20.1842 264.834,20.1842 284.5,21.5 Z"
       id="path8" />
  </g>
  <g
     id="g9"
     style="fill:#5e75ff;fill-opacity:1">
    <path
       style="opacity:1;fill:#5e75ff;fill-opacity:1"
       fill="#55a0fe"
       d="M 312.5,30.5 C 316.197,31.0078 319.864,31.6745 323.5,32.5C 332.688,35.7299 342.021,38.8965 351.5,42C 376.934,52.03 399.268,66.53 418.5,85.5C 413.771,114.422 405.938,142.422 395,169.5C 394.479,162.339 392.479,155.672 389,149.5C 388.527,151.779 387.527,153.779 386,155.5C 384.728,150.235 381.894,146.068 377.5,143C 377.833,142.667 378.167,142.333 378.5,142C 375.099,137.203 370.765,134.203 365.5,133C 363.2,131.275 361.034,129.442 359,127.5C 358.536,128.094 358.369,128.761 358.5,129.5C 356.856,129.81 355.856,130.81 355.5,132.5C 341.48,121.177 325.813,118.344 308.5,124C 302.8,126.515 297.8,130.015 293.5,134.5C 292.508,130.217 292.174,125.884 292.5,121.5C 281.806,122.949 271.139,124.616 260.5,126.5C 260.5,128.167 260.5,129.833 260.5,131.5C 257.167,128.5 253.833,125.5 250.5,122.5C 243.687,121.509 236.687,121.175 229.5,121.5C 230.574,119.039 232.408,117.372 235,116.5C 239.317,116.627 243.65,116.627 248,116.5C 250.151,116.773 252.151,117.439 254,118.5C 255.68,117.397 257.18,117.73 258.5,119.5C 258.833,118.833 259.167,118.167 259.5,117.5C 260.503,119.542 261.837,119.875 263.5,118.5C 268.329,123.342 270.996,122.342 271.5,115.5C 276.041,115.669 276.374,115.002 272.5,113.5C 281.327,111.044 290.327,110.044 299.5,110.5C 307.51,84.4397 311.843,57.7731 312.5,30.5 Z"
       id="path9" />
  </g>
  <g
     id="g12"
     style="fill:#5e75ff;fill-opacity:1">
    <path
       style="opacity:1;fill:#5e75ff;fill-opacity:1"
       fill="#4f97f6"
       d="M 358.5,129.5 C 365.734,135.185 372.567,141.518 379,148.5C 381.39,153.003 383.39,157.669 385,162.5C 387.418,165.441 390.085,168.108 393,170.5C 393.537,173.093 394.37,175.593 395.5,178C 393.705,180.591 393.371,183.257 394.5,186C 393.551,194.1 392.717,202.267 392,210.5C 390.505,212.11 390.339,213.776 391.5,215.5C 390.398,221.371 388.398,227.371 385.5,233.5C 376.848,244.076 367.015,253.41 356,261.5C 354.16,260.167 353.66,260.334 354.5,262C 352.899,262.273 351.399,262.773 350,263.5C 349.086,262.346 348.253,262.513 347.5,264C 343.15,264.368 338.817,264.868 334.5,265.5C 332.962,265.327 331.462,264.994 330,264.5C 325.36,267.473 321.36,271.14 318,275.5C 317.853,278.571 317.02,281.404 315.5,284C 316.727,285.587 316.394,286.921 314.5,288C 314.833,289 315.167,290 315.5,291C 314.333,292.167 313.167,293.333 312,294.5C 311.383,295.449 311.549,296.282 312.5,297C 310.321,297.442 309.655,298.442 310.5,300C 309,301.5 307.5,303 306,304.5C 305.667,304.167 305.333,303.833 305,303.5C 303.352,306.553 301.018,307.553 298,306.5C 295.897,308.868 293.23,310.201 290,310.5C 287.88,309.541 285.713,309.374 283.5,310C 282.073,311.797 280.24,312.964 278,313.5C 271.573,312.998 265.906,310.331 261,305.5C 258.888,306.608 257.054,308.108 255.5,310C 249.096,312.276 242.096,314.943 234.5,318C 232.888,318.72 231.388,318.554 230,317.5C 224.658,321.663 219.492,326.663 214.5,332.5C 199.504,319.171 185.171,305.171 171.5,290.5C 190.249,300.537 209.916,301.704 230.5,294C 234.759,292.066 238.759,289.732 242.5,287C 248.73,280.938 254.73,274.771 260.5,268.5C 260.5,274.833 260.5,281.167 260.5,287.5C 260.285,289.179 260.952,290.179 262.5,290.5C 265.462,290.117 266.462,291.117 265.5,293.5C 266.313,294.814 267.313,295.981 268.5,297C 272.46,299.228 276.627,301.062 281,302.5C 294.51,303.83 303.676,298.163 308.5,285.5C 308.291,284.914 307.957,284.414 307.5,284C 309.147,279.873 310.147,275.54 310.5,271C 310.415,269.893 310.081,268.893 309.5,268C 311.037,265.72 312.203,263.22 313,260.5C 314.57,259.386 315.903,258.053 317,256.5C 360.181,262.216 383.347,242.883 386.5,198.5C 386.556,193.561 385.89,188.728 384.5,184C 385.628,182.532 386.294,180.865 386.5,179C 386.05,172.68 384.883,166.846 383,161.5C 378.818,157.092 374.651,152.759 370.5,148.5C 367.882,146.548 365.548,144.215 363.5,141.5C 362.893,141.624 362.56,141.957 362.5,142.5C 360.199,139.19 357.866,135.857 355.5,132.5C 355.856,130.81 356.856,129.81 358.5,129.5 Z"
       id="path12" />
  </g>
  <g
     id="g13"
     style="fill:#5e75ff;fill-opacity:1">
    <path
       style="opacity:1;fill:#5e75ff;fill-opacity:1"
       fill="#4c89e5"
       d="M 250.5,122.5 C 253.833,125.5 257.167,128.5 260.5,131.5C 260.5,177.167 260.5,222.833 260.5,268.5C 254.73,274.771 248.73,280.938 242.5,287C 238.759,289.732 234.759,292.066 230.5,294C 209.916,301.704 190.249,300.537 171.5,290.5C 168.861,288.527 166.527,286.194 164.5,283.5C 182.176,289.834 200.176,291 218.5,287C 231.249,283.082 239.916,274.915 244.5,262.5C 245.839,257.485 247.339,252.485 249,247.5C 249.498,244.183 249.665,240.85 249.5,237.5C 250.499,199.337 250.832,161.004 250.5,122.5 Z"
       id="path13" />
  </g>
  <g
     id="g14"
     style="fill:#5e75ff;fill-opacity:1">
    <path
       style="opacity:1;fill:#5e75ff;fill-opacity:1"
       fill="#5391ed"
       d="M 333.5,159.5 C 333.265,160.097 332.765,160.43 332,160.5C 327.638,158.886 323.305,158.22 319,158.5C 306.917,167.522 301.75,179.689 303.5,195C 303.31,199.194 303.977,203.194 305.5,207C 304.346,207.914 304.513,208.747 306,209.5C 306.333,209.167 306.667,208.833 307,208.5C 307.526,210.55 308.359,212.383 309.5,214C 308.906,214.464 308.239,214.631 307.5,214.5C 303.63,213.647 300.464,211.647 298,208.5C 295.545,204.469 293.879,200.136 293,195.5C 292.085,183.442 292.419,171.442 294,159.5C 301.072,144.88 311.906,141.38 326.5,149C 330.219,151.612 332.552,155.112 333.5,159.5 Z"
       id="path14" />
  </g>
  <g
     id="g15"
     style="fill:#5e75ff;fill-opacity:1">
    <path
       style="opacity:1;fill:#5e75ff;fill-opacity:1"
       fill="#4c92f1"
       d="M 370.5,148.5 C 374.651,152.759 378.818,157.092 383,161.5C 384.883,166.846 386.05,172.68 386.5,179C 386.294,180.865 385.628,182.532 384.5,184C 385.89,188.728 386.556,193.561 386.5,198.5C 383.347,242.883 360.181,262.216 317,256.5C 315.903,258.053 314.57,259.386 313,260.5C 312.203,263.22 311.037,265.72 309.5,268C 310.081,268.893 310.415,269.893 310.5,271C 310.147,275.54 309.147,279.873 307.5,284C 307.957,284.414 308.291,284.914 308.5,285.5C 303.676,298.163 294.51,303.83 281,302.5C 276.627,301.062 272.46,299.228 268.5,297C 267.313,295.981 266.313,294.814 265.5,293.5C 266.462,291.117 265.462,290.117 262.5,290.5C 266.948,289.035 271.615,288.535 276.5,289C 287.654,297.286 295.987,294.953 301.5,282C 301.432,278.322 301.099,274.655 300.5,271C 301.128,268.2 302.128,265.533 303.5,263C 302.685,258.09 304.352,253.924 308.5,250.5C 312.476,248.466 316.642,247.133 321,246.5C 338.692,253.602 354.358,249.602 368,234.5C 372.587,229.327 375.587,223.327 377,216.5C 376.972,206.979 377.305,197.312 378,187.5C 378.692,186.975 379.192,186.308 379.5,185.5C 378.167,182.167 378.167,178.833 379.5,175.5C 379.154,174.304 378.654,174.304 378,175.5C 377.231,172.901 377.398,170.401 378.5,168C 377.833,166.667 377.167,165.333 376.5,164C 376.616,162.732 376.949,161.398 377.5,160C 376.54,158.581 375.707,157.081 375,155.5C 374.667,155.833 374.333,156.167 374,156.5C 372.711,153.832 371.544,151.165 370.5,148.5 Z"
       id="path15" />
  </g>
  <g
     id="g16"
     style="fill:#5e75ff;fill-opacity:1">
    <path
       style="opacity:1;fill:#5e75ff;fill-opacity:1"
       fill="#5695ed"
       d="M 216.5,160.5 C 203.628,157.637 194.461,162.304 189,174.5C 185.196,188.169 186.029,201.502 191.5,214.5C 183.152,211.849 177.986,206.183 176,197.5C 175.08,184.776 175.414,172.11 177,159.5C 184.131,146.012 194.631,142.512 208.5,149C 212.582,151.905 215.249,155.738 216.5,160.5 Z"
       id="path16" />
  </g>
  <g
     id="g17"
     style="fill:#5e75ff;fill-opacity:1">
    <path
       style="opacity:1;fill:#5e75ff;fill-opacity:1"
       fill="#5aa3fe"
       d="M 143.5,155.5 C 143.333,172.17 143.5,188.837 144,205.5C 144.993,208.474 145.826,211.474 146.5,214.5C 147.992,220.481 150.825,225.814 155,230.5C 159.479,233.976 163.979,237.31 168.5,240.5C 173.5,245.833 178.5,251.167 183.5,256.5C 175.784,253.807 168.784,249.807 162.5,244.5C 161.285,251.661 159.952,258.661 158.5,265.5C 158.103,264.475 157.437,264.308 156.5,265C 154.68,265.979 153.513,267.479 153,269.5C 151.935,277.865 152.769,286.032 155.5,294C 140.582,302.12 124.915,308.62 108.5,313.5C 90.5707,280.355 75.5707,246.022 63.5,210.5C 90.1643,204.788 114.331,193.788 136,177.5C 136.213,171.361 137.213,165.361 139,159.5C 140.371,157.959 141.871,156.625 143.5,155.5 Z"
       id="path17" />
  </g>
  <g
     id="g18"
     style="fill:#5e75ff;fill-opacity:1">
    <path
       style="opacity:1;fill:#5e75ff;fill-opacity:1"
       fill="#5ba0fa"
       d="M 216.5,160.5 C 218.058,166.922 218.724,173.589 218.5,180.5C 219.722,190.203 217.889,199.203 213,207.5C 207.148,213.951 199.981,216.284 191.5,214.5C 186.029,201.502 185.196,188.169 189,174.5C 194.461,162.304 203.628,157.637 216.5,160.5 Z"
       id="path18" />
  </g>
  <g
     id="g19"
     style="fill:#5e75ff;fill-opacity:1">
    <path
       style="opacity:1;fill:#5e75ff;fill-opacity:1"
       fill="#549cfa"
       d="M 333.5,159.5 C 334.268,160.263 334.768,161.263 335,162.5C 335.667,173.833 335.667,185.167 335,196.5C 331.414,211.201 322.248,217.201 307.5,214.5C 308.239,214.631 308.906,214.464 309.5,214C 308.359,212.383 307.526,210.55 307,208.5C 306.667,208.833 306.333,209.167 306,209.5C 304.513,208.747 304.346,207.914 305.5,207C 303.977,203.194 303.31,199.194 303.5,195C 301.75,179.689 306.917,167.522 319,158.5C 323.305,158.22 327.638,158.886 332,160.5C 332.765,160.43 333.265,160.097 333.5,159.5 Z"
       id="path19" />
  </g>
  <g
     id="g21"
     style="fill:#5e75ff;fill-opacity:1">
    <path
       style="opacity:1;fill:#5e75ff;fill-opacity:1"
       fill="#4a8be9"
       d="M 370.5,148.5 C 371.544,151.165 372.711,153.832 374,156.5C 374.333,156.167 374.667,155.833 375,155.5C 375.707,157.081 376.54,158.581 377.5,160C 376.949,161.398 376.616,162.732 376.5,164C 377.167,165.333 377.833,166.667 378.5,168C 377.398,170.401 377.231,172.901 378,175.5C 378.654,174.304 379.154,174.304 379.5,175.5C 378.167,178.833 378.167,182.167 379.5,185.5C 379.192,186.308 378.692,186.975 378,187.5C 377.305,197.312 376.972,206.979 377,216.5C 375.587,223.327 372.587,229.327 368,234.5C 354.358,249.602 338.692,253.602 321,246.5C 316.642,247.133 312.476,248.466 308.5,250.5C 304.352,253.924 302.685,258.09 303.5,263C 302.128,265.533 301.128,268.2 300.5,271C 301.099,274.655 301.432,278.322 301.5,282C 295.987,294.953 287.654,297.286 276.5,289C 271.615,288.535 266.948,289.035 262.5,290.5C 260.952,290.179 260.285,289.179 260.5,287.5C 271.165,286.167 281.832,284.834 292.5,283.5C 293.497,266.008 293.83,248.341 293.5,230.5C 312.324,246.344 331.991,247.511 352.5,234C 359.031,228.096 363.364,220.929 365.5,212.5C 366.105,209.873 366.605,207.207 367,204.5C 367.667,187.833 367.667,171.167 367,154.5C 365.762,150.365 364.262,146.365 362.5,142.5C 362.56,141.957 362.893,141.624 363.5,141.5C 365.548,144.215 367.882,146.548 370.5,148.5 Z"
       id="path21" />
  </g>
  <g
     id="g22"
     style="fill:#5e75ff;fill-opacity:1">
    <path
       style="opacity:1;fill:#5e75ff;fill-opacity:1"
       fill="#4e9cfe"
       d="M 418.5,85.5 C 441.331,105.829 454.664,131.162 458.5,161.5C 458.68,172.582 457.014,183.249 453.5,193.5C 424.214,282.416 381.047,363.749 324,437.5C 312.129,452.371 298.629,465.538 283.5,477C 275.204,482.903 266.037,486.403 256,487.5C 247.084,486.861 238.917,484.028 231.5,479C 209.626,462.793 190.793,443.626 175,421.5C 169.318,414.121 164.151,406.455 159.5,398.5C 187.922,388.789 214.589,375.622 239.5,359C 230.697,350.601 222.363,341.768 214.5,332.5C 219.492,326.663 224.658,321.663 230,317.5C 231.388,318.554 232.888,318.72 234.5,318C 242.096,314.943 249.096,312.276 255.5,310C 257.054,308.108 258.888,306.608 261,305.5C 265.906,310.331 271.573,312.998 278,313.5C 280.24,312.964 282.073,311.797 283.5,310C 285.713,309.374 287.88,309.541 290,310.5C 293.23,310.201 295.897,308.868 298,306.5C 301.018,307.553 303.352,306.553 305,303.5C 305.333,303.833 305.667,304.167 306,304.5C 307.5,303 309,301.5 310.5,300C 309.655,298.442 310.321,297.442 312.5,297C 311.549,296.282 311.383,295.449 312,294.5C 313.167,293.333 314.333,292.167 315.5,291C 315.167,290 314.833,289 314.5,288C 316.394,286.921 316.727,285.587 315.5,284C 317.02,281.404 317.853,278.571 318,275.5C 321.36,271.14 325.36,267.473 330,264.5C 331.462,264.994 332.962,265.327 334.5,265.5C 338.817,264.868 343.15,264.368 347.5,264C 348.253,262.513 349.086,262.346 350,263.5C 351.399,262.773 352.899,262.273 354.5,262C 353.66,260.334 354.16,260.167 356,261.5C 367.015,253.41 376.848,244.076 385.5,233.5C 388.398,227.371 390.398,221.371 391.5,215.5C 390.339,213.776 390.505,212.11 392,210.5C 392.717,202.267 393.551,194.1 394.5,186C 393.371,183.257 393.705,180.591 395.5,178C 394.37,175.593 393.537,173.093 393,170.5C 390.085,168.108 387.418,165.441 385,162.5C 383.39,157.669 381.39,153.003 379,148.5C 372.567,141.518 365.734,135.185 358.5,129.5C 358.369,128.761 358.536,128.094 359,127.5C 361.034,129.442 363.2,131.275 365.5,133C 370.765,134.203 375.099,137.203 378.5,142C 378.167,142.333 377.833,142.667 377.5,143C 381.894,146.068 384.728,150.235 386,155.5C 387.527,153.779 388.527,151.779 389,149.5C 392.479,155.672 394.479,162.339 395,169.5C 405.938,142.422 413.771,114.422 418.5,85.5 Z"
       id="path22" />
  </g>
  <g
     id="g23"
     style="fill:#5e75ff;fill-opacity:1">
    <path
       style="opacity:0.996;fill:#5e75ff;fill-opacity:1"
       fill="#4482cd"
       d="M 57.5,193.5 C 59.7282,198.983 61.7282,204.65 63.5,210.5C 75.5707,246.022 90.5707,280.355 108.5,313.5C 123.237,343.328 140.237,371.662 159.5,398.5C 164.151,406.455 169.318,414.121 175,421.5C 190.793,443.626 209.626,462.793 231.5,479C 238.917,484.028 247.084,486.861 256,487.5C 266.037,486.403 275.204,482.903 283.5,477C 298.629,465.538 312.129,452.371 324,437.5C 381.047,363.749 424.214,282.416 453.5,193.5C 451.255,204.74 448.088,215.74 444,226.5C 422.525,283.117 395.525,336.784 363,387.5C 343.956,418.564 321.123,446.73 294.5,472C 287.373,477.787 279.707,482.787 271.5,487C 257.833,492.538 244.833,491.204 232.5,483C 217.158,472.997 203.658,460.83 192,446.5C 140.345,381.371 99.345,309.704 69,231.5C 64.0493,219.15 60.216,206.483 57.5,193.5 Z"
       id="path23" />
  </g>
  <g
     id="g24"
     style="fill:#5e75ff;fill-opacity:1">
    <path
       style="opacity:1;fill:#5e75ff;fill-opacity:1"
       fill="#4779d3"
       d="M 244.5,262.5 C 239.916,274.915 231.249,283.082 218.5,287C 200.176,291 182.176,289.834 164.5,283.5C 163.063,282.275 161.396,281.275 159.5,280.5C 158.227,279.743 158.227,279.077 159.5,278.5C 175.751,285.763 192.751,288.263 210.5,286C 224.836,284.144 235.502,276.977 242.5,264.5C 242.833,263.5 243.5,262.833 244.5,262.5 Z"
       id="path24" />
  </g>
  <g
     id="g25"
     style="fill:#5e75ff;fill-opacity:1">
    <path
       style="opacity:1;fill:#5e75ff;fill-opacity:1"
       fill="#d4d8de"
       d="M 242.5,264.5 C 235.502,276.977 224.836,284.144 210.5,286C 192.751,288.263 175.751,285.763 159.5,278.5C 157.49,276.683 157.157,274.683 158.5,272.5C 159.626,274.453 161.292,275.953 163.5,277C 178.936,283.085 194.936,285.085 211.5,283C 216.768,282.133 221.768,280.466 226.5,278C 232.362,273.959 237.695,269.459 242.5,264.5 Z"
       id="path25" />
  </g>
  <g
     id="g26"
     style="fill:#5e75ff;fill-opacity:1">
    <path
       style="opacity:1;fill:#5e75ff;fill-opacity:1"
       fill="#54a0fe"
       d="M 158.5,265.5 C 158.5,267.833 158.5,270.167 158.5,272.5C 157.157,274.683 157.49,276.683 159.5,278.5C 158.227,279.077 158.227,279.743 159.5,280.5C 161.396,281.275 163.063,282.275 164.5,283.5C 166.527,286.194 168.861,288.527 171.5,290.5C 185.171,305.171 199.504,319.171 214.5,332.5C 222.363,341.768 230.697,350.601 239.5,359C 214.589,375.622 187.922,388.789 159.5,398.5C 140.237,371.662 123.237,343.328 108.5,313.5C 124.915,308.62 140.582,302.12 155.5,294C 152.769,286.032 151.935,277.865 153,269.5C 153.513,267.479 154.68,265.979 156.5,265C 157.437,264.308 158.103,264.475 158.5,265.5 Z"
       id="path26" />
  </g>
  <g
     id="g27"
     style="fill:#5e75ff;fill-opacity:1">
    <path
       style="opacity:1;fill:#5e75ff;fill-opacity:1"
       fill="#4e8de8"
       d="M 168.5,240.5 C 172.872,240.936 176.706,242.603 180,245.5C 182.147,244.524 184.314,244.691 186.5,246C 186.167,246.333 185.833,246.667 185.5,247C 187.581,247.869 189.747,248.369 192,248.5C 200.173,245.393 208.673,243.393 217.5,242.5C 217.5,243.167 217.5,243.833 217.5,244.5C 217.071,250.754 214.071,255.254 208.5,258C 200.856,259.914 193.19,259.914 185.5,258C 184.584,257.722 183.918,257.222 183.5,256.5C 178.5,251.167 173.5,245.833 168.5,240.5 Z"
       id="path27" />
  </g>
  <g
     id="g28"
     style="fill:#5e75ff;fill-opacity:1">
    <path
       style="opacity:1;fill:#5e75ff;fill-opacity:1"
       fill="#4679d5"
       d="M 364.5,212.5 C 364.833,212.5 365.167,212.5 365.5,212.5C 363.364,220.929 359.031,228.096 352.5,234C 331.991,247.511 312.324,246.344 293.5,230.5C 293.351,229.448 293.517,228.448 294,227.5C 307.298,240.365 322.798,243.865 340.5,238C 352.485,233.183 360.485,224.683 364.5,212.5 Z"
       id="path28" />
  </g>
  <g
     id="g29"
     style="fill:#5e75ff;fill-opacity:1">
    <path
       style="opacity:1;fill:#5e75ff;fill-opacity:1"
       fill="#4b84df"
       d="M 146.5,214.5 C 147.338,214.842 147.672,215.508 147.5,216.5C 160.044,238.408 178.377,245.241 202.5,237C 208.129,234.602 212.963,231.102 217,226.5C 217.499,231.823 217.666,237.156 217.5,242.5C 208.673,243.393 200.173,245.393 192,248.5C 189.747,248.369 187.581,247.869 185.5,247C 185.833,246.667 186.167,246.333 186.5,246C 184.314,244.691 182.147,244.524 180,245.5C 176.706,242.603 172.872,240.936 168.5,240.5C 163.979,237.31 159.479,233.976 155,230.5C 150.825,225.814 147.992,220.481 146.5,214.5 Z"
       id="path29" />
  </g>
  <g
     id="g30"
     style="fill:#5e75ff;fill-opacity:1">
    <path
       style="opacity:1;fill:#5e75ff;fill-opacity:1"
       fill="#d6dbe3"
       d="M 147.5,216.5 C 148.675,216.281 149.675,216.614 150.5,217.5C 153.258,223.092 157.258,227.592 162.5,231C 182.497,241.624 200.663,239.124 217,223.5C 218.093,227.216 218.593,231.05 218.5,235C 218.498,238.352 218.165,241.518 217.5,244.5C 217.5,243.833 217.5,243.167 217.5,242.5C 217.666,237.156 217.499,231.823 217,226.5C 212.963,231.102 208.129,234.602 202.5,237C 178.377,245.241 160.044,238.408 147.5,216.5 Z"
       id="path30" />
  </g>
  <g
     id="g31"
     style="fill:#5e75ff;fill-opacity:1">
    <path
       style="opacity:1;fill:#5e75ff;fill-opacity:1"
       fill="#d0d6e3"
       d="M 364.5,212.5 C 360.485,224.683 352.485,233.183 340.5,238C 322.798,243.865 307.298,240.365 294,227.5C 293.517,228.448 293.351,229.448 293.5,230.5C 293.83,248.341 293.497,266.008 292.5,283.5C 292.024,263.741 292.524,244.074 294,224.5C 297.167,227 300.333,229.5 303.5,232C 329.891,243.78 350.224,237.28 364.5,212.5 Z"
       id="path31" />
  </g>
</svg>
