<?xml version="1.0"?><svg xmlns="http://www.w3.org/2000/svg"  viewBox="0 0 50 50" width="50px" height="50px">    <path d="M 25.140625 2 C 24.380625 2 23.670625 2.2998437 23.140625 2.8398438 L 17.289062 8.7695312 C 17.099063 8.9495313 17 9.2107031 17 9.4707031 L 17 30.160156 C 17 30.560156 17.249141 30.930078 17.619141 31.080078 C 17.739141 31.130078 17.87 31.160156 18 31.160156 C 18.26 31.160156 18.520937 31.049375 18.710938 30.859375 L 36.060547 13.279297 C 36.440547 12.889297 36.440547 12.270859 36.060547 11.880859 L 27.130859 2.8398438 C 26.600859 2.2998437 25.890625 2 25.140625 2 z M 11.121094 15.8125 C 10.834687 15.777344 10.537812 15.867813 10.320312 16.070312 L 2.9003906 22.960938 C 2.3203906 23.500937 2 24.22 2 25 C 2 25.77 2.3203906 26.489297 2.9003906 27.029297 L 10.320312 33.929688 C 10.510312 34.099688 10.75 34.199219 11 34.199219 C 11.14 34.199219 11.270391 34.169375 11.400391 34.109375 C 11.760391 33.949375 12 33.589219 12 33.199219 L 12 16.800781 C 12 16.400781 11.760391 16.040625 11.400391 15.890625 C 11.310391 15.850625 11.216563 15.824219 11.121094 15.8125 z M 40.59375 16.775391 C 40.3325 16.775391 40.070859 16.870547 39.880859 17.060547 L 31.289062 25.740234 C 30.899062 26.130234 30.899062 26.760391 31.289062 27.150391 L 38.449219 34.380859 C 38.639219 34.570859 38.900156 34.679688 39.160156 34.679688 C 39.430156 34.679688 39.679141 34.570859 39.869141 34.380859 L 47.179688 27.009766 C 47.719687 26.459766 48 25.73 48 25 C 48 24.27 47.719687 23.540234 47.179688 22.990234 L 41.300781 17.060547 C 41.115781 16.870547 40.855 16.775391 40.59375 16.775391 z M 26.826172 30.634766 C 26.564922 30.634766 26.304141 30.729922 26.119141 30.919922 L 17.289062 39.830078 C 16.899062 40.220078 16.899062 40.840469 17.289062 41.230469 L 23.169922 47.169922 C 23.709922 47.699922 24.419922 48 25.169922 48 C 25.929922 48 26.639922 47.699922 27.169922 47.169922 L 34.710938 39.570312 C 35.100938 39.180312 35.100937 38.550156 34.710938 38.160156 L 27.539062 30.919922 C 27.349062 30.729922 27.087422 30.634766 26.826172 30.634766 z"/></svg>