<?xml version="1.0" encoding="UTF-8"?>
<!DOCTYPE svg PUBLIC "-//W3C//DTD SVG 1.1//EN" "http://www.w3.org/Graphics/SVG/1.1/DTD/svg11.dtd">
<svg xmlns="http://www.w3.org/2000/svg" version="1.1" width="3072px" height="3072px" style="shape-rendering:geometricPrecision; text-rendering:geometricPrecision; image-rendering:optimizeQuality; fill-rule:evenodd; clip-rule:evenodd" xmlns:xlink="http://www.w3.org/1999/xlink">
<g><path style="opacity:1" fill="#fefefe" d="M -0.5,-0.5 C 494.5,-0.5 989.5,-0.5 1484.5,-0.5C 1101.32,17.0906 768.989,154.591 487.5,412C 241.292,645.17 86.4583,929.337 23,1264.5C 10.1377,1339.13 2.30436,1414.13 -0.5,1489.5C -0.5,992.833 -0.5,496.167 -0.5,-0.5 Z"/></g>
<g><path style="opacity:1" fill="#1a70b8" d="M 1484.5,-0.5 C 1516.83,-0.5 1549.17,-0.5 1581.5,-0.5C 1946.72,14.3882 2267.39,139.888 2543.5,376C 2774.42,579.516 2932.26,830.016 3017,1127.5C 3049.02,1244.79 3067.18,1364.13 3071.5,1485.5C 3071.5,1517.5 3071.5,1549.5 3071.5,1581.5C 3056.95,1939.79 2935.45,2255.79 2707,2529.5C 2498.26,2772.21 2238.76,2936.04 1928.5,3021C 1813.21,3050.49 1696.21,3067.33 1577.5,3071.5C 1552.83,3071.5 1528.17,3071.5 1503.5,3071.5C 1164.93,3061.94 861.931,2954.77 594.5,2750C 323.507,2536.46 142.007,2262.62 50,1928.5C 19.472,1809.64 2.6387,1688.97 -0.5,1566.5C -0.5,1540.83 -0.5,1515.17 -0.5,1489.5C 2.30436,1414.13 10.1377,1339.13 23,1264.5C 86.4583,929.337 241.292,645.17 487.5,412C 768.989,154.591 1101.32,17.0906 1484.5,-0.5 Z"/></g>
<g><path style="opacity:1" fill="#fefefe" d="M 1581.5,-0.5 C 2078.17,-0.5 2574.83,-0.5 3071.5,-0.5C 3071.5,494.833 3071.5,990.167 3071.5,1485.5C 3067.18,1364.13 3049.02,1244.79 3017,1127.5C 2932.26,830.016 2774.42,579.516 2543.5,376C 2267.39,139.888 1946.72,14.3882 1581.5,-0.5 Z"/></g>
<g><path style="opacity:1" fill="#fefefe" d="M 2102.5,585.5 C 2202.35,580.958 2292.02,608.458 2371.5,668C 2466.15,745.803 2516.99,846.303 2524,969.5C 2525.94,988.609 2523.94,1007.28 2518,1025.5C 2503.52,1055.16 2479.69,1068.33 2446.5,1065C 2417.91,1058.08 2400.41,1040.24 2394,1011.5C 2395.45,932.499 2371.12,862.832 2321,802.5C 2261.96,739.582 2189.12,711.415 2102.5,718C 2012.65,728.478 1945.15,772.645 1900,850.5C 1873.05,900.713 1860.05,954.38 1861,1011.5C 1850.82,1050.33 1825.65,1068.17 1785.5,1065C 1753.59,1056.41 1735.76,1035.58 1732,1002.5C 1728.96,869.454 1777.46,759.62 1877.5,673C 1943.3,620.56 2018.3,591.394 2102.5,585.5 Z"/></g>
<g><path style="opacity:1" fill="#fefefe" d="M 2127.5,908.5 C 2174.98,905.642 2207.15,926.309 2224,970.5C 2233.58,1014.45 2219.42,1048.29 2181.5,1072C 2140.21,1090.47 2104.04,1083.3 2073,1050.5C 2050.25,1019.13 2047.59,986.13 2065,951.5C 2079.78,928.359 2100.62,914.026 2127.5,908.5 Z"/></g>
<g><path style="opacity:1" fill="#fefefe" d="M 1482.5,1167.5 C 1568.48,1162.9 1646.81,1184.73 1717.5,1233C 1785.84,1284.75 1831.34,1352.25 1854,1435.5C 1864.09,1471.47 1870.09,1508.13 1872,1545.5C 1874.16,1627.5 1876.16,1709.5 1878,1791.5C 1878.49,1854.46 1893.82,1913.46 1924,1968.5C 1958.51,2023.7 2007.34,2059.87 2070.5,2077C 2154.46,2096.73 2230.8,2080.73 2299.5,2029C 2345.69,1990.17 2375.19,1941.01 2388,1881.5C 2392.49,1859.37 2395.49,1837.04 2397,1814.5C 2397.33,1633.5 2397.67,1452.5 2398,1271.5C 2401.83,1248.66 2414.33,1232.5 2435.5,1223C 2461.28,1213.78 2485.28,1217.12 2507.5,1233C 2519.53,1243.88 2526.69,1257.38 2529,1273.5C 2529.67,1452.5 2529.67,1631.5 2529,1810.5C 2526.64,1884.62 2508.64,1954.62 2475,2020.5C 2416.71,2122.29 2329.88,2185.45 2214.5,2210C 2105.37,2229.51 2004.7,2208.84 1912.5,2148C 1842.26,2096.76 1794.76,2029.26 1770,1945.5C 1756.75,1900.83 1749.09,1855.17 1747,1808.5C 1744.75,1723.17 1742.75,1637.84 1741,1552.5C 1739.9,1509.58 1730.57,1468.58 1713,1429.5C 1681.46,1368.45 1631.96,1330.61 1564.5,1316C 1465.76,1296.46 1385.26,1325.96 1323,1404.5C 1292.32,1448.19 1275.32,1496.86 1272,1550.5C 1271.67,1753.83 1271.33,1957.17 1271,2160.5C 1263.48,2196.52 1241.31,2215.52 1204.5,2217.5C 1168.32,2214.49 1146.82,2195.16 1140,2159.5C 1139.67,1956.83 1139.33,1754.17 1139,1551.5C 1134.57,1470.14 1100.74,1404.3 1037.5,1354C 980.82,1314.04 918.32,1300.88 850,1314.5C 786.707,1327.29 739.707,1361.96 709,1418.5C 693.322,1449.87 682.656,1482.87 677,1517.5C 672.853,1544.01 670.52,1570.67 670,1597.5C 669.667,1785.5 669.333,1973.5 669,2161.5C 662.5,2192 644,2210.5 613.5,2217C 580.626,2219.65 557.126,2206.15 543,2176.5C 541.198,2171.63 539.865,2166.63 539,2161.5C 538.029,1959.16 538.362,1756.83 540,1554.5C 544.186,1495.76 557.186,1439.1 579,1384.5C 636.043,1258.5 733.876,1190 872.5,1179C 966.946,1173.86 1053.28,1197.52 1131.5,1250C 1159.56,1269.89 1184.22,1293.39 1205.5,1320.5C 1265.38,1246.03 1342.04,1197.53 1435.5,1175C 1451.19,1171.75 1466.86,1169.25 1482.5,1167.5 Z"/></g>
<g><path style="opacity:1" fill="#fefefe" d="M 3071.5,1581.5 C 3071.5,2078.17 3071.5,2574.83 3071.5,3071.5C 2573.5,3071.5 2075.5,3071.5 1577.5,3071.5C 1696.21,3067.33 1813.21,3050.49 1928.5,3021C 2238.76,2936.04 2498.26,2772.21 2707,2529.5C 2935.45,2255.79 3056.95,1939.79 3071.5,1581.5 Z"/></g>
<g><path style="opacity:1" fill="#fefefe" d="M -0.5,1566.5 C 2.6387,1688.97 19.472,1809.64 50,1928.5C 142.007,2262.62 323.507,2536.46 594.5,2750C 861.931,2954.77 1164.93,3061.94 1503.5,3071.5C 1002.17,3071.5 500.833,3071.5 -0.5,3071.5C -0.5,2569.83 -0.5,2068.17 -0.5,1566.5 Z"/></g>
</svg>
