<?xml version="1.0" encoding="UTF-8"?>
<!DOCTYPE svg PUBLIC "-//W3C//DTD SVG 1.1//EN" "http://www.w3.org/Graphics/SVG/1.1/DTD/svg11.dtd">
<svg xmlns="http://www.w3.org/2000/svg" version="1.1" width="225px" height="225px" style="shape-rendering:geometricPrecision; text-rendering:geometricPrecision; image-rendering:optimizeQuality; fill-rule:evenodd; clip-rule:evenodd" xmlns:xlink="http://www.w3.org/1999/xlink">
<g><path style="opacity:1" fill="#fdfefd" d="M -0.5,-0.5 C 74.5,-0.5 149.5,-0.5 224.5,-0.5C 224.5,74.5 224.5,149.5 224.5,224.5C 149.5,224.5 74.5,224.5 -0.5,224.5C -0.5,149.5 -0.5,74.5 -0.5,-0.5 Z"/></g>
<g><path style="opacity:1" fill="#61a83a" d="M 217.5,122.5 C 215.625,127.206 214.625,132.206 214.5,137.5C 197.696,186.012 163.529,211.678 112,214.5C 58.3325,211.774 23.8325,184.774 8.5,133.5C 8.57968,130.219 7.91301,127.219 6.5,124.5C 2.29258,73.0669 22.9592,35.5669 68.5,12C 116.361,-5.82457 157.861,3.67543 193,40.5C 212.144,64.4417 220.311,91.775 217.5,122.5 Z"/></g>
<g><path style="opacity:1" fill="#fefefd" d="M 102.5,12.5 C 149.728,11.678 182.894,32.678 202,75.5C 214.233,116.07 205.399,151.236 175.5,181C 148.676,202.977 118.343,209.644 84.5,201C 37.0952,183.381 14.2619,149.214 16,98.5C 22.9884,56.848 46.4884,29.348 86.5,16C 91.9539,14.7451 97.2872,13.5784 102.5,12.5 Z"/></g>
<g><path style="opacity:1" fill="#a87c50" d="M 182.5,64.5 C 182.376,70.5699 179.71,75.4032 174.5,79C 159.418,88.5415 143.752,97.0415 127.5,104.5C 124.925,101.681 122.592,98.681 120.5,95.5C 133.312,84.864 146.312,74.364 159.5,64C 163.746,61.4578 168.246,59.6245 173,58.5C 177.337,58.6747 180.504,60.6747 182.5,64.5 Z"/></g>
<g><path style="opacity:1" fill="#f3ede8" d="M 167.5,65.5 C 168.833,65.5 170.167,65.5 171.5,65.5C 171.5,66.8333 171.5,68.1667 171.5,69.5C 167.56,70.234 166.227,68.9007 167.5,65.5 Z"/></g>
<g><path style="opacity:1" fill="#f9f7f5" d="M 151.5,76.5 C 154.166,76.0658 155.333,77.0658 155,79.5C 151.403,81.0661 150.237,80.0661 151.5,76.5 Z"/></g>
<g><path style="opacity:1" fill="#784f2c" d="M 182.5,64.5 C 183.783,67.843 183.616,71.1763 182,74.5C 179.833,76.6667 177.667,78.8333 175.5,81C 160.301,89.7658 144.967,98.2658 129.5,106.5C 128.833,106.167 128.167,105.833 127.5,105.5C 127.5,105.167 127.5,104.833 127.5,104.5C 143.752,97.0415 159.418,88.5415 174.5,79C 179.71,75.4032 182.376,70.5699 182.5,64.5 Z"/></g>
<g><path style="opacity:1" fill="#f5f0ec" d="M 134.5,87.5 C 136.665,87.1159 138.332,87.7826 139.5,89.5C 138.332,91.2174 136.665,91.8841 134.5,91.5C 134.5,90.1667 134.5,88.8333 134.5,87.5 Z"/></g>
<g><path style="opacity:1" fill="#d0d2d3" d="M 120.5,95.5 C 122.592,98.681 124.925,101.681 127.5,104.5C 127.5,104.833 127.5,105.167 127.5,105.5C 125.308,111.564 122.808,117.564 120,123.5C 113.376,132.623 106.209,141.29 98.5,149.5C 95.5726,150.757 93.2393,152.757 91.5,155.5C 87.2043,160.8 81.871,164.3 75.5,166C 65.2907,150.414 54.9574,134.914 44.5,119.5C 54.4524,112.191 65.4524,107.025 77.5,104C 91.6277,100.074 105.961,97.2411 120.5,95.5 Z"/></g>
<g><path style="opacity:1" fill="#616264" d="M 127.5,105.5 C 128.167,105.833 128.833,106.167 129.5,106.5C 123.813,124.218 113.479,138.551 98.5,149.5C 106.209,141.29 113.376,132.623 120,123.5C 122.808,117.564 125.308,111.564 127.5,105.5 Z"/></g>
<g><path style="opacity:1" fill="#39804b" d="M 217.5,122.5 C 217.261,127.769 216.261,132.769 214.5,137.5C 214.625,132.206 215.625,127.206 217.5,122.5 Z"/></g>
<g><path style="opacity:1" fill="#297741" d="M 6.5,124.5 C 7.91301,127.219 8.57968,130.219 8.5,133.5C 6.88195,130.829 6.21528,127.829 6.5,124.5 Z"/></g>
<g><path style="opacity:1" fill="#116b3b" d="M 8.5,133.5 C 23.8325,184.774 58.3325,211.774 112,214.5C 163.529,211.678 197.696,186.012 214.5,137.5C 204.82,178.349 179.82,204.849 139.5,217C 89.2949,227.385 49.7949,211.552 21,169.5C 14.3269,158.312 10.1603,146.312 8.5,133.5 Z"/></g>
<g><path style="opacity:1" fill="#7a7b7d" d="M 98.5,149.5 C 96.7607,152.243 94.4274,154.243 91.5,155.5C 93.2393,152.757 95.5726,150.757 98.5,149.5 Z"/></g>
</svg>
