<?xml version="1.0" encoding="UTF-8" standalone="no"?>
<svg
   version="1.1"
   width="511.99997"
   height="512"
   style="clip-rule:evenodd;fill-rule:evenodd;image-rendering:optimizeQuality;shape-rendering:geometricPrecision;text-rendering:geometricPrecision"
   id="svg31"
   xmlns:xlink="http://www.w3.org/1999/xlink"
   xmlns="http://www.w3.org/2000/svg"
   xmlns:svg="http://www.w3.org/2000/svg">
  <defs
     id="defs31">
    <linearGradient
       id="linearGradient3">
      <stop
         style="stop-color:#c51a9b;stop-opacity:1;"
         offset="0"
         id="stop3" />
      <stop
         style="stop-color:#620046;stop-opacity:0;"
         offset="1"
         id="stop4" />
    </linearGradient>
    <linearGradient
       id="linearGradient31-1">
      <stop
         style="stop-color:#d70093;stop-opacity:1;"
         offset="0"
         id="stop35" />
      <stop
         style="stop-color:#6500d7;stop-opacity:1;"
         offset="0.90025574"
         id="stop36" />
    </linearGradient>
    <linearGradient
       xlink:href="#linearGradient31-1"
       id="linearGradient32"
       x1="323"
       y1="118.5"
       x2="169.11557"
       y2="380.5"
       gradientUnits="userSpaceOnUse" />
    <linearGradient
       xlink:href="#linearGradient3"
       id="linearGradient4"
       x1="307.81"
       y1="172.02731"
       x2="296.05441"
       y2="232.19955"
       gradientUnits="userSpaceOnUse" />
  </defs>
  <ellipse
     style="clip-rule:evenodd;fill:url(#linearGradient32);fill-opacity:1;fill-rule:evenodd;stroke-width:1;image-rendering:optimizeQuality;shape-rendering:geometricPrecision;text-rendering:geometricPrecision"
     id="path31"
     cx="255.99998"
     cy="256"
     rx="255.99998"
     ry="256" />
  <g
     id="g28"
     style="clip-rule:evenodd;fill-rule:evenodd;image-rendering:optimizeQuality;shape-rendering:geometricPrecision;text-rendering:geometricPrecision">
    <path
       style="opacity:0.994"
       fill="#fefefe"
       d="m 279.5,433.5 c -3.84,11.347 -8.506,22.347 -14,33 -8.22,16.438 -18.887,31.105 -32,44 -50.158,-3.819 -94.824,-21.152 -134,-52 16.204,-1.958 31.871,-5.958 47,-12 13.393,-5.684 25.393,-13.351 36,-23 3.936,-2.266 7.269,-5.266 10,-9 7.088,-5.543 12.755,-12.21 17,-20 3.696,-4.37 7.03,-9.037 10,-14 22.333,7.333 44.667,14.667 67,22 -1.175,10.388 -3.509,20.721 -7,31 z"
       id="path28" />
  </g>
  <g
     id="g9"
     style="clip-rule:evenodd;fill-rule:evenodd;image-rendering:optimizeQuality;shape-rendering:geometricPrecision;text-rendering:geometricPrecision">
    <path
       style="opacity:1"
       fill="#fefcfe"
       d="m 167.5,144.5 c -16.444,5.442 -25.444,16.775 -27,34 -1.632,-1.57 -2.966,-3.903 -4,-7 -1.214,-3.43 -2.714,-6.764 -4.5,-10 -8.226,-10.873 -19.059,-17.873 -32.5,-21 11.562,-1.613 21.229,-6.613 29,-15 6.512,-7.708 10.345,-16.708 11.5,-27 2.946,23.111 15.779,37.111 38.5,42 -3.69,1.34 -7.356,2.674 -11,4 z"
       id="path9" />
  </g>
  <g
     id="g10"
     style="clip-rule:evenodd;fill-rule:evenodd;image-rendering:optimizeQuality;shape-rendering:geometricPrecision;text-rendering:geometricPrecision">
    <path
       style="opacity:1"
       fill="#fefefe"
       d="m 344.5,147.5 c 6.601,10.872 11.268,22.539 14,35 0.99,4.272 1.656,8.606 2,13 0.774,16.462 -1.559,32.462 -7,48 -1.67,2.383 -3.004,5.049 -4,8 12.273,14.548 20.273,31.215 24,50 2.11,8.539 3.443,17.205 4,26 0,3.667 0,7.333 0,11 -7.337,-1.335 -14.671,-2.668 -22,-4 -11.948,-3.362 -24.114,-6.362 -36.5,-9 -1.326,0.255 -2.326,0.922 -3,2 -2.47,7.078 -5.137,14.078 -8,21 -1.828,1.252 -3.661,1.252 -5.5,0 -23.62,-6.928 -47.286,-13.761 -71,-20.5 -0.383,-4.989 0.617,-9.822 3,-14.5 0.891,-3.843 1.891,-7.676 3,-11.5 -0.145,-0.772 -0.478,-1.439 -1,-2 -19.155,-7.549 -38.155,-15.382 -57,-23.5 6.715,-8.715 14.382,-16.382 23,-23 5.356,-3.699 10.69,-7.366 16,-11 8.035,-4.349 16.035,-8.683 24,-13 0.996,0.086 1.829,-0.248 2.5,-1 -0.158,-13.695 2.675,-26.695 8.5,-39 6.96,-12.915 15.627,-24.582 26,-35 2.667,-2 5,-4.333 7,-7 8.651,-6.654 16.984,-13.654 25,-21 4.211,-2.031 8.044,-4.698 11.5,-8 7.801,9.286 14.968,18.953 21.5,29 z"
       id="path10" />
  </g>
  <circle
     style="fill:url(#linearGradient4);fill-opacity:1;fill-rule:evenodd;stroke-width:1"
     id="path1"
     cx="305.54813"
     cy="203.38966"
     r="19.048117" />
</svg>
