<?xml version="1.0" encoding="UTF-8"?>
<!DOCTYPE svg PUBLIC "-//W3C//DTD SVG 1.1//EN" "http://www.w3.org/Graphics/SVG/1.1/DTD/svg11.dtd">
<svg xmlns="http://www.w3.org/2000/svg" version="1.1" width="290px" height="290px" style="shape-rendering:geometricPrecision; text-rendering:geometricPrecision; image-rendering:optimizeQuality; fill-rule:evenodd; clip-rule:evenodd" xmlns:xlink="http://www.w3.org/1999/xlink">
<g><path style="opacity:0.978" fill="#db2a27" d="M 21.5,-0.5 C 38.8333,-0.5 56.1667,-0.5 73.5,-0.5C 73.9668,1.71104 74.9668,3.71104 76.5,5.5C 98.5,27.1667 120.5,48.8333 142.5,70.5C 143.587,80.6423 144.587,90.6423 145.5,100.5C 145.5,103.5 145.5,106.5 145.5,109.5C 132.833,109.5 120.167,109.5 107.5,109.5C 107.5,97.5 107.5,85.5 107.5,73.5C 96.1667,73.5 84.8333,73.5 73.5,73.5C 73.8301,91.6744 73.4968,109.674 72.5,127.5C 72.5,123.833 72.5,120.167 72.5,116.5C 72.3334,101.83 72.5001,87.1629 73,72.5C 79.0758,71.5236 85.2424,71.1903 91.5,71.5C 91.5,70.5 91.5,69.5 91.5,68.5C 90.325,68.719 89.325,68.3857 88.5,67.5C 67.7223,45.7624 46.5556,24.4291 25,3.5C 22.7779,3.04223 19.9446,3.04223 16.5,3.5C 15.7542,7.30997 14.7542,7.30997 13.5,3.5C 15.9897,1.64362 18.6563,0.310287 21.5,-0.5 Z"/></g>
<g><path style="opacity:0.986" fill="#de2e23" d="M 73.5,-0.5 C 93.1667,-0.5 112.833,-0.5 132.5,-0.5C 142.516,10.4111 152.849,21.0778 163.5,31.5C 164.325,32.3857 165.325,32.719 166.5,32.5C 166.527,34.1993 167.194,35.5326 168.5,36.5C 160.833,36.5 153.167,36.5 145.5,36.5C 145.5,57.8333 145.5,79.1667 145.5,100.5C 144.587,90.6423 143.587,80.6423 142.5,70.5C 120.5,48.8333 98.5,27.1667 76.5,5.5C 74.9668,3.71104 73.9668,1.71104 73.5,-0.5 Z"/></g>
<g><path style="opacity:1" fill="#e03120" d="M 132.5,-0.5 C 142.833,-0.5 153.167,-0.5 163.5,-0.5C 163.5,0.5 163.5,1.5 163.5,2.5C 164.5,2.5 165.5,2.5 166.5,2.5C 168.167,6.83333 171.167,9.83333 175.5,11.5C 177.5,14.8333 179.5,18.1667 181.5,21.5C 185.833,23.1667 188.833,26.1667 190.5,30.5C 193.833,32.5 197.167,34.5 200.5,36.5C 202.167,40.8333 205.167,43.8333 209.5,45.5C 211.167,49.8333 214.167,52.8333 218.5,54.5C 220.5,57.8333 222.5,61.1667 224.5,64.5C 227.833,66.5 231.167,68.5 234.5,70.5C 236.167,74.8333 239.167,77.8333 243.5,79.5C 245.167,83.8333 248.167,86.8333 252.5,88.5C 254.5,91.8333 256.5,95.1667 258.5,98.5C 262.833,100.167 265.833,103.167 267.5,107.5C 270.833,109.5 274.167,111.5 277.5,113.5C 279.167,117.833 282.167,120.833 286.5,122.5C 286.5,123.5 286.5,124.5 286.5,125.5C 287.5,125.5 288.5,125.5 289.5,125.5C 289.5,135.833 289.5,146.167 289.5,156.5C 284.194,151.568 278.86,146.568 273.5,141.5C 272.672,136.868 272.172,132.202 272,127.5C 271.826,132.351 271.326,137.018 270.5,141.5C 270.5,136.833 270.5,132.167 270.5,127.5C 252.167,127.5 233.833,127.5 215.5,127.5C 215.5,115.5 215.5,103.5 215.5,91.5C 203.5,91.5 191.5,91.5 179.5,91.5C 179.5,73.1667 179.5,54.8333 179.5,36.5C 175.833,36.5 172.167,36.5 168.5,36.5C 167.194,35.5326 166.527,34.1993 166.5,32.5C 165.325,32.719 164.325,32.3857 163.5,31.5C 152.849,21.0778 142.516,10.4111 132.5,-0.5 Z"/></g>
<g><path style="opacity:1" fill="#e4351c" d="M 163.5,-0.5 C 198.167,-0.5 232.833,-0.5 267.5,-0.5C 278.167,3.50024 285.5,10.8336 289.5,21.5C 289.5,56.1667 289.5,90.8333 289.5,125.5C 288.5,125.5 287.5,125.5 286.5,125.5C 286.5,124.5 286.5,123.5 286.5,122.5C 282.167,120.833 279.167,117.833 277.5,113.5C 274.167,111.5 270.833,109.5 267.5,107.5C 265.833,103.167 262.833,100.167 258.5,98.5C 256.5,95.1667 254.5,91.8333 252.5,88.5C 248.167,86.8333 245.167,83.8333 243.5,79.5C 239.167,77.8333 236.167,74.8333 234.5,70.5C 231.167,68.5 227.833,66.5 224.5,64.5C 222.5,61.1667 220.5,57.8333 218.5,54.5C 214.167,52.8333 211.167,49.8333 209.5,45.5C 205.167,43.8333 202.167,40.8333 200.5,36.5C 197.167,34.5 193.833,32.5 190.5,30.5C 188.833,26.1667 185.833,23.1667 181.5,21.5C 179.5,18.1667 177.5,14.8333 175.5,11.5C 171.167,9.83333 168.167,6.83333 166.5,2.5C 165.5,2.5 164.5,2.5 163.5,2.5C 163.5,1.5 163.5,0.5 163.5,-0.5 Z"/></g>
<g><path style="opacity:0.993" fill="#d8272a" d="M 72.5,116.5 C 71.6745,112.018 71.1745,107.351 71,102.5C 70.8214,105.553 70.3214,108.553 69.5,111.5C 66.9872,109.672 65.3206,107.339 64.5,104.5C 61.1667,102.5 57.8333,100.5 54.5,98.5C 52.8333,94.1667 49.8333,91.1667 45.5,89.5C 43.5,86.1667 41.5,82.8333 39.5,79.5C 35.1667,77.8333 32.1667,74.8333 30.5,70.5C 26.1667,68.8333 23.1667,65.8333 21.5,61.5C 18.1667,59.5 14.8333,57.5 11.5,55.5C 9.5,52.1667 7.5,48.8333 5.5,45.5C 3.5,44.8333 1.5,44.1667 -0.5,43.5C -0.5,36.1667 -0.5,28.8333 -0.5,21.5C 2.71512,14.4193 7.38179,8.41933 13.5,3.5C 14.7542,7.30997 15.7542,7.30997 16.5,3.5C 19.9446,3.04223 22.7779,3.04223 25,3.5C 46.5556,24.4291 67.7223,45.7624 88.5,67.5C 89.325,68.3857 90.325,68.719 91.5,68.5C 91.5,69.5 91.5,70.5 91.5,71.5C 85.2424,71.1903 79.0758,71.5236 73,72.5C 72.5001,87.1629 72.3334,101.83 72.5,116.5 Z"/></g>
<g><path style="opacity:0.993" fill="#d5232f" d="M -0.5,43.5 C 1.5,44.1667 3.5,44.8333 5.5,45.5C 7.5,48.8333 9.5,52.1667 11.5,55.5C 14.8333,57.5 18.1667,59.5 21.5,61.5C 23.1667,65.8333 26.1667,68.8333 30.5,70.5C 32.1667,74.8333 35.1667,77.8333 39.5,79.5C 41.5,82.8333 43.5,86.1667 45.5,89.5C 49.8333,91.1667 52.8333,94.1667 54.5,98.5C 57.8333,100.5 61.1667,102.5 64.5,104.5C 65.3206,107.339 66.9872,109.672 69.5,111.5C 70.3214,108.553 70.8214,105.553 71,102.5C 71.1745,107.351 71.6745,112.018 72.5,116.5C 72.5,120.167 72.5,123.833 72.5,127.5C 54.5,127.5 36.5,127.5 18.5,127.5C 18.5,130.5 18.5,133.5 18.5,136.5C 16.8881,139.744 15.8881,143.411 15.5,147.5C 11.5,144.833 8.16667,141.5 5.5,137.5C 3.71104,135.967 1.71104,134.967 -0.5,134.5C -0.5,104.167 -0.5,73.8333 -0.5,43.5 Z"/></g>
<g><path style="opacity:0.995" fill="#d01d35" d="M -0.5,134.5 C 1.71104,134.967 3.71104,135.967 5.5,137.5C 8.16667,141.5 11.5,144.833 15.5,147.5C 15.8881,143.411 16.8881,139.744 18.5,136.5C 18.5,144.833 18.5,153.167 18.5,161.5C 36.8333,161.5 55.1667,161.5 73.5,161.5C 73.5,179.5 73.5,197.5 73.5,215.5C 81.8333,215.5 90.1667,215.5 98.5,215.5C 98.5,215.833 98.5,216.167 98.5,216.5C 93.8215,216.334 89.1548,216.501 84.5,217C 89.8333,217.333 95.1667,217.667 100.5,218C 95.7982,218.172 91.1315,218.672 86.5,219.5C 108.03,240.958 129.697,262.291 151.5,283.5C 153.033,285.289 154.033,287.289 154.5,289.5C 131.167,289.5 107.833,289.5 84.5,289.5C 83.8333,287.5 83.1667,285.5 82.5,283.5C 78.1667,281.833 75.1667,278.833 73.5,274.5C 72.325,274.719 71.325,274.386 70.5,273.5C 67.1667,268.833 63.1667,264.833 58.5,261.5C 57.6143,260.675 57.281,259.675 57.5,258.5C 53.1667,256.833 50.1667,253.833 48.5,249.5C 44.1667,247.833 41.1667,244.833 39.5,240.5C 35.1667,238.833 32.1667,235.833 30.5,231.5C 29.325,231.719 28.325,231.386 27.5,230.5C 24.1667,225.833 20.1667,221.833 15.5,218.5C 14.6143,217.675 14.281,216.675 14.5,215.5C 10.1667,213.833 7.16667,210.833 5.5,206.5C 3.5,205.833 1.5,205.167 -0.5,204.5C -0.5,181.167 -0.5,157.833 -0.5,134.5 Z"/></g>
<g><path style="opacity:1" fill="#dd2d25" d="M 289.5,156.5 C 289.5,185.5 289.5,214.5 289.5,243.5C 266.899,220.899 244.232,198.232 221.5,175.5C 220.01,159.541 218.844,159.541 218,175.5C 217.667,171.5 217.333,167.5 217,163.5C 216.843,175.577 216.343,186.911 215.5,197.5C 215.5,185.5 215.5,173.5 215.5,161.5C 233.833,161.5 252.167,161.5 270.5,161.5C 270.5,154.833 270.5,148.167 270.5,141.5C 271.326,137.018 271.826,132.351 272,127.5C 272.172,132.202 272.672,136.868 273.5,141.5C 278.86,146.568 284.194,151.568 289.5,156.5 Z"/></g>
<g><path style="opacity:0.956" fill="#d5232e" d="M 145.5,236.5 C 144.672,230.681 144.172,224.681 144,218.5C 143.829,223.864 143.329,229.198 142.5,234.5C 141.614,233.675 141.281,232.675 141.5,231.5C 140.325,231.719 139.325,231.386 138.5,230.5C 135.167,225.833 131.167,221.833 126.5,218.5C 125.614,217.675 125.281,216.675 125.5,215.5C 121.167,213.833 118.167,210.833 116.5,206.5C 113.839,205.841 111.506,204.508 109.5,202.5C 108.953,207.521 108.62,212.521 108.5,217.5C 105.242,216.583 101.909,216.249 98.5,216.5C 98.5,216.167 98.5,215.833 98.5,215.5C 101.5,215.5 104.5,215.5 107.5,215.5C 107.5,203.5 107.5,191.5 107.5,179.5C 120.167,179.5 132.833,179.5 145.5,179.5C 145.5,198.5 145.5,217.5 145.5,236.5 Z"/></g>
<g><path style="opacity:0.989" fill="#d92829" d="M 289.5,243.5 C 289.5,251.5 289.5,259.5 289.5,267.5C 285.5,278.167 278.167,285.5 267.5,289.5C 263.833,289.5 260.167,289.5 256.5,289.5C 256.082,288.778 255.416,288.278 254.5,288C 257.278,286.608 260.278,286.108 263.5,286.5C 263.48,284.857 264.147,283.524 265.5,282.5C 263.672,279.987 261.339,278.321 258.5,277.5C 256.5,274.167 254.5,270.833 252.5,267.5C 248.167,265.833 245.167,262.833 243.5,258.5C 239.167,256.833 236.167,253.833 234.5,249.5C 231.167,247.5 227.833,245.5 224.5,243.5C 222.5,240.167 220.5,236.833 218.5,233.5C 214.167,231.833 211.167,228.833 209.5,224.5C 205.167,222.833 202.167,219.833 200.5,215.5C 197.167,213.5 193.833,211.5 190.5,209.5C 189.679,206.661 188.013,204.328 185.5,202.5C 184.511,206.107 184.177,209.774 184.5,213.5C 183.5,213.5 182.5,213.5 181.5,213.5C 181.724,221.389 181.058,229.056 179.5,236.5C 179.5,223.5 179.5,210.5 179.5,197.5C 191.5,197.5 203.5,197.5 215.5,197.5C 216.343,186.911 216.843,175.577 217,163.5C 217.333,167.5 217.667,171.5 218,175.5C 218.844,159.541 220.01,159.541 221.5,175.5C 244.232,198.232 266.899,220.899 289.5,243.5 Z"/></g>
<g><path style="opacity:1" fill="#cd1839" d="M -0.5,204.5 C 1.5,205.167 3.5,205.833 5.5,206.5C 7.16667,210.833 10.1667,213.833 14.5,215.5C 14.281,216.675 14.6143,217.675 15.5,218.5C 20.1667,221.833 24.1667,225.833 27.5,230.5C 28.325,231.386 29.325,231.719 30.5,231.5C 32.1667,235.833 35.1667,238.833 39.5,240.5C 41.1667,244.833 44.1667,247.833 48.5,249.5C 50.1667,253.833 53.1667,256.833 57.5,258.5C 57.281,259.675 57.6143,260.675 58.5,261.5C 63.1667,264.833 67.1667,268.833 70.5,273.5C 71.325,274.386 72.325,274.719 73.5,274.5C 75.1667,278.833 78.1667,281.833 82.5,283.5C 83.1667,285.5 83.8333,287.5 84.5,289.5C 63.5,289.5 42.5,289.5 21.5,289.5C 10.8336,285.5 3.50024,278.167 -0.5,267.5C -0.5,246.5 -0.5,225.5 -0.5,204.5 Z"/></g>
<g><path style="opacity:0.994" fill="#d6242d" d="M 256.5,289.5 C 236.167,289.5 215.833,289.5 195.5,289.5C 194.833,287.5 194.167,285.5 193.5,283.5C 189.167,281.833 186.167,278.833 184.5,274.5C 183.325,274.719 182.325,274.386 181.5,273.5C 174.986,266.819 168.319,260.319 161.5,254C 167.681,253.828 173.681,253.328 179.5,252.5C 179.5,247.167 179.5,241.833 179.5,236.5C 181.058,229.056 181.724,221.389 181.5,213.5C 182.5,213.5 183.5,213.5 184.5,213.5C 184.177,209.774 184.511,206.107 185.5,202.5C 188.013,204.328 189.679,206.661 190.5,209.5C 193.833,211.5 197.167,213.5 200.5,215.5C 202.167,219.833 205.167,222.833 209.5,224.5C 211.167,228.833 214.167,231.833 218.5,233.5C 220.5,236.833 222.5,240.167 224.5,243.5C 227.833,245.5 231.167,247.5 234.5,249.5C 236.167,253.833 239.167,256.833 243.5,258.5C 245.167,262.833 248.167,265.833 252.5,267.5C 254.5,270.833 256.5,274.167 258.5,277.5C 261.339,278.321 263.672,279.987 265.5,282.5C 264.147,283.524 263.48,284.857 263.5,286.5C 260.278,286.108 257.278,286.608 254.5,288C 255.416,288.278 256.082,288.778 256.5,289.5 Z"/></g>
<g><path style="opacity:0.994" fill="#d32032" d="M 145.5,236.5 C 145.5,241.833 145.5,247.167 145.5,252.5C 156.833,252.5 168.167,252.5 179.5,252.5C 173.681,253.328 167.681,253.828 161.5,254C 168.319,260.319 174.986,266.819 181.5,273.5C 182.325,274.386 183.325,274.719 184.5,274.5C 186.167,278.833 189.167,281.833 193.5,283.5C 194.167,285.5 194.833,287.5 195.5,289.5C 181.833,289.5 168.167,289.5 154.5,289.5C 154.033,287.289 153.033,285.289 151.5,283.5C 129.697,262.291 108.03,240.958 86.5,219.5C 91.1315,218.672 95.7982,218.172 100.5,218C 95.1667,217.667 89.8333,217.333 84.5,217C 89.1548,216.501 93.8215,216.334 98.5,216.5C 101.909,216.249 105.242,216.583 108.5,217.5C 108.62,212.521 108.953,207.521 109.5,202.5C 111.506,204.508 113.839,205.841 116.5,206.5C 118.167,210.833 121.167,213.833 125.5,215.5C 125.281,216.675 125.614,217.675 126.5,218.5C 131.167,221.833 135.167,225.833 138.5,230.5C 139.325,231.386 140.325,231.719 141.5,231.5C 141.281,232.675 141.614,233.675 142.5,234.5C 143.329,229.198 143.829,223.864 144,218.5C 144.172,224.681 144.672,230.681 145.5,236.5 Z"/></g>
</svg>
