<?xml version="1.0" encoding="UTF-8"?>
<!DOCTYPE svg PUBLIC "-//W3C//DTD SVG 1.1//EN" "http://www.w3.org/Graphics/SVG/1.1/DTD/svg11.dtd">
<svg xmlns="http://www.w3.org/2000/svg" version="1.1" width="256px" height="256px" style="shape-rendering:geometricPrecision; text-rendering:geometricPrecision; image-rendering:optimizeQuality; fill-rule:evenodd; clip-rule:evenodd" xmlns:xlink="http://www.w3.org/1999/xlink">
<g><path style="opacity:0.221" fill="#010101" d="M 114.5,18.5 C 152.822,15.09 183.656,28.4234 207,58.5C 228.229,93.7515 228.896,129.418 209,165.5C 205,171.5 201,177.5 197,183.5C 195.89,185.037 194.39,185.703 192.5,185.5C 192.561,187.592 193.561,189.092 195.5,190C 210.791,197.642 225.291,206.476 239,216.5C 242.944,223.125 242.111,228.958 236.5,234C 225.476,234.618 214.476,234.285 203.5,233C 178.851,229.693 154.184,226.526 129.5,223.5C 95.3918,228.016 61.2251,232.016 27,235.5C 16.2401,236.073 11.9068,231.073 14,220.5C 14.8834,217.898 16.3834,215.731 18.5,214C 33.2979,205.365 47.9645,196.532 62.5,187.5C 32.8616,155.828 24.6949,119.161 38,77.5C 52.8551,43.9934 78.3551,24.3268 114.5,18.5 Z M 157.5,101.5 C 167.977,99.9641 173.311,104.631 173.5,115.5C 170.569,125.966 164.235,128.799 154.5,124C 152.951,122.786 151.785,121.286 151,119.5C 150.333,115.5 150.333,111.5 151,107.5C 152.494,104.686 154.66,102.686 157.5,101.5 Z"/></g>
<g><path style="opacity:0.678" fill="#0c0c0c" d="M 185.5,55.5 C 181.854,53.1829 178.52,50.5162 175.5,47.5C 175.489,45.9826 174.823,44.8159 173.5,44C 145.903,27.5813 117.236,26.2479 87.5,40C 83.5,42.6667 79.5,45.3333 75.5,48C 73.5359,49.451 72.2026,51.2843 71.5,53.5C 63.4446,61.2734 57.1113,70.2734 52.5,80.5C 51.5041,80.4142 50.6708,80.7476 50,81.5C 36.6651,117.351 43.8318,148.851 71.5,176C 72.745,176.791 74.0783,177.291 75.5,177.5C 107.614,200.201 140.614,201.368 174.5,181C 178,178.666 181,175.832 183.5,172.5C 183.833,172.5 184.167,172.5 184.5,172.5C 183.781,175.073 182.781,177.573 181.5,180C 175.3,184.182 168.967,188.182 162.5,192C 163.793,192.49 165.127,192.657 166.5,192.5C 147.491,201.952 127.491,204.452 106.5,200C 99.3618,197.788 92.3618,195.288 85.5,192.5C 87.2922,191.691 89.2922,191.191 91.5,191C 86.7417,187.976 81.9084,185.143 77,182.5C 76.6667,182.833 76.3333,183.167 76,183.5C 75.276,181.041 73.9427,180.041 72,180.5C 68.5,175.667 64.3333,171.5 59.5,168C 59.8333,167.667 60.1667,167.333 60.5,167C 57.3832,164.458 54.7166,161.458 52.5,158C 52.8333,157.667 53.1667,157.333 53.5,157C 52.0397,155.418 50.373,154.085 48.5,153C 48.7451,150.911 48.7451,148.911 48.5,147C 46.3952,145.665 45.7286,143.998 46.5,142C 45.6422,140.212 44.6422,138.378 43.5,136.5C 44.4709,135.038 44.1376,133.705 42.5,132.5C 42.7093,131.914 43.0426,131.414 43.5,131C 41.6499,129.155 41.3166,127.155 42.5,125C 40.9863,121.362 40.3196,117.529 40.5,113.5C 40.2996,109.638 40.9663,105.971 42.5,102.5C 41.5155,100.402 41.8489,98.4021 43.5,96.5C 42.5291,95.0379 42.8624,93.7046 44.5,92.5C 44.3062,90.9299 44.3062,89.4299 44.5,88C 46.1247,87.1475 46.4581,86.1475 45.5,85C 47.6048,83.6646 48.2714,81.9979 47.5,80C 49.3028,78.738 50.6361,77.0713 51.5,75C 51.5,74 51.5,73 51.5,72C 53.0526,70.9032 54.386,69.5699 55.5,68C 55.1667,67.6667 54.8333,67.3333 54.5,67C 60.8246,59.9925 67.3246,52.8258 74,45.5C 74.3333,45.8333 74.6667,46.1667 75,46.5C 75.724,44.0411 77.0573,43.0411 79,43.5C 81.3121,41.5108 83.6454,39.5108 86,37.5C 87.016,38.6341 87.6827,38.3008 88,36.5C 89.7487,37.299 91.082,36.6324 92,34.5C 93.3333,34.5 94.6667,34.5 96,34.5C 96.3173,32.6992 96.984,32.3659 98,33.5C 99.6667,32.5 101.333,31.5 103,30.5C 104.587,31.727 105.921,31.3937 107,29.5C 108.779,30.4791 110.445,30.1458 112,28.5C 112.561,29.0219 113.228,29.3552 114,29.5C 116.136,28.7323 118.303,28.0656 120.5,27.5C 124.674,28.798 128.841,28.798 133,27.5C 136.021,28.8565 139.021,29.1898 142,28.5C 144.588,29.797 147.088,30.797 149.5,31.5C 150.906,30.3318 152.072,30.6652 153,32.5C 154.147,31.5419 155.147,31.8753 156,33.5C 165.617,36.3808 174.951,42.0475 184,50.5C 184.608,52.1545 185.108,53.8211 185.5,55.5 Z"/></g>
<g><path style="opacity:0.754" fill="#161616" d="M 175.5,47.5 C 155.287,33.6088 133.287,29.2755 109.5,34.5C 109.167,34.5 108.833,34.5 108.5,34.5C 94.6176,37.9405 82.2843,44.2739 71.5,53.5C 72.2026,51.2843 73.5359,49.451 75.5,48C 79.5,45.3333 83.5,42.6667 87.5,40C 117.236,26.2479 145.903,27.5813 173.5,44C 174.823,44.8159 175.489,45.9826 175.5,47.5 Z"/></g>
<g><path style="opacity:1" fill="#999999" d="M 171.5,48.5 C 174.37,51.0635 176.37,54.2301 177.5,58C 177.097,59.4728 176.43,60.8061 175.5,62C 161.715,62.7416 148.048,64.5749 134.5,67.5C 134.611,66.8826 134.944,66.3826 135.5,66C 146.742,62.0704 158.408,60.4037 170.5,61C 173.306,59.6949 174.14,57.5282 173,54.5C 171.692,52.3586 170.192,50.3586 168.5,48.5C 140.451,33.6674 112.451,33.8341 84.5,49C 83.7476,49.6708 83.4142,50.5041 83.5,51.5C 74.6372,58.6642 67.1372,66.9975 61,76.5C 60.3923,78.1545 59.8923,79.8211 59.5,81.5C 56.304,85.0217 53.9707,89.0217 52.5,93.5C 53.7929,81.2463 58.6262,70.5796 67,61.5C 78.689,48.9361 92.5223,39.9361 108.5,34.5C 108.833,34.5 109.167,34.5 109.5,34.5C 127.847,32.2231 145.514,34.7231 162.5,42C 165.921,43.6985 168.921,45.8652 171.5,48.5 Z"/></g>
<g><path style="opacity:1" fill="#aeaeae" d="M 134.5,67.5 C 130.813,70.4997 126.813,73.1664 122.5,75.5C 106.869,93.3443 103.036,113.678 111,136.5C 113.458,139.777 115.625,143.111 117.5,146.5C 121.832,153.988 128.166,159.155 136.5,162C 147.228,165.467 158.228,167.467 169.5,168C 171.837,170.593 172.004,173.426 170,176.5C 167.971,178.033 166.138,179.699 164.5,181.5C 161.574,182.461 158.574,183.127 155.5,183.5C 158.252,180.748 161.419,178.415 165,176.5C 166.505,174.702 166.672,172.868 165.5,171C 156.743,169.984 148.076,168.317 139.5,166C 135.613,162.889 131.28,160.556 126.5,159C 121.949,154.582 117.282,150.415 112.5,146.5C 104.63,130.413 102.297,113.413 105.5,95.5C 113.767,76.4152 128.1,64.2485 148.5,59C 154.513,58.9915 160.346,58.1581 166,56.5C 166.743,54.5594 166.576,52.7261 165.5,51C 161.627,48.0631 157.294,46.2298 152.5,45.5C 148.883,44.3361 145.55,42.5028 142.5,40C 132.167,39.3333 121.833,39.3333 111.5,40C 101.525,42.4942 92.1921,46.3275 83.5,51.5C 83.4142,50.5041 83.7476,49.6708 84.5,49C 112.451,33.8341 140.451,33.6674 168.5,48.5C 170.192,50.3586 171.692,52.3586 173,54.5C 174.14,57.5282 173.306,59.6949 170.5,61C 158.408,60.4037 146.742,62.0704 135.5,66C 134.944,66.3826 134.611,66.8826 134.5,67.5 Z"/></g>
<g><path style="opacity:1" fill="#848484" d="M 108.5,34.5 C 92.5223,39.9361 78.689,48.9361 67,61.5C 58.6262,70.5796 53.7929,81.2463 52.5,93.5C 50.8531,96.2029 49.6864,99.2029 49,102.5C 48.3333,110.167 48.3333,117.833 49,125.5C 51.2007,134.543 53.3674,143.543 55.5,152.5C 46.139,134.976 43.3057,116.309 47,96.5C 48.3455,90.9625 50.1788,85.6292 52.5,80.5C 57.1113,70.2734 63.4446,61.2734 71.5,53.5C 82.2843,44.2739 94.6176,37.9405 108.5,34.5 Z"/></g>
<g><path style="opacity:1" fill="#7c7c7c" d="M 175.5,47.5 C 178.52,50.5162 181.854,53.1829 185.5,55.5C 213.86,88.0872 217.026,123.087 195,160.5C 191.664,164.668 188.164,168.668 184.5,172.5C 184.167,172.5 183.833,172.5 183.5,172.5C 185.487,165.137 182.82,160.471 175.5,158.5C 175.5,158.167 175.5,157.833 175.5,157.5C 195.674,149.532 205.674,134.532 205.5,112.5C 204.481,92.4879 194.814,78.4879 176.5,70.5C 169.307,67.3249 161.64,65.9916 153.5,66.5C 159.653,65.6721 165.987,65.1721 172.5,65C 179.72,62.9683 181.22,58.8016 177,52.5C 175.549,50.5359 173.716,49.2026 171.5,48.5C 168.921,45.8652 165.921,43.6985 162.5,42C 145.514,34.7231 127.847,32.2231 109.5,34.5C 133.287,29.2755 155.287,33.6088 175.5,47.5 Z"/></g>
<g><path style="opacity:1" fill="#cecece" d="M 152.5,45.5 C 157.294,46.2298 161.627,48.0631 165.5,51C 166.576,52.7261 166.743,54.5594 166,56.5C 160.346,58.1581 154.513,58.9915 148.5,59C 128.1,64.2485 113.767,76.4152 105.5,95.5C 106.649,91.5824 107.816,87.5824 109,83.5C 112.985,77.1831 117.985,71.8498 124,67.5C 124.41,66.0993 124.91,64.766 125.5,63.5C 133.923,59.337 142.923,56.6703 152.5,55.5C 157.333,54.0045 157.667,51.8378 153.5,49C 142.053,43.9521 130.053,42.2855 117.5,44C 110.9,45.9756 104.233,47.9756 97.5,50C 94.6925,51.3162 92.3592,53.1495 90.5,55.5C 85.6776,57.4994 81.1776,60.1661 77,63.5C 74.3604,68.1342 71.0271,72.1342 67,75.5C 65.2886,79.5095 63.1219,83.1762 60.5,86.5C 61.1114,81.2769 63.278,76.9435 67,73.5C 77.4271,57.5355 91.9271,47.3688 110.5,43C 121.5,42.3333 132.5,42.3333 143.5,43C 146.171,44.903 149.171,45.7363 152.5,45.5 Z"/></g>
<g><path style="opacity:1" fill="#ececec" d="M 125.5,63.5 C 112.451,71.4476 103.951,83.1143 100,98.5C 96.0768,111.008 96.9102,123.175 102.5,135C 103.704,136.699 105.038,138.199 106.5,139.5C 107.397,143.134 108.73,146.634 110.5,150C 114.548,153.712 118.215,157.712 121.5,162C 130.182,167.505 139.515,171.672 149.5,174.5C 150.583,175.365 150.749,176.365 150,177.5C 140.357,182.112 130.191,183.612 119.5,182C 109.252,179.86 99.2525,177.026 89.5,173.5C 81.8185,163.99 73.9852,154.656 66,145.5C 56.2429,125.266 56.0763,104.933 65.5,84.5C 68.701,78.6124 72.3677,72.9457 76.5,67.5C 80.8918,63.1028 85.5584,59.1028 90.5,55.5C 92.3592,53.1495 94.6925,51.3162 97.5,50C 104.233,47.9756 110.9,45.9756 117.5,44C 130.053,42.2855 142.053,43.9521 153.5,49C 157.667,51.8378 157.333,54.0045 152.5,55.5C 142.923,56.6703 133.923,59.337 125.5,63.5 Z"/></g>
<g><path style="opacity:1" fill="#f6f6f6" d="M 120.5,47.5 C 126.555,47.3379 132.555,47.8379 138.5,49C 139.91,49.3678 140.91,50.2011 141.5,51.5C 106.738,66.0137 91.905,92.0137 97,129.5C 100.762,142.859 107.929,154.026 118.5,163C 126.405,167.783 134.405,172.283 142.5,176.5C 141.619,177.971 140.286,178.804 138.5,179C 104.375,182.188 79.8748,168.355 65,137.5C 54.8443,100.944 66.0109,73.1108 98.5,54C 105.689,50.8766 113.022,48.7099 120.5,47.5 Z"/></g>
<g><path style="opacity:1" fill="#fdfdfd" d="M 122.5,49.5 C 126.154,49.9422 129.821,50.2756 133.5,50.5C 133.719,51.675 133.386,52.675 132.5,53.5C 104.013,68.4628 91.1793,92.1295 94,124.5C 97.0505,140.767 104.884,154.267 117.5,165C 123.5,168.667 129.5,172.333 135.5,176C 103.522,179.084 80.6889,165.918 67,136.5C 57.7519,106.58 65.2519,81.7463 89.5,62C 99.4403,54.7463 110.44,50.5796 122.5,49.5 Z"/></g>
<g><path style="opacity:0.916" fill="#101010" d="M 153.5,66.5 C 161.64,65.9916 169.307,67.3249 176.5,70.5C 140.295,63.7473 119.295,78.414 113.5,114.5C 116.767,141.767 132.1,156.433 159.5,158.5C 164.828,158.019 170.161,157.686 175.5,157.5C 175.5,157.833 175.5,158.167 175.5,158.5C 165.592,161.826 155.592,162.159 145.5,159.5C 139.447,157.64 133.78,154.973 128.5,151.5C 124.096,147.103 120.096,142.436 116.5,137.5C 104.735,111.309 110.402,89.809 133.5,73C 139.629,69.1236 146.295,66.9569 153.5,66.5 Z"/></g>
<g><path style="opacity:0.927" fill="#060606" d="M 176.5,70.5 C 194.814,78.4879 204.481,92.4879 205.5,112.5C 205.674,134.532 195.674,149.532 175.5,157.5C 170.161,157.686 164.828,158.019 159.5,158.5C 132.1,156.433 116.767,141.767 113.5,114.5C 119.295,78.414 140.295,63.7473 176.5,70.5 Z M 157.5,101.5 C 154.66,102.686 152.494,104.686 151,107.5C 150.333,111.5 150.333,115.5 151,119.5C 151.785,121.286 152.951,122.786 154.5,124C 164.235,128.799 170.569,125.966 173.5,115.5C 173.311,104.631 167.977,99.9641 157.5,101.5 Z"/></g>
<g><path style="opacity:1" fill="#7c7c7c" d="M 151.5,73.5 C 175.61,70.486 192.11,80.1527 201,102.5C 205.3,128.842 194.8,146.008 169.5,154C 152.333,156.66 138.5,151.16 128,137.5C 115.971,117.002 118.471,98.502 135.5,82C 140.483,78.344 145.816,75.5107 151.5,73.5 Z M 157.5,101.5 C 154.66,102.686 152.494,104.686 151,107.5C 150.333,111.5 150.333,115.5 151,119.5C 151.785,121.286 152.951,122.786 154.5,124C 164.235,128.799 170.569,125.966 173.5,115.5C 173.311,104.631 167.977,99.9641 157.5,101.5 Z"/></g>
<g><path style="opacity:1" fill="#bababa" d="M 152.5,45.5 C 149.171,45.7363 146.171,44.903 143.5,43C 132.5,42.3333 121.5,42.3333 110.5,43C 91.9271,47.3688 77.4271,57.5355 67,73.5C 63.278,76.9435 61.1114,81.2769 60.5,86.5C 57.6071,91.7077 55.7737,97.3743 55,103.5C 52.3126,121.266 56.1459,137.266 66.5,151.5C 67.6056,154.054 68.439,156.721 69,159.5C 73.1667,162.333 76.6667,165.833 79.5,170C 83.1803,170.348 86.5136,171.515 89.5,173.5C 93.5961,176.605 97.9294,179.272 102.5,181.5C 104.385,183.311 106.719,184.478 109.5,185C 125.005,188.648 140.338,188.148 155.5,183.5C 155.389,184.117 155.056,184.617 154.5,185C 140.674,188.826 126.674,189.493 112.5,187C 104.751,184.415 96.9173,182.249 89,180.5C 87.4774,178.234 85.3108,177.067 82.5,177C 81.8095,175.933 81.3095,174.766 81,173.5C 78.828,172.415 76.828,171.081 75,169.5C 68.9894,161.465 62.9894,153.465 57,145.5C 55.8756,139.791 54.5423,134.125 53,128.5C 49.545,111.967 51.7117,96.3002 59.5,81.5C 59.8923,79.8211 60.3923,78.1545 61,76.5C 67.1372,66.9975 74.6372,58.6642 83.5,51.5C 92.1921,46.3275 101.525,42.4942 111.5,40C 121.833,39.3333 132.167,39.3333 142.5,40C 145.55,42.5028 148.883,44.3361 152.5,45.5 Z"/></g>
<g><path style="opacity:0.742" fill="#141414" d="M 52.5,80.5 C 50.1788,85.6292 48.3455,90.9625 47,96.5C 43.3057,116.309 46.139,134.976 55.5,152.5C 60.7077,162.037 67.3744,170.37 75.5,177.5C 74.0783,177.291 72.745,176.791 71.5,176C 43.8318,148.851 36.6651,117.351 50,81.5C 50.6708,80.7476 51.5041,80.4142 52.5,80.5 Z"/></g>
<g><path style="opacity:0.34" fill="#010101" d="M 155.5,86.5 C 178.361,85.8599 189.194,96.8599 188,119.5C 182.505,136.172 171.005,143.006 153.5,140C 138.599,133.701 132.432,122.534 135,106.5C 137.355,100.157 141.189,94.9906 146.5,91C 149.592,89.4541 152.592,87.9541 155.5,86.5 Z M 157.5,101.5 C 154.66,102.686 152.494,104.686 151,107.5C 150.333,111.5 150.333,115.5 151,119.5C 151.785,121.286 152.951,122.786 154.5,124C 164.235,128.799 170.569,125.966 173.5,115.5C 173.311,104.631 167.977,99.9641 157.5,101.5 Z"/></g>
<g><path style="opacity:1" fill="#929292" d="M 171.5,48.5 C 173.716,49.2026 175.549,50.5359 177,52.5C 181.22,58.8016 179.72,62.9683 172.5,65C 165.987,65.1721 159.653,65.6721 153.5,66.5C 146.295,66.9569 139.629,69.1236 133.5,73C 110.402,89.809 104.735,111.309 116.5,137.5C 117.985,144.319 121.985,148.985 128.5,151.5C 133.78,154.973 139.447,157.64 145.5,159.5C 146.589,161.117 148.256,161.95 150.5,162C 158.909,162.093 167.243,162.76 175.5,164C 179.782,169.149 179.115,173.649 173.5,177.5C 173.685,175.804 174.519,174.471 176,173.5C 178.172,167.344 176.005,164.177 169.5,164C 159.064,163.962 148.731,162.962 138.5,161C 134.301,157.458 129.635,154.791 124.5,153C 122.297,150.628 119.963,148.461 117.5,146.5C 115.625,143.111 113.458,139.777 111,136.5C 103.036,113.678 106.869,93.3443 122.5,75.5C 126.813,73.1664 130.813,70.4997 134.5,67.5C 148.048,64.5749 161.715,62.7416 175.5,62C 176.43,60.8061 177.097,59.4728 177.5,58C 176.37,54.2301 174.37,51.0635 171.5,48.5 Z"/></g>
<g><path style="opacity:1" fill="#d0d0d0" d="M 60.5,86.5 C 60.4479,91.4815 59.2812,96.1481 57,100.5C 56.0348,111.932 56.7014,123.266 59,134.5C 61.5181,140.199 64.0181,145.866 66.5,151.5C 56.1459,137.266 52.3126,121.266 55,103.5C 55.7737,97.3743 57.6071,91.7077 60.5,86.5 Z"/></g>
<g><path style="opacity:1" fill="#dbdbdb" d="M 125.5,63.5 C 124.91,64.766 124.41,66.0993 124,67.5C 117.985,71.8498 112.985,77.1831 109,83.5C 107.816,87.5824 106.649,91.5824 105.5,95.5C 104.034,96.347 103.2,97.6803 103,99.5C 101.495,108.113 101.161,116.78 102,125.5C 103.998,129.993 105.498,134.66 106.5,139.5C 105.038,138.199 103.704,136.699 102.5,135C 96.9102,123.175 96.0768,111.008 100,98.5C 103.951,83.1143 112.451,71.4476 125.5,63.5 Z"/></g>
<g><path style="opacity:1" fill="#bebebe" d="M 105.5,95.5 C 102.297,113.413 104.63,130.413 112.5,146.5C 109.806,144.672 107.806,142.339 106.5,139.5C 105.498,134.66 103.998,129.993 102,125.5C 101.161,116.78 101.495,108.113 103,99.5C 103.2,97.6803 104.034,96.347 105.5,95.5 Z"/></g>
<g><path style="opacity:1" fill="#dedede" d="M 90.5,55.5 C 85.5584,59.1028 80.8918,63.1028 76.5,67.5C 72.3677,72.9457 68.701,78.6124 65.5,84.5C 56.0763,104.933 56.2429,125.266 66,145.5C 73.9852,154.656 81.8185,163.99 89.5,173.5C 86.5136,171.515 83.1803,170.348 79.5,170C 76.6667,165.833 73.1667,162.333 69,159.5C 68.439,156.721 67.6056,154.054 66.5,151.5C 64.0181,145.866 61.5181,140.199 59,134.5C 56.7014,123.266 56.0348,111.932 57,100.5C 59.2812,96.1481 60.4479,91.4815 60.5,86.5C 63.1219,83.1762 65.2886,79.5095 67,75.5C 71.0271,72.1342 74.3604,68.1342 77,63.5C 81.1776,60.1661 85.6776,57.4994 90.5,55.5 Z"/></g>
<g><path style="opacity:1" fill="#7b7b7b" d="M 116.5,137.5 C 120.096,142.436 124.096,147.103 128.5,151.5C 121.985,148.985 117.985,144.319 116.5,137.5 Z"/></g>
<g><path style="opacity:1" fill="#c5c5c5" d="M 112.5,146.5 C 117.282,150.415 121.949,154.582 126.5,159C 131.28,160.556 135.613,162.889 139.5,166C 148.076,168.317 156.743,169.984 165.5,171C 166.672,172.868 166.505,174.702 165,176.5C 161.419,178.415 158.252,180.748 155.5,183.5C 140.338,188.148 125.005,188.648 109.5,185C 106.719,184.478 104.385,183.311 102.5,181.5C 121.778,187.793 140.445,186.626 158.5,178C 161.033,175.916 161.033,173.916 158.5,172C 146.4,170.319 135.067,166.819 124.5,161.5C 124.649,160.448 124.483,159.448 124,158.5C 121,156.167 118,153.833 115,151.5C 113.562,150.1 112.729,148.433 112.5,146.5 Z"/></g>
<g><path style="opacity:1" fill="#a0a0a0" d="M 59.5,81.5 C 51.7117,96.3002 49.545,111.967 53,128.5C 54.5423,134.125 55.8756,139.791 57,145.5C 62.9894,153.465 68.9894,161.465 75,169.5C 76.828,171.081 78.828,172.415 81,173.5C 81.3095,174.766 81.8095,175.933 82.5,177C 85.3108,177.067 87.4774,178.234 89,180.5C 96.9173,182.249 104.751,184.415 112.5,187C 126.674,189.493 140.674,188.826 154.5,185C 155.056,184.617 155.389,184.117 155.5,183.5C 158.574,183.127 161.574,182.461 164.5,181.5C 161.536,183.385 158.369,185.052 155,186.5C 149.334,187.624 143.834,189.124 138.5,191C 131.5,191.667 124.5,191.667 117.5,191C 113.931,190.61 110.597,189.61 107.5,188C 104.518,187.502 101.518,187.335 98.5,187.5C 84.0356,182.358 72.2023,173.692 63,161.5C 60.981,159.128 59.3143,156.461 58,153.5C 57.3292,152.748 56.4959,152.414 55.5,152.5C 53.3674,143.543 51.2007,134.543 49,125.5C 48.3333,117.833 48.3333,110.167 49,102.5C 49.6864,99.2029 50.8531,96.2029 52.5,93.5C 53.9707,89.0217 56.304,85.0217 59.5,81.5 Z"/></g>
<g><path style="opacity:1" fill="#838383" d="M 55.5,152.5 C 56.4959,152.414 57.3292,152.748 58,153.5C 59.3143,156.461 60.981,159.128 63,161.5C 72.2023,173.692 84.0356,182.358 98.5,187.5C 104.105,190.241 110.105,192.074 116.5,193C 134.644,195.438 151.644,192.104 167.5,183C 169.996,181.669 171.996,179.836 173.5,177.5C 179.115,173.649 179.782,169.149 175.5,164C 167.243,162.76 158.909,162.093 150.5,162C 148.256,161.95 146.589,161.117 145.5,159.5C 155.592,162.159 165.592,161.826 175.5,158.5C 182.82,160.471 185.487,165.137 183.5,172.5C 181,175.832 178,178.666 174.5,181C 140.614,201.368 107.614,200.201 75.5,177.5C 67.3744,170.37 60.7077,162.037 55.5,152.5 Z"/></g>
<g><path style="opacity:1" fill="#dadada" d="M 106.5,139.5 C 107.806,142.339 109.806,144.672 112.5,146.5C 112.729,148.433 113.562,150.1 115,151.5C 118,153.833 121,156.167 124,158.5C 124.483,159.448 124.649,160.448 124.5,161.5C 135.067,166.819 146.4,170.319 158.5,172C 161.033,173.916 161.033,175.916 158.5,178C 140.445,186.626 121.778,187.793 102.5,181.5C 97.9294,179.272 93.5961,176.605 89.5,173.5C 99.2525,177.026 109.252,179.86 119.5,182C 130.191,183.612 140.357,182.112 150,177.5C 150.749,176.365 150.583,175.365 149.5,174.5C 139.515,171.672 130.182,167.505 121.5,162C 118.215,157.712 114.548,153.712 110.5,150C 108.73,146.634 107.397,143.134 106.5,139.5 Z"/></g>
<g><path style="opacity:1" fill="#9a9a9a" d="M 117.5,146.5 C 119.963,148.461 122.297,150.628 124.5,153C 129.635,154.791 134.301,157.458 138.5,161C 148.731,162.962 159.064,163.962 169.5,164C 176.005,164.177 178.172,167.344 176,173.5C 174.519,174.471 173.685,175.804 173.5,177.5C 171.996,179.836 169.996,181.669 167.5,183C 151.644,192.104 134.644,195.438 116.5,193C 110.105,192.074 104.105,190.241 98.5,187.5C 101.518,187.335 104.518,187.502 107.5,188C 110.597,189.61 113.931,190.61 117.5,191C 124.5,191.667 131.5,191.667 138.5,191C 143.834,189.124 149.334,187.624 155,186.5C 158.369,185.052 161.536,183.385 164.5,181.5C 166.138,179.699 167.971,178.033 170,176.5C 172.004,173.426 171.837,170.593 169.5,168C 158.228,167.467 147.228,165.467 136.5,162C 128.166,159.155 121.832,153.988 117.5,146.5 Z"/></g>
<g><path style="opacity:1" fill="#7c7c7c" d="M 85.5,192.5 C 92.3618,195.288 99.3618,197.788 106.5,200C 127.491,204.452 147.491,201.952 166.5,192.5C 168.199,192.34 169.866,192.506 171.5,193C 188.167,202.333 204.833,211.667 221.5,221C 190.355,217.266 159.188,213.432 128,209.5C 96.7793,213.215 65.6127,217.048 34.5,221C 51.5272,211.488 68.5272,201.988 85.5,192.5 Z"/></g>
<g><path style="opacity:1" fill="#909090" d="M 164.5,196.5 C 171.108,195.115 176.275,197.115 180,202.5C 180.88,209.457 177.713,212.791 170.5,212.5C 162.153,212.603 158.653,208.603 160,200.5C 161.397,198.93 162.897,197.596 164.5,196.5 Z"/></g>
<g><path style="opacity:1" fill="#909090" d="M 84.5,195.5 C 90.8961,195.181 94.8961,198.014 96.5,204C 95.1302,210.029 91.2969,213.195 85,213.5C 75.3534,212.562 72.6867,207.895 77,199.5C 79.5138,197.996 82.0138,196.662 84.5,195.5 Z"/></g>
</svg>
