<?xml version="1.0" encoding="UTF-8"?>
<!DOCTYPE svg PUBLIC "-//W3C//DTD SVG 1.1//EN" "http://www.w3.org/Graphics/SVG/1.1/DTD/svg11.dtd">
<svg xmlns="http://www.w3.org/2000/svg" version="1.1" width="512px" height="512px" style="shape-rendering:geometricPrecision; text-rendering:geometricPrecision; image-rendering:optimizeQuality; fill-rule:evenodd; clip-rule:evenodd" xmlns:xlink="http://www.w3.org/1999/xlink">
<g><path style="opacity:0.991" fill="#2196f3" d="M 237.5,20.5 C 332.121,17.389 405.288,55.0556 457,133.5C 495.672,201.606 501.005,272.272 473,345.5C 441.895,415.808 389.395,461.641 315.5,483C 223.017,503.5 144.184,479.667 79,411.5C 25.3888,346.806 8.72216,273.472 29,191.5C 50.8553,119.311 96.3553,68.1445 165.5,38C 188.793,28.6757 212.793,22.8424 237.5,20.5 Z M 162.5,117.5 C 224.501,117.333 286.501,117.5 348.5,118C 373.324,122.824 388.158,137.658 393,162.5C 393.667,194.5 393.667,226.5 393,258.5C 389.179,265.782 383.679,267.282 376.5,263C 375.54,261.581 374.707,260.081 374,258.5C 373.964,225.794 373.297,193.127 372,160.5C 367.441,147.939 358.608,140.439 345.5,138C 285.5,137.333 225.5,137.333 165.5,138C 150.333,141.167 141.167,150.333 138,165.5C 137.333,225.5 137.333,285.5 138,345.5C 141.167,360.667 150.333,369.833 165.5,373C 196.5,373.333 227.5,373.667 258.5,374C 265.782,377.821 267.282,383.321 263,390.5C 261.581,391.46 260.081,392.293 258.5,393C 224.794,393.965 191.127,393.632 157.5,392C 135.747,385.347 122.581,370.847 118,348.5C 117.333,286.5 117.333,224.5 118,162.5C 123.013,137.654 137.847,122.654 162.5,117.5 Z M 223.5,197.5 C 229.577,197.196 235.577,197.696 241.5,199C 258.663,208.414 275.663,218.08 292.5,228C 309.202,240.108 312.702,255.274 303,273.5C 300.5,276 298,278.5 295.5,281C 280.833,289.667 266.167,298.333 251.5,307C 233.051,317.976 217.218,315.143 204,298.5C 202.073,295.052 200.739,291.385 200,287.5C 199.042,264.783 199.376,242.116 201,219.5C 205.083,208.583 212.583,201.249 223.5,197.5 Z M 338.5,266.5 C 345.88,266.596 350.047,270.262 351,277.5C 351.333,304.5 351.667,331.5 352,358.5C 360.833,349.667 369.667,340.833 378.5,332C 386.692,329.598 391.692,332.598 393.5,341C 393.204,342.888 392.704,344.722 392,346.5C 376.833,361.667 361.667,376.833 346.5,392C 342.833,394 339.167,394 335.5,392C 320.333,376.833 305.167,361.667 290,346.5C 286.789,338.256 289.455,332.922 298,330.5C 299.5,331 301,331.5 302.5,332C 311.97,340.469 321.137,349.303 330,358.5C 330.333,330.5 330.667,302.5 331,274.5C 332.353,270.65 334.853,267.983 338.5,266.5 Z"/></g>
<g><path style="opacity:0.989" fill="#2196f3" d="M 227.5,217.5 C 232.997,217.243 237.997,218.743 242.5,222C 257.25,230.457 271.75,239.29 286,248.5C 289.777,254.675 288.943,260.175 283.5,265C 269.669,272.748 256.002,280.748 242.5,289C 236.524,293.904 230.19,294.571 223.5,291C 221.683,289.2 220.516,287.034 220,284.5C 219.333,265.167 219.333,245.833 220,226.5C 220.923,222.086 223.423,219.086 227.5,217.5 Z"/></g>
</svg>
