<?xml version="1.0" encoding="UTF-8"?>
<!DOCTYPE svg PUBLIC "-//W3C//DTD SVG 1.1//EN" "http://www.w3.org/Graphics/SVG/1.1/DTD/svg11.dtd">
<svg xmlns="http://www.w3.org/2000/svg" version="1.1" width="200px" height="200px" style="shape-rendering:geometricPrecision; text-rendering:geometricPrecision; image-rendering:optimizeQuality; fill-rule:evenodd; clip-rule:evenodd" xmlns:xlink="http://www.w3.org/1999/xlink">
<g><path style="opacity:0.999" fill="#282828" d="M 2.5,-0.5 C 67.1667,-0.5 131.833,-0.5 196.5,-0.5C 197.512,0.871651 198.512,2.20498 199.5,3.5C 199.5,67.5 199.5,131.5 199.5,195.5C 198.167,196.833 196.833,198.167 195.5,199.5C 131.5,199.5 67.5,199.5 3.5,199.5C 2.20498,198.512 0.871651,197.512 -0.5,196.5C -0.5,131.833 -0.5,67.1667 -0.5,2.5C 0.833333,1.83333 1.83333,0.833333 2.5,-0.5 Z"/></g>
<g><path style="opacity:1" fill="#b30f0e" d="M 135.5,72.5 C 135.5,71.1667 135.5,69.8333 135.5,68.5C 130.5,68.5 125.5,68.5 120.5,68.5C 120.5,70.8333 120.5,73.1667 120.5,75.5C 119.527,73.0521 119.194,70.3854 119.5,67.5C 125.167,67.5 130.833,67.5 136.5,67.5C 136.784,69.4147 136.451,71.0813 135.5,72.5 Z"/></g>
<g><path style="opacity:1" fill="#f50302" d="M 107.5,116.5 C 104.5,116.5 101.5,116.5 98.5,116.5C 98.719,115.325 98.3857,114.325 97.5,113.5C 96.8933,113.624 96.56,113.957 96.5,114.5C 86.6371,120.401 81.3037,117.568 80.5,106C 80.9255,99.6864 82.0921,93.5198 84,87.5C 86.6576,83.4963 90.3243,81.1629 95,80.5C 97.9234,80.7952 100.257,82.1285 102,84.5C 103.397,78.8959 104.563,73.2292 105.5,67.5C 108.833,67.5 112.167,67.5 115.5,67.5C 112.293,83.7412 109.626,100.074 107.5,116.5 Z"/></g>
<g><path style="opacity:1" fill="#f90201" d="M 135.5,72.5 C 134.049,83.2046 132.383,93.8712 130.5,104.5C 129.549,105.919 129.216,107.585 129.5,109.5C 131.5,109.5 133.5,109.5 135.5,109.5C 135.5,111.833 135.5,114.167 135.5,116.5C 127.833,116.5 120.167,116.5 112.5,116.5C 112.5,114.167 112.5,111.833 112.5,109.5C 115.167,109.5 117.833,109.5 120.5,109.5C 121.649,98.0878 123.316,86.7545 125.5,75.5C 123.833,75.5 122.167,75.5 120.5,75.5C 120.5,73.1667 120.5,70.8333 120.5,68.5C 125.5,68.5 130.5,68.5 135.5,68.5C 135.5,69.8333 135.5,71.1667 135.5,72.5 Z"/></g>
<g><path style="opacity:1" fill="#f5f5f5" d="M 30.5,80.5 C 37.7234,83.7812 44.7234,87.6146 51.5,92C 53.0363,95.24 52.703,98.24 50.5,101C 44.1667,104.833 37.8333,108.667 31.5,112.5C 30.289,110.578 28.9557,108.745 27.5,107C 33.3369,103.582 39.0036,99.9158 44.5,96C 38.8333,92.5 33.1667,89 27.5,85.5C 28.7629,83.9713 29.7629,82.3046 30.5,80.5 Z"/></g>
<g><path style="opacity:1" fill="#f60302" d="M 160.5,80.5 C 165.421,80.0429 168.921,82.0429 171,86.5C 171.791,95.5045 170.458,104.171 167,112.5C 163.398,116.719 158.898,118.219 153.5,117C 151.951,115.786 150.785,114.286 150,112.5C 148.323,118.408 147.156,124.408 146.5,130.5C 143.5,130.5 140.5,130.5 137.5,130.5C 139.443,114.118 141.776,97.7843 144.5,81.5C 147.833,81.5 151.167,81.5 154.5,81.5C 154.351,82.552 154.517,83.552 155,84.5C 156.5,82.5313 158.333,81.198 160.5,80.5 Z"/></g>
<g><path style="opacity:1" fill="#312726" d="M 96.5,88.5 C 100.062,88.5638 101.729,90.3972 101.5,94C 100.747,98.1802 99.9134,102.347 99,106.5C 96.916,109.451 94.2493,110.117 91,108.5C 90.668,103.146 91.0013,97.8127 92,92.5C 93.3968,90.9297 94.8968,89.5964 96.5,88.5 Z"/></g>
<g><path style="opacity:1" fill="#2f2726" d="M 155.5,88.5 C 159.824,88.1577 161.824,90.1577 161.5,94.5C 161.281,99.2295 160.281,103.729 158.5,108C 153.736,110.811 151.069,109.478 150.5,104C 151.378,98.482 153.045,93.3153 155.5,88.5 Z"/></g>
<g><path style="opacity:1" fill="#721e1d" d="M 130.5,104.5 C 130.5,105.833 130.5,107.167 130.5,108.5C 132.415,108.216 134.081,108.549 135.5,109.5C 133.5,109.5 131.5,109.5 129.5,109.5C 129.216,107.585 129.549,105.919 130.5,104.5 Z"/></g>
<g><path style="opacity:1" fill="#fefffe" d="M 48.5,116.5 C 57.5,116.5 66.5,116.5 75.5,116.5C 75.5,118.833 75.5,121.167 75.5,123.5C 66.5,123.5 57.5,123.5 48.5,123.5C 48.5,121.167 48.5,118.833 48.5,116.5 Z"/></g>
<g><path style="opacity:1" fill="#9c1413" d="M 96.5,114.5 C 96.56,113.957 96.8933,113.624 97.5,113.5C 98.3857,114.325 98.719,115.325 98.5,116.5C 101.5,116.5 104.5,116.5 107.5,116.5C 104.375,117.479 101.042,117.813 97.5,117.5C 97.7373,116.209 97.404,115.209 96.5,114.5 Z"/></g>
<g><path style="opacity:1" fill="#941614" d="M 112.5,109.5 C 112.5,111.833 112.5,114.167 112.5,116.5C 120.167,116.5 127.833,116.5 135.5,116.5C 127.684,117.492 119.684,117.826 111.5,117.5C 111.194,114.615 111.527,111.948 112.5,109.5 Z"/></g>
</svg>
